<svg width="488" height="339" viewBox="0 0 488 339" fill="none" xmlns="http://www.w3.org/2000/svg">
<rect x="4.83016" y="107.559" width="435.815" height="232.503" rx="44" transform="rotate(-13.6339 4.83016 107.559)" stroke="white" stroke-width="8"/>
<path d="M232.477 132.663L236.031 146.567L236.65 148.989L234.229 149.608L219.893 153.272L231.784 199.786L232.403 202.208L229.98 202.827L212.511 207.293L210.089 207.912L209.47 205.49L197.578 158.977L183.422 162.597L181 163.216L180.381 160.794L177.403 149.147L166.229 183.252L194.438 207.869L198.021 210.997L193.413 212.175L172.823 217.438L171.55 217.764L170.561 216.9L156.771 204.864L151.966 221.498L151.569 222.872L150.184 223.227L130.307 228.308L127.304 229.074L124.883 229.694L84.6836 239.971L82.2607 240.59L81.6416 238.168L65.5781 175.328L64.959 172.906L67.3809 172.287L107.58 162.011L110.002 161.392L112.291 160.807L132.881 155.543L134.157 155.217L135.147 156.085L148.464 167.753L153.114 151.644L153.511 150.27L154.896 149.915L174.773 144.834L176.207 144.467L178.629 143.848L229.436 130.859L231.857 130.24L232.477 132.663ZM114.199 177.808L114.818 180.229L112.396 180.849L92.0879 186.04L93.4707 191.445L111.104 186.938L113.526 186.319L114.146 188.741L117.54 202.022L118.159 204.444L115.737 205.063L98.1035 209.571L99.7588 216.047L120.066 210.856L122.489 210.236L123.108 212.659L126.686 226.653L126.739 226.863L127.311 225.111L138.983 189.287L111.267 165.112L110.862 164.76L114.199 177.808ZM279.14 120.734L282.717 134.728L283.336 137.15L280.914 137.77L260.607 142.96L261.988 148.366L279.622 143.859L282.044 143.239L282.663 145.662L286.059 158.942L286.678 161.365L284.256 161.984L266.622 166.491L268.277 172.967L288.585 167.776L291.007 167.157L291.626 169.579L295.204 183.573L295.823 185.995L293.4 186.614L253.201 196.891L250.779 197.51L250.16 195.088L234.096 132.249L233.477 129.826L235.899 129.207L276.099 118.931L278.521 118.312L279.14 120.734ZM345.977 103.647L362.041 166.487L362.66 168.909L360.237 169.528L342.768 173.994L341.467 174.327L340.471 173.426L314.385 149.824L321.307 176.9L321.926 179.322L319.504 179.941L302.033 184.407L299.611 185.026L298.992 182.604L282.928 119.766L282.309 117.344L284.731 116.725L302.201 112.258L303.511 111.923L304.509 112.836L330.676 136.788L323.662 109.353L323.043 106.93L325.465 106.311L342.936 101.845L345.357 101.226L345.977 103.647ZM377.755 92.9434C388.311 90.2447 398.024 91.3956 405.782 95.8506C413.545 100.308 419.113 107.937 421.618 117.736C424.091 127.408 422.866 136.789 418.22 144.471C413.573 152.153 405.632 157.924 395.058 160.627L370.189 166.984L367.768 167.604L367.148 165.182L351.084 102.342L350.465 99.9199L352.887 99.3008L377.755 92.9434ZM392.722 114.169C389.879 112.544 386.11 112.112 381.53 113.282L377.891 114.212L384.9 141.634L388.54 140.704C393.13 139.531 396.235 137.358 397.955 134.598C399.663 131.857 400.229 128.175 399.036 123.509C397.83 118.791 395.55 115.785 392.722 114.169Z" fill="#0D113B" fill-opacity="0.7" stroke="white" stroke-width="5"/>
</svg>
