<svg width="488" height="339" viewBox="0 0 488 339" fill="none" xmlns="http://www.w3.org/2000/svg">
<rect x="4.83016" y="107.559" width="435.815" height="232.503" rx="44" transform="rotate(-13.6339 4.83016 107.559)" stroke="white" stroke-width="8"/>
<path d="M183.322 143.246L202.878 219.745L203.497 222.168L201.075 222.787L179.808 228.224L177.385 228.843L176.766 226.421L169.535 198.134L148.444 203.525L155.676 231.812L156.295 234.234L153.873 234.854L132.605 240.29L130.183 240.909L129.563 238.487L110.008 161.987L109.389 159.565L111.811 158.946L133.078 153.51L135.501 152.891L136.12 155.312L142.852 181.645L163.941 176.253L157.21 149.921L156.591 147.499L159.013 146.88L180.28 141.442L182.703 140.823L183.322 143.246ZM216.761 134.697L236.317 211.197L236.937 213.619L234.515 214.238L213.246 219.676L210.824 220.295L210.205 217.872L190.648 141.373L190.029 138.95L192.451 138.331L213.72 132.895L216.142 132.275L216.761 134.697ZM256.105 122.059C268.842 118.803 280.516 120.201 289.82 125.543C299.128 130.888 305.825 140.045 308.843 151.85C311.82 163.498 310.341 174.766 304.768 183.979C299.194 193.194 289.655 200.143 276.9 203.403L246.626 211.143L244.204 211.762L243.585 209.339L224.028 132.84L223.409 130.417L225.831 129.798L256.105 122.059ZM357.604 98.6924L361.959 115.729L362.578 118.15L360.156 118.77L334.908 125.224L336.859 132.857L358.853 127.236L361.274 126.617L361.894 129.039L366.027 145.207L366.646 147.63L364.225 148.249L342.23 153.871L344.516 162.808L369.764 156.354L372.187 155.734L372.806 158.156L377.16 175.192L377.779 177.614L375.357 178.233L326.419 190.744L323.997 191.363L323.378 188.941L303.821 112.441L303.202 110.02L305.625 109.4L354.562 96.8896L356.985 96.2705L357.604 98.6924ZM274.461 146.9C270.847 144.835 266.106 144.315 260.432 145.766L255.475 147.032L264.278 181.469L269.235 180.202C274.92 178.749 278.837 176.039 281.023 172.529C283.198 169.04 283.886 164.398 282.405 158.607C280.909 152.756 278.06 148.957 274.461 146.9Z" fill="#0D113B" fill-opacity="0.7" stroke="white" stroke-width="5"/>
</svg>
