<svg width="90" height="37" viewBox="0 0 90 37" fill="none" xmlns="http://www.w3.org/2000/svg">
<path d="M4.63769 17.169C4.66102 17.1691 4.68409 17.1639 4.7052 17.1539C4.72631 17.1439 4.74493 17.1293 4.7597 17.1111C4.77448 17.0929 4.78503 17.0716 4.79059 17.0488C4.79615 17.026 4.79657 17.0022 4.79183 16.9792C4.65482 16.3302 4.47784 15.6418 4.2609 14.9139C3.37681 11.9401 2.51637 9.0582 1.67959 6.26836C1.27833 4.93012 0.803664 4.09465 2.38181 3.60175C7.8739 1.88151 11.2944 0.782331 12.6434 0.304213C12.831 0.238493 13.2273 0.139912 13.8325 0.0084712C13.9109 -0.00866296 13.9926 0.000344786 14.0655 0.0341333C14.1383 0.0679218 14.1982 0.124656 14.2362 0.195774C14.3064 0.325572 14.3847 0.521092 14.4711 0.782332C14.6538 1.33603 15.6496 4.47255 17.4586 10.1919C17.9332 11.6936 18.363 13.1715 18.748 14.6256C19.0343 15.71 19.2104 16.9126 18.5155 17.8886C17.4316 19.4067 14.8185 19.562 13.5658 18.1893C12.8049 17.3563 12.592 16.0772 13.2551 15.084C13.9744 14.007 15.533 13.6669 16.749 13.4968C16.7669 13.4944 16.7841 13.4881 16.7993 13.4783C16.8146 13.4685 16.8277 13.4555 16.8376 13.4401C16.8476 13.4247 16.8542 13.4073 16.8571 13.389C16.8599 13.3708 16.859 13.3521 16.8542 13.3342C16.0745 10.5164 15.2165 7.76022 14.2803 5.06567C14.1547 4.70257 14.0168 4.38957 13.8668 4.12669C13.8425 4.08377 13.8045 4.05028 13.7589 4.03153C13.7132 4.01278 13.6625 4.00984 13.6147 4.02318C10.3459 4.94327 7.11052 6.06791 3.90857 7.39711C3.84925 7.42177 3.79987 7.46579 3.76837 7.5221C3.73687 7.57842 3.72506 7.64376 3.73484 7.70764C3.82619 8.28763 3.9208 8.737 4.01867 9.05574C4.87013 11.8094 5.65879 14.5615 6.38466 17.3119C6.70518 18.5195 6.98655 19.5102 6.42625 20.5404C6.10328 21.1368 5.63188 21.6905 5.01204 22.2015C4.07494 22.9803 2.21298 23.313 1.16334 22.6303C0.272725 22.0487 -0.106521 21.1713 0.0256028 19.9982C0.253149 17.9773 2.8687 17.169 4.63769 17.169Z" fill="#17BDE5"/>
<path d="M70.3255 22.1196C71.4545 21.5618 72.1407 20.6095 72.0015 19.3177C71.8832 18.1877 71.6037 17.7977 70.9291 16.7946C69.9882 15.3916 68.7232 14.3551 67.1342 13.685C67.1069 13.6736 67.0762 13.6728 67.0481 13.6828C67.0199 13.6928 66.9962 13.7128 66.9814 13.739C66.6141 14.408 66.2976 14.8493 66.1271 15.414C65.8999 16.1646 65.4225 16.8793 65.0508 17.734C64.077 19.9758 63.0616 21.9899 62.0047 23.7764C61.7009 24.2893 61.465 24.7707 61.297 25.2206C61.2477 25.349 61.0112 25.6622 60.5876 26.1602C60.5325 26.2263 60.4677 26.2846 60.3952 26.3333C58.9856 27.2769 56.9789 28.042 55.2765 27.7052C53.8901 27.4311 52.4803 26.665 51.9522 25.2739C51.4895 24.0542 52.1537 22.553 53.0459 21.7542C53.8897 20.9983 54.8946 20.7261 56.0605 20.9376C57.6249 21.2218 59.0329 21.8134 60.2846 22.7124C60.3177 22.736 60.3553 22.7524 60.3952 22.7605C60.4351 22.7686 60.4763 22.7682 60.5162 22.7594C60.556 22.7506 60.5936 22.7335 60.6266 22.7092C60.6596 22.6849 60.6872 22.6541 60.7077 22.6186C61.2274 21.7116 61.6907 20.8191 62.0976 19.9412C63.8155 16.2382 65.59 12.4525 67.4211 8.58409C67.4766 8.46599 67.5748 8.37321 67.6961 8.32428C67.8173 8.27536 67.9528 8.27386 68.0755 8.32009C68.8151 8.59777 69.4708 8.97984 70.0428 9.46631C72.0523 11.1757 73.9436 13.0978 74.652 15.5822C74.9746 16.7129 74.9683 17.8148 74.6329 18.8879C74.1963 20.2851 73.2613 21.3426 71.8278 22.0603C71.3037 22.3227 70.8665 22.5566 70.3819 22.4828C70.3414 22.4759 70.3041 22.4565 70.2752 22.4272C70.2463 22.398 70.2273 22.3605 70.221 22.3201C70.2148 22.2797 70.2215 22.2385 70.2403 22.2025C70.2591 22.1665 70.2889 22.1374 70.3255 22.1196Z" fill="#B649C5"/>
<rect x="40.7075" y="10.332" width="9.99284" height="2.49821" rx="1.2491" transform="rotate(101.411 40.7075 10.332)" fill="url(#paint0_linear_57_1108)"/>
<rect x="89.4663" y="31.6377" width="9.99284" height="2.49821" rx="1.2491" transform="rotate(150.83 89.4663 31.6377)" fill="url(#paint1_linear_57_1108)"/>
<defs>
<linearGradient id="paint0_linear_57_1108" x1="40.7075" y1="10.332" x2="48.3893" y2="15.9758" gradientUnits="userSpaceOnUse">
<stop stop-color="#FFF8C4"/>
<stop offset="0.4" stop-color="#FFD03B"/>
<stop offset="0.7" stop-color="#E2A100"/>
<stop offset="1" stop-color="#7C5100"/>
</linearGradient>
<linearGradient id="paint1_linear_57_1108" x1="89.4663" y1="31.6377" x2="97.1481" y2="37.2815" gradientUnits="userSpaceOnUse">
<stop stop-color="#FFF8C4"/>
<stop offset="0.4" stop-color="#FFD03B"/>
<stop offset="0.7" stop-color="#E2A100"/>
<stop offset="1" stop-color="#7C5100"/>
</linearGradient>
</defs>
</svg>
