<svg width="364" height="217" viewBox="0 0 364 217" fill="none" xmlns="http://www.w3.org/2000/svg">
<g clip-path="url(#clip0_3_2271)">
<path d="M200.644 39.7485C200.684 39.7679 200.729 39.7779 200.774 39.7778C200.818 39.7777 200.863 39.7674 200.903 39.7477C200.944 39.7281 200.98 39.6995 201.008 39.6641C201.037 39.6288 201.057 39.5875 201.068 39.5433C201.375 38.2602 201.617 37.1292 201.793 36.1502C203.189 28.449 204.516 21.1932 205.775 14.3827C205.96 13.3825 206.55 12.9249 207.544 13.01C208.839 13.1195 210.322 13.2198 211.626 13.5162C217.542 14.8601 223.561 15.8497 229.681 16.4851C229.836 16.5 229.982 16.5603 230.101 16.6585C230.535 16.999 230.698 17.4748 230.589 18.0859C228.938 27.2739 227.492 36.0286 226.251 44.3501C225.722 47.8891 225.002 50.4612 221.887 51.7062C218.489 53.0607 214.718 51.7108 213.856 48.0487C212.948 44.1768 215.972 41.6366 219.648 41.9558C220.84 42.0592 222.001 42.3967 223.132 42.9682C223.18 42.992 223.234 43.0041 223.287 43.0037C223.341 43.0033 223.394 42.9903 223.441 42.9659C223.489 42.9414 223.53 42.9062 223.561 42.863C223.592 42.8199 223.612 42.77 223.62 42.7174L226.247 25.0134C226.276 24.8212 226.226 24.6254 226.11 24.469C225.994 24.3126 225.82 24.2082 225.627 24.1788L208.566 21.6431C208.289 21.6026 208.006 21.6573 207.765 21.7982C207.524 21.9392 207.338 22.1579 207.239 22.4184C206.928 23.218 206.719 23.9386 206.609 24.5801C205.32 32.0959 204.147 38.2922 203.088 43.1689C202.386 46.4206 199.477 48.6507 196.343 49.1432C193.79 49.5491 190.729 48.0624 190.155 45.3078C189.635 42.8314 190.392 40.4371 192.928 39.4566C195.539 38.4472 198.111 38.5445 200.644 39.7485Z" fill="#E7260F"/>
<path d="M86.0786 36.1267C86.1142 36.1269 86.1494 36.119 86.1816 36.1038C86.2138 36.0886 86.2423 36.0663 86.2648 36.0386C86.2874 36.011 86.3035 35.9786 86.3119 35.9438C86.3204 35.9091 86.3211 35.8729 86.3139 35.8379C86.1047 34.8503 85.8346 33.8027 85.5035 32.6951C84.1541 28.1696 82.8408 23.7842 81.5636 19.5388C80.9511 17.5024 80.2266 16.231 82.6354 15.4809C91.0181 12.8632 96.2389 11.1905 98.2978 10.4629C98.5841 10.3629 99.1891 10.2129 100.113 10.0129C100.232 9.98682 100.357 10.0005 100.468 10.0519C100.579 10.1034 100.671 10.1897 100.729 10.2979C100.836 10.4954 100.956 10.793 101.087 11.1905C101.366 12.0331 102.886 16.8061 105.647 25.5094C106.372 27.7946 107.028 30.0436 107.615 32.2563C108.052 33.9064 108.321 35.7366 107.261 37.2218C105.606 39.532 101.618 39.7683 99.7057 37.6793C98.5443 36.4117 98.2194 34.4653 99.2314 32.9539C100.329 31.3149 102.708 30.7974 104.564 30.5386C104.592 30.5349 104.618 30.5253 104.641 30.5104C104.664 30.4955 104.684 30.4757 104.7 30.4523C104.715 30.4289 104.725 30.4024 104.729 30.3746C104.734 30.3468 104.732 30.3184 104.725 30.2911C103.535 26.0032 102.225 21.809 100.796 17.7086C100.604 17.1561 100.394 16.6798 100.165 16.2797C100.128 16.2144 100.07 16.1635 100 16.1349C99.9307 16.1064 99.8533 16.1019 99.7804 16.1222C94.7911 17.5224 89.8529 19.2338 84.9657 21.2565C84.8752 21.294 84.7998 21.361 84.7517 21.4467C84.7036 21.5324 84.6856 21.6318 84.7006 21.729C84.84 22.6116 84.9844 23.2954 85.1338 23.7805C86.4334 27.9709 87.6371 32.1588 88.745 36.3442C89.2342 38.1819 89.6637 39.6895 88.8085 41.2572C88.3155 42.1647 87.596 43.0073 86.65 43.7849C85.2196 44.97 82.3777 45.4763 80.7756 44.4375C79.4163 43.5524 78.8374 42.2172 79.0391 40.4321C79.3864 37.3568 83.3785 36.1267 86.0786 36.1267Z" fill="#17BDE5"/>
<path d="M148.38 37.1579C150.574 39.7073 151.149 42.4117 152.12 45.864C152.168 46.0334 152.24 46.1961 152.334 46.3474C153.584 48.4133 155.764 49.1476 158.518 50.4884C158.874 50.6617 159.213 51.06 159.535 51.6833C159.572 51.7529 159.587 51.8318 159.578 51.9099C159.569 51.9879 159.536 52.0615 159.485 52.1211C159.093 52.568 158.702 52.834 158.313 52.9192C156.083 53.398 155.116 53.5485 153.766 55.1994C153.137 55.9687 152.346 57.501 151.395 59.7965C150.489 61.9855 150.136 64.0651 150.337 66.0353C150.348 66.1472 150.332 66.2601 150.29 66.3644C150.248 66.4687 150.182 66.5612 150.096 66.6339C150.011 66.7066 149.909 66.7574 149.8 66.7818C149.691 66.8062 149.578 66.8036 149.47 66.7741C148.453 66.4959 147.126 64.1427 146.688 63.34C146.622 63.216 146.574 63.0823 146.547 62.9432C146.127 60.8454 145.665 59.1793 145.161 57.9449C144.185 55.5552 142.233 54.4515 139.939 53.4847C137.918 52.6319 139.615 50.9627 140.782 50.3151C143.71 48.6961 145.822 47.971 146.98 45.2118C147.965 42.8616 148.166 40.3093 147.582 37.5547C147.561 37.455 147.574 37.3511 147.619 37.2595C147.663 37.1678 147.737 37.0935 147.828 37.0482C147.919 37.0028 148.023 36.989 148.123 37.0088C148.223 37.0287 148.313 37.0811 148.38 37.1579Z" fill="#F07E2C"/>
<path d="M31.1126 50.0859C31.1765 49.6754 31.295 49.2756 31.4683 48.8865C32.2482 47.1215 32.873 45.1377 32.3759 43.3545C32.0354 42.1262 31.4592 41.1867 30.6474 40.5361C29.182 39.3625 27.8351 38.6268 26.6068 38.3288C25.7312 38.116 24.9027 37.9214 24.1213 37.745C24.0696 37.7339 24.0161 37.7345 23.9648 37.747C23.9135 37.7594 23.8657 37.7832 23.8252 37.8167C23.7847 37.8501 23.7526 37.8923 23.7311 37.94C23.7097 37.9876 23.6997 38.0395 23.7017 38.0917C23.875 45.3855 23.9784 51.6015 24.0119 56.7397C24.0179 57.9133 23.9723 58.8573 23.875 59.5718C23.3278 63.5608 21.1189 66.1284 17.2486 67.2746C16.0765 67.6258 13.2763 67.4981 12.0085 66.7729C8.13203 64.5519 8.16396 60.0279 11.1739 57.0863C12.8492 55.4476 14.9668 54.654 17.5268 54.7057C17.694 54.7118 18.6456 54.8304 20.3817 55.0614C20.4446 55.0698 20.5086 55.0648 20.5694 55.0467C20.6303 55.0287 20.6867 54.998 20.7349 54.9567C20.7831 54.9154 20.822 54.8643 20.8492 54.807C20.8763 54.7496 20.8911 54.6871 20.8924 54.6236C21.0171 45.314 20.9137 36.7098 20.5823 28.8109C20.5771 28.6719 20.6188 28.5351 20.7007 28.4227C20.7826 28.3102 20.8999 28.2285 21.0338 28.1907C22.5479 27.7559 23.9586 28.0645 25.266 29.1165C26.4852 30.0985 28.39 31.5123 30.9804 33.3578C33.5024 35.1592 35.5455 37.549 35.6914 40.7277C35.7765 42.6036 35.4801 44.2453 34.8021 45.653C33.9903 47.3344 32.876 48.8713 31.4592 50.2638C31.4285 50.294 31.389 50.3137 31.3463 50.3202C31.3037 50.3267 31.2601 50.3196 31.2217 50.2999C31.1834 50.2802 31.1522 50.249 31.1326 50.2105C31.113 50.1721 31.106 50.1285 31.1126 50.0859Z" fill="#F07E2C"/>
<path d="M321.647 192.072C321.692 192.088 321.74 192.094 321.787 192.091C321.835 192.087 321.881 192.073 321.923 192.05C321.964 192.027 322 191.996 322.028 191.958C322.056 191.92 322.076 191.876 322.085 191.83C322.514 189.799 322.837 187.796 323.056 185.819C323.953 177.695 324.497 172.872 324.689 171.349C324.877 169.832 325.031 168.021 325.15 165.917C325.163 165.676 325.267 165.449 325.439 165.281C325.612 165.112 325.842 165.014 326.085 165.005C327.486 164.959 328.883 165.23 330.276 165.817C332.282 166.665 334.289 167.696 336.296 168.909C340.313 171.34 344.245 176.119 343.542 181.067C343.132 183.968 341.184 186.718 338.886 188.1C338.807 188.145 338.734 188.166 338.667 188.163C338.581 188.157 338.498 188.127 338.428 188.075C338.359 188.023 338.305 187.953 338.274 187.872C338.243 187.791 338.235 187.703 338.253 187.618C338.27 187.533 338.311 187.455 338.371 187.393C340.897 184.748 340.177 181.728 337.769 179.279C335.117 176.583 331.857 174.929 327.986 174.318C327.918 174.307 327.848 174.31 327.781 174.327C327.714 174.344 327.65 174.374 327.595 174.417C327.54 174.459 327.493 174.512 327.459 174.572C327.424 174.633 327.402 174.7 327.393 174.769C327.038 177.621 326.697 180.734 326.372 184.109C325.949 188.527 325.177 192.932 324.055 197.326C323.918 197.852 323.604 198.371 323.111 198.885C320.762 201.321 317.269 203.382 313.967 202.716C311.541 202.228 308.951 200.454 309.001 197.686C309.119 190.859 316.9 190.339 321.647 192.072Z" fill="#57C680"/>
<path d="M37.7876 203.536C37.847 203.543 37.9072 203.536 37.9635 203.516C38.0198 203.496 38.0708 203.464 38.1127 203.422C38.1545 203.38 38.1859 203.328 38.2047 203.272C38.2234 203.216 38.229 203.157 38.2209 203.098L36.5289 190.899C36.5184 190.82 36.4908 190.744 36.4482 190.677C36.4056 190.609 36.3488 190.552 36.2818 190.508C36.2148 190.464 36.1391 190.436 36.0597 190.423C35.9804 190.411 35.8993 190.416 35.822 190.438C34.5846 190.782 31.6978 191.672 27.1615 193.111C25.6961 193.576 24.2778 194.152 22.9066 194.839C22.7098 194.939 22.5491 195.097 22.4469 195.293C22.3446 195.488 22.3061 195.711 22.3365 195.929C23.2334 202.393 23.7411 206.145 23.8597 207.184C24.0695 209.018 24.1409 210.468 24.074 211.535C24.065 211.696 24.0405 211.855 24.0011 212.009C23.3079 214.791 19.8464 217.797 16.6723 217.012C15.3893 216.693 14.5501 215.804 14.1549 214.344C13.0649 210.313 17.9766 208.366 21.1234 208.53C21.1712 208.532 21.2189 208.524 21.2632 208.506C21.3074 208.488 21.3471 208.46 21.3794 208.425C21.4117 208.389 21.4357 208.347 21.4498 208.302C21.4639 208.256 21.4677 208.208 21.4609 208.16L19.0985 191.122C19.0653 190.879 19.0981 190.632 19.1936 190.405C19.2891 190.179 19.4437 189.983 19.6412 189.836C20.3922 189.28 21.1021 188.915 21.771 188.742C26.5109 187.513 31.3299 185.982 36.2279 184.149C36.2614 184.137 36.538 184.09 37.0579 184.008C37.2295 183.981 37.4045 184.023 37.5453 184.125C37.6861 184.226 37.7813 184.379 37.8104 184.55C39.0174 191.561 39.9904 197.784 40.7292 203.217C41.0484 205.556 41.0758 207.513 39.5571 209.383C38.3227 210.9 36.8481 211.552 35.1334 211.339C32.3286 210.988 31.0836 208.361 32.2466 205.853C33.1495 203.91 35.7354 203.29 37.7876 203.536Z" fill="#E7260F"/>
<path d="M337.751 36.8479C339.475 35.1422 340.15 32.9851 339.11 30.7094C338.207 28.7164 337.459 28.1737 335.616 26.7508C333.044 24.7594 330.103 23.6345 326.792 23.376C326.735 23.3718 326.679 23.389 326.633 23.4243C326.588 23.4596 326.557 23.5106 326.545 23.5676C326.281 25.0133 325.971 26.012 326.003 27.1476C326.044 28.6571 325.606 30.2533 325.446 32.0411C325.03 36.7293 324.399 41.0269 323.554 44.9337C323.311 46.0556 323.172 47.0787 323.139 48.003C323.127 48.2675 322.885 48.9835 322.414 50.151C322.353 50.3053 322.27 50.4512 322.167 50.5843C320.165 53.1655 316.964 55.7833 313.648 56.2029C310.948 56.5449 307.907 56.0022 306.096 53.7812C304.509 51.8339 304.81 48.6871 305.955 46.685C307.037 44.7909 308.708 43.6826 310.967 43.3603C313.998 42.9286 316.93 43.1536 319.764 44.0353C319.839 44.0584 319.918 44.0654 319.995 44.056C320.073 44.0465 320.148 44.0208 320.216 43.9804C320.283 43.94 320.341 43.8859 320.387 43.8215C320.432 43.7571 320.464 43.684 320.48 43.6066C320.878 41.6334 321.182 39.721 321.392 37.8695C322.28 30.0588 323.221 22.0626 324.215 13.881C324.245 13.6315 324.368 13.4022 324.56 13.2391C324.751 13.076 324.998 12.9909 325.25 13.0008C326.77 13.0585 328.201 13.358 329.542 13.8992C334.253 15.801 338.877 18.1633 341.682 22.2724C342.959 24.1422 343.617 26.1595 343.657 28.3242C343.708 31.1426 342.643 33.6434 340.46 35.8263C339.662 36.6244 339.005 37.3176 338.075 37.4773C337.996 37.4893 337.916 37.4765 337.846 37.4407C337.775 37.4048 337.718 37.3478 337.682 37.2778C337.646 37.2078 337.633 37.1285 337.645 37.0512C337.658 36.9739 337.695 36.9028 337.751 36.8479Z" fill="#B649C5"/>
<rect x="4.87402" y="97.1582" width="20" height="5" rx="2.5" transform="rotate(14.0995 4.87402 97.1582)" fill="url(#paint0_linear_3_2271)"/>
<rect x="-0.456055" y="170.181" width="20" height="5" rx="2.5" transform="rotate(-33.5998 -0.456055 170.181)" fill="url(#paint1_linear_3_2271)"/>
<rect x="53.2891" y="28" width="20" height="5" rx="2.5" transform="rotate(59.0791 53.2891 28)" fill="url(#paint2_linear_3_2271)"/>
<rect x="134.59" y="-0.142578" width="20" height="5" rx="2.5" transform="rotate(77.8965 134.59 -0.142578)" fill="url(#paint3_linear_3_2271)"/>
<rect x="183.977" y="-5.99707" width="20" height="5" rx="2.5" transform="rotate(103.307 183.977 -5.99707)" fill="url(#paint4_linear_3_2271)"/>
<rect x="257.758" y="12.7617" width="20" height="5" rx="2.5" transform="rotate(118.912 257.758 12.7617)" fill="url(#paint5_linear_3_2271)"/>
<rect x="299.299" y="20.4678" width="20" height="5" rx="2.5" transform="rotate(140.112 299.299 20.4678)" fill="url(#paint6_linear_3_2271)"/>
<rect x="348.466" y="63.7754" width="20" height="5" rx="2.5" transform="rotate(157.283 348.466 63.7754)" fill="url(#paint7_linear_3_2271)"/>
<rect x="363.229" y="112.121" width="20" height="5" rx="2.5" transform="rotate(-165.318 363.229 112.121)" fill="url(#paint8_linear_3_2271)"/>
</g>
<defs>
<linearGradient id="paint0_linear_3_2271" x1="4.87402" y1="97.1582" x2="20.2487" y2="108.454" gradientUnits="userSpaceOnUse">
<stop stop-color="#FFF8C4"/>
<stop offset="0.4" stop-color="#FFD03B"/>
<stop offset="0.7" stop-color="#E2A100"/>
<stop offset="1" stop-color="#7C5100"/>
</linearGradient>
<linearGradient id="paint1_linear_3_2271" x1="-0.456055" y1="170.181" x2="14.9186" y2="181.476" gradientUnits="userSpaceOnUse">
<stop stop-color="#FFF8C4"/>
<stop offset="0.4" stop-color="#FFD03B"/>
<stop offset="0.7" stop-color="#E2A100"/>
<stop offset="1" stop-color="#7C5100"/>
</linearGradient>
<linearGradient id="paint2_linear_3_2271" x1="53.2891" y1="28" x2="68.6637" y2="39.2956" gradientUnits="userSpaceOnUse">
<stop stop-color="#FFF8C4"/>
<stop offset="0.4" stop-color="#FFD03B"/>
<stop offset="0.7" stop-color="#E2A100"/>
<stop offset="1" stop-color="#7C5100"/>
</linearGradient>
<linearGradient id="paint3_linear_3_2271" x1="134.59" y1="-0.142578" x2="149.964" y2="11.1531" gradientUnits="userSpaceOnUse">
<stop stop-color="#FFF8C4"/>
<stop offset="0.4" stop-color="#FFD03B"/>
<stop offset="0.7" stop-color="#E2A100"/>
<stop offset="1" stop-color="#7C5100"/>
</linearGradient>
<linearGradient id="paint4_linear_3_2271" x1="183.977" y1="-5.99707" x2="199.351" y2="5.29857" gradientUnits="userSpaceOnUse">
<stop stop-color="#FFF8C4"/>
<stop offset="0.4" stop-color="#FFD03B"/>
<stop offset="0.7" stop-color="#E2A100"/>
<stop offset="1" stop-color="#7C5100"/>
</linearGradient>
<linearGradient id="paint5_linear_3_2271" x1="257.758" y1="12.7617" x2="273.132" y2="24.0574" gradientUnits="userSpaceOnUse">
<stop stop-color="#FFF8C4"/>
<stop offset="0.4" stop-color="#FFD03B"/>
<stop offset="0.7" stop-color="#E2A100"/>
<stop offset="1" stop-color="#7C5100"/>
</linearGradient>
<linearGradient id="paint6_linear_3_2271" x1="299.299" y1="20.4678" x2="314.673" y2="31.7634" gradientUnits="userSpaceOnUse">
<stop stop-color="#FFF8C4"/>
<stop offset="0.4" stop-color="#FFD03B"/>
<stop offset="0.7" stop-color="#E2A100"/>
<stop offset="1" stop-color="#7C5100"/>
</linearGradient>
<linearGradient id="paint7_linear_3_2271" x1="348.466" y1="63.7754" x2="363.84" y2="75.071" gradientUnits="userSpaceOnUse">
<stop stop-color="#FFF8C4"/>
<stop offset="0.4" stop-color="#FFD03B"/>
<stop offset="0.7" stop-color="#E2A100"/>
<stop offset="1" stop-color="#7C5100"/>
</linearGradient>
<linearGradient id="paint8_linear_3_2271" x1="363.229" y1="112.121" x2="378.604" y2="123.416" gradientUnits="userSpaceOnUse">
<stop stop-color="#FFF8C4"/>
<stop offset="0.4" stop-color="#FFD03B"/>
<stop offset="0.7" stop-color="#E2A100"/>
<stop offset="1" stop-color="#7C5100"/>
</linearGradient>
<clipPath id="clip0_3_2271">
<rect width="364" height="217" fill="white"/>
</clipPath>
</defs>
</svg>
