<svg width="32" height="31" viewBox="0 0 32 31" fill="none" xmlns="http://www.w3.org/2000/svg">
<path d="M4 5.4C4 4.58999 4.67158 3.93333 5.5 3.93333H8.5C9.32842 3.93333 10 3.27668 10 2.46667C10 1.65666 9.32842 1 8.5 1H5.5C3.01473 1 1 2.96995 1 5.4V8.33333C1 9.14336 1.67158 9.8 2.5 9.8C3.32842 9.8 4 9.14336 4 8.33333V5.4Z" fill="black"/>
<path d="M28 25.8668C28 26.6768 27.3284 27.3335 26.5 27.3335H23.5C22.6716 27.3335 22 27.9901 22 28.8001C22 29.6102 22.6716 30.2668 23.5 30.2668H26.5C28.9854 30.2668 31 28.2969 31 25.8668V22.9335C31 22.1234 30.3284 21.4668 29.5 21.4668C28.6716 21.4668 28 22.1234 28 22.9335V25.8668Z" fill="black"/>
<path d="M4 25.8668C4 26.6768 4.67158 27.3335 5.5 27.3335H8.5C9.32844 27.3335 10 27.9901 10 28.8001C10 29.6102 9.32844 30.2668 8.5 30.2668H5.5C3.01473 30.2668 1 28.2969 1 25.8668V22.9335C1 22.1234 1.67158 21.4668 2.5 21.4668C3.32844 21.4668 4 22.1234 4 22.9335V25.8668Z" fill="black"/>
<path d="M26.5 3.86644C27.3284 3.86644 28 4.52309 28 5.33311V8.26644C28 9.07645 28.6716 9.73311 29.5 9.73311C30.3284 9.73311 31 9.07646 31 8.26644V5.33311C31 2.90306 28.9854 0.933105 26.5 0.933105H23.5C22.6716 0.933105 22 1.58976 22 2.39977C22 3.20978 22.6716 3.86644 23.5 3.86644H26.5Z" fill="black"/>
<path fill-rule="evenodd" clip-rule="evenodd" d="M8.5 14.1331C7.67158 14.1331 7 13.4765 7 12.6665V8.26647C7 7.45645 7.67158 6.7998 8.5 6.7998H13C13.8284 6.7998 14.5 7.45646 14.5 8.26647V12.6665C14.5 13.4765 13.8284 14.1331 13 14.1331H8.5ZM10 11.1998H11.5V9.73314H10V11.1998Z" fill="black"/>
<path fill-rule="evenodd" clip-rule="evenodd" d="M7 22.8667C7 23.6767 7.67158 24.3333 8.5 24.3333H13C13.8284 24.3333 14.5 23.6767 14.5 22.8667V18.4667C14.5 17.6566 13.8284 17 13 17H8.5C7.67158 17 7 17.6566 7 18.4667V22.8667ZM11.5 21.4H10V19.9333H11.5V21.4Z" fill="black"/>
<path fill-rule="evenodd" clip-rule="evenodd" d="M19 14.1331C18.1716 14.1331 17.5 13.4765 17.5 12.6665V8.26647C17.5 7.45645 18.1716 6.7998 19 6.7998H23.5C24.3284 6.7998 25 7.45646 25 8.26647V12.6665C25 13.4765 24.3284 14.1331 23.5 14.1331H19ZM20.5 11.1998H22V9.73314H20.5V11.1998Z" fill="black"/>
<path fill-rule="evenodd" clip-rule="evenodd" d="M17.5 22.9336C17.5 23.7436 18.1716 24.4002 19 24.4002H23.5C24.3284 24.4002 25 23.7436 25 22.9336V18.5336C25 17.7235 24.3284 17.0669 23.5 17.0669H19C18.1716 17.0669 17.5 17.7235 17.5 18.5336V22.9336ZM22 21.4669H20.5V20.0002H22V21.4669Z" fill="black"/>
</svg>
