<svg width="488" height="339" viewBox="0 0 488 339" fill="none" xmlns="http://www.w3.org/2000/svg">
<rect x="4.83016" y="107.559" width="435.815" height="232.503" rx="44" transform="rotate(-13.6339 4.83016 107.559)" stroke="white" stroke-width="8"/>
<path d="M89.6621 163.336C98.8187 160.996 107.24 161.22 114.095 164.228C121.018 167.266 126.068 173.026 128.585 181.155L129.362 183.666L126.816 184.316L103.703 190.224L101.389 190.816L100.692 188.531C100.121 186.655 99.2479 185.735 98.4199 185.293C97.5672 184.839 96.3916 184.695 94.875 185.083L94.833 185.093L94.791 185.103C93.6891 185.345 93.0104 185.843 92.6592 186.366C92.3329 186.851 92.0972 187.64 92.4219 188.91C92.7437 190.169 94.0192 191.246 97.8633 192C99.6623 192.352 101.756 192.582 104.105 192.802C106.416 193.019 108.981 193.225 111.552 193.535C116.68 194.152 122.244 195.214 126.975 197.861C131.82 200.572 135.699 204.897 137.446 211.734C139.334 219.117 138.164 226.52 133.975 232.702C129.798 238.864 122.761 243.616 113.235 246.051C104.364 248.319 95.7033 248.279 88.4814 245.36C81.1748 242.406 75.5632 236.586 72.8184 227.813L72.0312 225.297L74.585 224.645L97.2637 218.847L99.5098 218.273L100.252 220.469C101.054 222.844 102.137 223.911 103.095 224.394C104.085 224.893 105.366 224.983 106.938 224.582C108.452 224.194 109.466 223.517 110.008 222.821C110.493 222.197 110.714 221.426 110.449 220.379C110.045 218.876 108.656 217.788 104.878 217.101C103.073 216.773 100.976 216.585 98.6172 216.412C96.3004 216.242 93.7257 216.086 91.1445 215.818C85.9944 215.282 80.3921 214.262 75.6152 211.472C70.7194 208.612 66.8617 203.994 65.0859 196.675L65.0869 196.674C62.9913 188.441 64.8135 181.097 69.4473 175.296C74.0259 169.565 81.212 165.497 89.6621 163.336ZM202.184 138.423L221.739 214.923L222.358 217.346L219.937 217.965L198.669 223.402L196.246 224.021L195.627 221.599L188.396 193.312L167.306 198.703L174.537 226.991L175.156 229.413L172.734 230.032L151.467 235.468L149.044 236.087L148.425 233.666L128.869 157.166L128.25 154.744L130.672 154.125L151.939 148.687L154.362 148.068L154.981 150.491L161.713 176.823L182.803 171.431L176.071 145.099L175.452 142.677L177.874 142.058L199.142 136.621L201.563 136.001L202.184 138.423ZM247.685 122.94C270.784 117.035 293.677 129.511 299.912 153.901C306.146 178.287 291.974 200.358 268.979 206.237C245.992 212.113 222.85 199.589 216.614 175.195C210.376 150.792 224.707 128.814 247.685 122.94ZM407.593 86.5278L408.376 167.827L408.396 169.788L406.496 170.273L380.345 176.958L378.406 177.454L377.498 175.671L359.991 141.304L360.957 179.911L361.007 181.902L359.076 182.395L332.926 189.081L331.021 189.568L330.099 187.832L291.987 116.075L290.496 113.267L293.575 112.48L316.58 106.599L318.625 106.077L319.483 108.004L336.668 146.614L335.643 103.727L335.595 101.738L337.522 101.246L360.853 95.2817L362.788 94.7866L363.697 96.5659L382.947 134.229L379.597 92.6333L379.427 90.5327L381.469 90.0112L404.474 84.1304L407.562 83.3403L407.593 86.5278ZM266.152 148.971C262.93 146.794 258.804 146.066 253.916 147.316C248.968 148.581 245.703 151.202 243.937 154.646C242.146 158.137 241.728 162.804 243.161 168.409C244.564 173.895 247.16 177.767 250.412 179.975C253.622 182.154 257.753 182.906 262.691 181.644C267.57 180.397 270.839 177.757 272.625 174.292C274.433 170.786 274.874 166.136 273.474 160.66C272.043 155.065 269.414 151.175 266.152 148.971Z" fill="#0D113B" fill-opacity="0.7" stroke="white" stroke-width="5"/>
</svg>
