<svg width="488" height="339" viewBox="0 0 488 339" fill="none" xmlns="http://www.w3.org/2000/svg">
<rect x="4.83016" y="107.559" width="435.815" height="232.503" rx="44" transform="rotate(-13.6339 4.83016 107.559)" stroke="white" stroke-width="8"/>
<path d="M140.527 150.333C149.684 147.993 158.105 148.217 164.96 151.225C171.883 154.263 176.934 160.023 179.45 168.152L180.228 170.662L177.682 171.313L154.568 177.221L152.254 177.813L151.558 175.528C150.986 173.652 150.113 172.732 149.285 172.291C148.432 171.836 147.257 171.692 145.74 172.08L145.698 172.09L145.656 172.1C144.554 172.342 143.876 172.84 143.524 173.363C143.198 173.849 142.962 174.637 143.287 175.907C143.609 177.166 144.885 178.243 148.729 178.997C150.528 179.349 152.621 179.579 154.971 179.799C157.281 180.016 159.846 180.222 162.417 180.532C167.545 181.149 173.109 182.211 177.84 184.858C182.685 187.569 186.564 191.894 188.312 198.73C190.199 206.113 189.029 213.517 184.84 219.699C180.664 225.861 173.626 230.613 164.101 233.048C155.23 235.316 146.569 235.276 139.347 232.357C132.04 229.403 126.428 223.584 123.684 214.81L122.896 212.294L125.45 211.642L148.129 205.844L150.375 205.27L151.117 207.466C151.919 209.841 153.002 210.908 153.96 211.391C154.95 211.891 156.231 211.98 157.803 211.579C159.318 211.191 160.331 210.514 160.873 209.818C161.358 209.194 161.579 208.423 161.314 207.376C160.91 205.873 159.521 204.785 155.743 204.098C153.938 203.77 151.841 203.582 149.482 203.409C147.166 203.239 144.591 203.083 142.01 202.814C136.86 202.278 131.257 201.259 126.48 198.469C121.585 195.609 117.727 190.991 115.951 183.672L115.952 183.671C113.856 175.438 115.679 168.094 120.312 162.293C124.891 156.562 132.077 152.494 140.527 150.333ZM254.016 126.731L236.128 169.29L274.245 199.954L278.139 203.086L273.298 204.324L247.58 210.898L246.335 211.216L245.352 210.388L218.761 188.007L225.402 213.987L226.021 216.41L223.6 217.029L202.332 222.465L199.909 223.084L199.29 220.663L179.734 144.163L179.115 141.741L181.537 141.122L202.805 135.684L205.228 135.065L205.847 137.488L212.36 162.968L224.86 131.119L225.328 129.926L226.568 129.61L251.092 123.34L255.965 122.095L254.016 126.731ZM284.58 117.36L304.137 193.86L304.756 196.282L302.333 196.901L281.065 202.338L278.644 202.958L278.024 200.535L258.468 124.036L257.849 121.613L260.271 120.994L281.539 115.557L283.961 114.938L284.58 117.36ZM325.444 104.333C335.39 101.791 343.928 102.612 350.567 106.304C357.219 110.003 361.626 116.396 363.65 124.313C365.499 131.546 364.77 139.137 360.822 145.624C356.867 152.122 349.851 157.241 339.637 159.852L331.532 161.923L337.516 185.327L338.135 187.749L335.713 188.368L314.445 193.805L312.022 194.424L311.403 192.002L291.848 115.502L291.229 113.08L293.65 112.46L325.444 104.333ZM334.593 127.078C333.535 126.451 331.82 126.129 329.003 126.849L322.962 128.393L325.967 140.151L332.009 138.607C334.825 137.887 336.182 136.781 336.812 135.728C337.441 134.679 337.641 133.196 337.104 131.099C336.551 128.935 335.651 127.705 334.593 127.078Z" fill="#0D113B" fill-opacity="0.7" stroke="white" stroke-width="5"/>
</svg>
