<svg width="319" height="123" viewBox="0 0 319 123" fill="none" xmlns="http://www.w3.org/2000/svg">
<g clip-path="url(#clip0_3_2185)">
<path d="M250.388 0.47645C253.469 1.17982 255.802 3.0699 256.648 6.08538C256.975 7.24685 257.374 8.13057 257.849 8.74016C258.579 9.67438 259.66 11.1821 261.086 13.2634C261.395 13.7107 261.634 14.1002 261.805 14.4285C261.896 17.0724 261.74 19.2114 261.337 20.8454C260.038 26.1189 257.867 30.9848 254.826 35.4395C254.721 35.5946 254.746 35.8002 254.881 35.9264L255.795 36.7848L253.295 37.3619C253.208 37.38 253.157 37.4738 253.186 37.5567C253.774 39.2448 254.939 40.0672 255.32 41.6399C255.672 43.0863 255.704 44.7131 255.421 46.5202C254.579 51.8983 252.144 57.078 250.177 61.5038C249.825 62.2902 249.767 63.2785 249.999 64.4652C250.021 64.577 250.123 64.66 250.239 64.6528C250.674 64.6275 251.088 64.4724 251.48 64.1839C254.975 61.5868 258.415 57.4026 260.342 52.9011C260.847 51.7252 261.337 50.2715 261.82 48.5401C262.574 45.824 263.572 43.3604 263.754 40.7057C263.859 39.1799 263.249 38.1916 261.932 37.7479C262.64 35.5368 264.091 34.0796 266.287 33.3834C268.134 32.9542 269.92 33.0552 271.644 33.69C272.656 34.0652 274.765 34.9056 275.915 35.7857C276.38 36.1428 276.808 36.7018 277.203 37.4629C277.911 38.8264 278.749 40.1682 279.722 41.4848C276.779 42.3396 274.605 44.0963 273.197 46.7619C273.164 46.8268 273.139 46.8953 273.121 46.9639L270.526 57.1754C270.5 57.28 270.489 57.3882 270.497 57.4964C270.646 59.6138 270.685 61.5399 273.092 62.301C273.226 62.3443 273.375 62.3154 273.487 62.2252C275.748 60.364 277.316 58.5894 278.187 56.9049C279.729 53.9146 280.557 50.7368 281.511 47.5085C282.154 45.3335 282.132 42.841 283.587 40.9257L282.883 43.9484C282.11 46.7943 281.384 49.6367 280.709 52.4682C280.35 53.9687 279.646 55.5558 278.597 57.2295C277.182 59.4839 272.627 65.5906 269.437 63.4516C268.722 62.9719 268.581 62.0954 268.798 61.2946C270.638 54.5675 272.467 47.3354 274.289 39.5911C274.358 39.3133 274.238 39.0212 273.992 38.8697C271.843 37.517 268.631 36.4602 266.138 37.0445C265.699 37.1491 265.34 37.4629 265.18 37.885C264.937 38.5378 264.665 39.3999 264.364 40.4712C263.801 42.4731 263.213 44.6986 262.607 47.1442C261.841 50.2318 261.148 52.4213 260.531 53.7126C258.72 57.4964 256.296 60.7067 253.262 63.347C252.442 64.0648 249.578 66.5789 249.303 64.2596C249.208 63.4589 249.332 62.5355 249.673 61.4894C250.003 60.4758 250.322 59.5416 250.638 58.6795C252.551 55.4476 253.777 51.9632 254.325 48.2263L254.804 44.7528C254.812 44.7131 254.823 44.6734 254.837 44.6337C255.109 43.9448 255.193 43.227 255.08 42.4803C254.706 40.0095 253.378 38.4873 251.103 37.9138L250.264 37.6469C248.482 36.1788 245.844 36.655 244.037 37.8128C244.019 37.8236 244.015 37.8453 244.026 37.8633L244.088 37.9499C244.113 37.9896 244.167 38.004 244.211 37.9823C244.541 37.82 244.824 37.8345 245.057 38.0256C242.447 39.7137 240.691 42.1521 238.412 44.0674C237.515 44.8213 236.593 45.8204 235.646 47.0649C235.628 47.0901 235.592 47.0937 235.566 47.0757C235.541 47.0577 235.537 47.0252 235.556 46.9999C237.566 44.3416 239.21 41.7481 241.315 39.2448C244.055 35.9877 246.577 32.6512 248.878 29.2353C252.645 23.6444 255.356 17.0905 255.541 10.284C255.585 8.56341 254.547 7.65444 253.284 6.06013C252.017 4.46582 251.208 3.97526 249.23 3.78048C244.414 3.30076 240.226 6.27655 237.675 10.082C236.122 12.4013 234.968 14.4068 234.213 16.0985C232.351 20.2791 230.732 24.7085 229.353 29.3941C228.882 28.1713 228.178 27.1505 227.241 26.3281C228.609 21.1772 230.569 16.2644 233.117 11.5861C235.28 7.61837 238.096 3.98248 242.077 1.70645L245.187 0.559405C246.955 0.13738 248.689 0.10853 250.388 0.47645ZM266.726 36.1539C266.722 36.2798 267.336 36.3952 268.094 36.4061C268.853 36.4169 269.466 36.3231 269.47 36.1969C269.473 36.0706 268.86 35.9553 268.102 35.9445C267.343 35.9336 266.73 36.0274 266.726 36.1539Z" fill="#002960"/>
<path d="M245.057 38.0256C246.69 37.4485 248.424 37.3223 250.264 37.6469L251.103 37.9138L252.772 39.8183C252.794 39.8436 252.812 39.8724 252.83 39.9049L253.941 42.2062L254.362 44.3524C254.162 46.6789 253.792 48.6483 253.248 50.2607C251.995 53.9651 251.128 56.7714 250.638 58.6795C250.322 59.5416 250.003 60.4758 249.673 61.4894C249.332 62.5354 249.208 63.4588 249.303 64.2596C249.578 66.5789 252.442 64.0648 253.262 63.347C256.296 60.7067 258.72 57.4964 260.531 53.7126C261.148 52.4213 261.841 50.2318 262.607 47.1442C263.213 44.6986 263.801 42.4731 264.364 40.4712C264.665 39.3999 264.937 38.5378 265.18 37.8849C265.34 37.4629 265.699 37.1491 266.138 37.0445C268.631 36.4602 271.843 37.517 273.992 38.8697C274.238 39.0212 274.358 39.3133 274.289 39.5911C272.467 47.3354 270.638 54.5675 268.798 61.2946C268.581 62.0954 268.722 62.9719 269.437 63.4516C272.627 65.5906 277.182 59.4839 278.597 57.2295C279.646 55.5558 280.35 53.9687 280.709 52.4682C281.384 49.6367 282.11 46.7943 282.883 43.9484C283.333 45.081 283.351 46.3435 282.934 47.7322C282.241 50.0551 281.25 53.8317 280.001 56.5694C279.228 58.2647 278.706 59.3071 278.434 59.6967C276.949 61.8032 273.378 65.165 270.428 65.1397C270.348 65.1397 270.268 65.1181 270.199 65.0784L267.713 63.6536C267.535 63.5526 267.412 63.3723 267.383 63.1667C266.733 58.7877 266.174 55.3827 265.714 52.9552C265.401 51.3212 264.879 49.6655 263.464 48.7061C263.384 48.6556 263.278 48.6916 263.246 48.7782C261.986 52.2878 261.268 54.2898 261.097 54.7875C260.694 55.9454 259.834 57.4856 258.51 59.4118C258.085 60.0286 257.697 60.7067 257.352 61.4425C256.978 62.2361 256.158 63.1739 254.892 64.2524C254.314 64.743 253.705 64.6095 253.121 65.064C251.908 66.009 250.206 67.3725 248.693 65.9693C248.341 65.6447 248.101 65.1866 247.971 64.5951C247.474 62.2938 247.778 60.988 248.845 58.7697C249.582 57.2403 249.883 55.5703 249.756 53.7595C249.633 52.0317 248.53 51.2093 246.929 51.9813C246.799 52.0462 246.715 52.1796 246.715 52.3239V52.5331C246.715 52.6702 246.584 52.7748 246.45 52.7387C245.547 52.5115 244.886 52.9119 244.469 53.9363C244.059 54.9426 243.696 56.032 243.38 57.2079C242.821 59.2855 242.237 60.4758 241.652 62.1675C240.669 65.0135 241.598 68.0686 242.465 70.8966C242.672 71.5603 243.148 72.0761 243.892 72.4404C244.585 72.7794 247.397 73.2916 248.13 73.1654C249.524 72.9309 250.878 72.1843 252.191 70.929C253.85 69.3455 255.294 67.7909 256.528 66.2615C256.884 65.8215 257.483 65.4355 258.328 65.1037C255.911 68.9055 253.32 72.0797 249.219 74.114C248.04 74.6984 246.809 74.8968 245.528 74.7128C239.682 73.6054 239.896 64.761 241.097 60.685C241.594 59.0005 242.429 56.4179 243.601 52.9407C244.102 51.4618 245.082 47.3967 242.422 47.9305C240.974 48.2227 239.649 48.9658 238.455 50.1597C236.26 52.3564 234.427 54.838 232.957 57.5974C232.155 59.2386 231.502 61.2622 230.994 63.6608C229.8 69.2842 228.929 73.2952 228.381 75.7011C228.348 75.8598 228.21 75.9789 228.047 75.9897C225.815 76.1304 221.834 76.3432 220.364 74.3377C223.5 73.5513 225.993 72.3466 227.288 69.1724C228.628 65.8972 229.524 62.5968 229.985 59.2747C230.776 53.5575 226.207 56.1546 223.775 57.3846C223.663 57.4423 223.569 57.5361 223.51 57.6479C221.783 60.9592 219.468 63.9891 216.561 66.734C214.467 68.7179 212.035 70.1427 209.273 71.012C207.648 71.5242 205.916 71.5098 204.084 70.9723C203.913 70.9218 203.793 70.7667 203.793 70.5864V70.4276C203.793 70.287 203.931 70.1896 204.066 70.2329C205.525 70.7198 206.936 70.7198 208.301 70.2329L210.478 69.4682C212.289 68.8947 213.69 67.9208 214.681 66.5465C217.878 64.0901 221.351 60.5011 222.817 56.6993C223.209 55.6821 223.717 53.9146 224.338 51.3933C226.138 44.0818 227.811 36.7487 229.353 29.3939C230.732 24.7084 232.351 20.279 234.213 16.0984C234.968 14.4067 236.122 12.4012 237.675 10.0819C240.226 6.27643 244.414 3.30062 249.23 3.78036C251.208 3.97514 252.017 4.4657 253.284 6.06001C254.547 7.65432 255.585 8.56329 255.541 10.2838C255.356 17.0903 252.645 23.6443 248.878 29.2352C246.577 32.6511 244.055 35.9876 241.315 39.2448C239.21 41.7481 237.566 44.3415 235.556 46.9999C235.537 47.0252 235.541 47.0576 235.566 47.0757C235.592 47.0937 235.628 47.0901 235.646 47.0649C236.593 45.8204 237.515 44.8213 238.412 44.0674C240.691 42.1521 242.447 39.7137 245.057 38.0256ZM236.967 37.5062C241.685 31.1397 245.899 24.2828 247.63 16.6214C247.974 15.1029 248.374 12.2461 247.535 10.6301C247.361 10.2947 247.187 10.0891 247.016 10.0097C246.624 9.83297 246.153 9.93036 245.826 10.255C245.351 10.7311 244.948 11.3155 244.61 12.0116C240.792 19.9399 238.742 28.485 236.887 37.4701C236.877 37.517 236.938 37.5459 236.967 37.5062Z" fill="white"/>
<path d="M236.967 37.506C236.938 37.5457 236.877 37.5168 236.888 37.4699C238.742 28.4847 240.792 19.9396 244.61 12.0114C244.948 11.3152 245.351 10.7309 245.826 10.2547C246.153 9.93011 246.624 9.83272 247.016 10.0095C247.187 10.0888 247.361 10.2944 247.535 10.6299C248.374 12.2458 247.974 15.1026 247.63 16.6212C245.899 24.2825 241.685 31.1395 236.967 37.506Z" fill="#03336C"/>
<path d="M68.9026 10.7058C73.0616 11.1531 77.6742 12.7943 79.9787 16.4554C80.3815 17.0939 81.1545 18.4537 82.2941 20.5314C80.6646 21.2348 79.3508 21.7938 78.9008 23.6298C79.4996 19.7919 76.9157 16.5564 73.4463 15.2723C68.8119 13.5554 63.2738 13.9377 58.9044 14.9044L58.4834 14.7096C58.4144 14.6772 58.4217 14.5726 58.4979 14.5545C60.4504 14.0459 62.6097 13.696 64.9795 13.4977C65.2735 13.4724 65.5965 13.4111 65.9521 13.3173C65.9993 13.3029 66.0283 13.2596 66.0211 13.2091C66.0138 13.1622 65.9739 13.1261 65.9231 13.1261C63.6767 13.137 61.5572 13.3498 59.5685 13.761C58.0769 14.0676 56.0337 14.6555 53.4316 15.5176C48.0678 17.2995 43.0269 19.6188 38.3744 22.7209C36.2587 24.1312 35.1409 24.8815 35.0175 24.968C33.4316 26.0718 31.7731 27.4497 30.0347 29.1053C29.9585 29.1811 29.9186 29.2857 29.9331 29.3903L29.9876 29.8628C26.4855 32.936 23.7273 35.9226 21.7204 38.8191C18.7627 43.0934 16.9663 50.0658 17.9026 55.076C18.9224 60.5082 24.2644 64.2595 29.4251 66.0775C32.9707 67.3255 36.6215 68.4256 40.3777 69.3743C41.2886 69.6051 42.1995 69.8937 43.1068 70.2436C44.0358 70.6007 44.925 70.9542 45.7706 71.3113C47.3746 72.3321 48.6666 73.5368 49.6465 74.9183C52.6659 79.171 50.1509 84.2317 47.0299 87.5069C39.826 95.0672 29.8714 98.2378 19.5974 98.1007C17.634 98.0755 15.667 97.8014 13.6892 97.2855L7.98419 95.1285C7.74104 95.0348 7.52329 94.8905 7.34909 94.6993C6.8011 94.1041 5.74502 93.0978 5.10266 94.2484C4.85951 94.6849 4.53652 95.4532 4.13732 96.5569C3.05947 96.8707 2.00702 96.8671 0.97998 96.5461C1.34652 95.179 1.91629 93.9021 2.6893 92.7082C3.60384 91.2906 4.69257 90.7027 6.29302 90.8398C6.79021 90.8794 7.61402 91.2257 8.75719 91.8786C11.7186 93.5559 14.9049 94.4721 18.3163 94.6199C26.2532 94.8797 34.1901 92.9427 40.7733 88.488C42.1305 87.5574 43.604 86.3779 45.1899 84.9531C46.2024 84.0441 46.8738 83.1279 47.1968 82.2081C47.5379 80.9709 47.3964 80.0944 46.7686 79.575C45.8141 78.7887 44.4205 78.143 42.5806 77.638C40.7587 77.1366 38.9333 76.6533 37.1006 76.188C33.2756 75.2177 29.592 73.5621 26.0463 71.2283C23.3209 69.4284 20.893 67.0333 18.7627 64.0359C18.2365 63.264 17.732 62.4127 17.2566 61.4821C15.1517 57.3701 14.738 52.9839 15.1916 48.4426C15.4348 46.6716 15.8158 45.1638 16.3275 43.9122C16.9554 42.3864 17.7865 40.7128 18.8208 38.8984C21.0672 35.4573 23.4842 32.4526 26.079 29.888C28.0206 27.9655 30.0456 26.1187 32.1542 24.344C35.8631 21.2672 39.8732 18.6269 44.181 16.4302C48.3581 14.3056 52.7094 12.668 57.235 11.521C61.0673 10.5507 64.9577 10.2802 68.9026 10.7058Z" fill="#03336C"/>
<path d="M58.9045 14.9042C57.2605 15.3515 55.6383 15.8421 54.0342 16.3795C48.3728 18.2732 43.0779 20.8847 38.1459 24.2176C35.4095 26.068 32.6913 27.9473 29.9876 29.8626L29.9331 29.3901C29.9186 29.2855 29.9585 29.1809 30.0347 29.1052C31.7731 27.4495 33.4316 26.0716 35.0175 24.9679C35.1409 24.8813 36.2587 24.1311 38.3745 22.7207C43.0271 19.6186 48.0679 17.2993 53.4318 15.5174C56.0339 14.6554 58.0771 14.0674 59.5686 13.7608C61.5574 13.3496 63.6768 13.1368 65.9232 13.126C65.974 13.126 66.0139 13.162 66.0212 13.2089C66.0285 13.2594 65.9994 13.3027 65.9523 13.3172C65.5966 13.4109 65.2736 13.4723 64.9796 13.4975C62.6098 13.6959 60.4505 14.0458 58.498 14.5544C58.4218 14.5724 58.4146 14.677 58.4835 14.7095L58.9045 14.9042Z" fill="#002960"/>
<path d="M78.9007 23.6299C77.5942 29.3903 74.876 35.4105 70.757 39.6631C68.946 41.5352 67.0553 43.2341 65.0846 44.7526C63.4189 46.0368 62.1487 46.8555 61.2813 47.2054C60.7987 47.4002 60.1926 47.5733 59.4704 47.7248C59.3651 47.7465 59.2635 47.6852 59.2381 47.5842C58.6756 45.4308 57.8772 43.4144 56.8429 41.5352C56.7848 41.427 56.7994 41.2935 56.8792 41.1997C56.9772 41.0807 57.1332 40.9833 57.3474 40.9075C62.9181 38.6171 66.7613 34.0073 69.1166 28.5679C69.5956 27.4605 69.8787 26.4794 69.9622 25.6246C70.3759 21.4693 63.0632 22.8976 60.9692 23.3774C52.0597 25.4081 44.6527 29.9169 38.7554 36.9001C36.694 39.3421 34.629 42.5415 34.1536 45.64C33.602 50.5419 35.3912 54.2464 39.5211 56.7569C44.6781 59.8914 51.3811 61.125 56.9046 64.1838C62.2068 67.1235 64.5439 71.69 63.9124 77.8869C63.7564 79.391 63.4225 81.1765 62.9108 83.2469C61.7821 87.781 59.6518 91.774 56.5163 95.2295C46.391 105.852 31.9435 111.854 17.2419 111.09C12.5531 110.848 7.10576 109.593 4.38755 105.56C2.52944 102.808 2.79437 99.475 4.13714 96.5569C4.53635 95.4532 4.85934 94.6849 5.10249 94.2484C5.74484 93.0978 6.80092 94.1041 7.34892 94.6993C7.52311 94.8905 7.74086 95.0348 7.98401 95.1285L13.689 97.2855C12.3789 97.401 11.1014 97.1845 9.84938 96.6363C9.67518 96.5605 9.48647 96.7156 9.53728 96.8996C9.64252 97.2856 9.89656 97.5489 10.3067 97.6931C12.6075 98.5155 14.9229 98.7536 17.2564 99.0313L14.9773 99.2802C14.9156 99.2874 14.9048 99.374 14.9628 99.3921C16.2548 99.8177 17.779 100.067 19.5355 100.142C22.2755 100.254 24.7288 100.131 26.899 99.7744C27.8426 99.6193 29.6753 99.2225 32.3971 98.5841C38.3453 97.1918 43.9849 93.8444 48.456 89.8298C49.4722 88.9172 50.2669 87.9253 50.8367 86.8504C50.9528 86.6304 50.6843 86.4103 50.4919 86.569L44.9829 91.1644C45.8213 90.0787 46.6886 89.0146 47.5886 87.9758C48.8879 86.4716 49.7189 85.3968 50.0818 84.7439C51.7258 81.7861 52.0996 78.7923 50.902 75.4341C50.4702 74.2185 49.8314 73.2627 48.9859 72.5737C48.0205 71.7838 46.9499 71.3654 45.7705 71.3113C44.9249 70.9542 44.0357 70.6007 43.1067 70.2436C42.1994 69.8937 41.2885 69.6051 40.3776 69.3743C36.6214 68.4256 32.9705 67.3255 29.4249 66.0775C24.2643 64.2595 18.9222 60.5082 17.9024 55.076C16.9661 50.0658 18.7625 43.0934 21.7202 38.8191C23.7272 35.9227 26.4853 32.936 29.9874 29.8628C32.6911 27.9475 35.4093 26.0682 38.1457 24.2178C43.0776 20.8849 48.3725 18.2734 54.034 16.3797C55.638 15.8423 57.2603 15.3517 58.9042 14.9044C63.2737 13.9378 68.8118 13.5554 73.4462 15.2724C76.9156 16.5565 79.4995 19.792 78.9007 23.6299ZM7.37432 97.0872C6.10413 97.4875 5.33838 98.1909 5.08071 99.2009C4.37666 101.967 7.19649 104.005 9.35582 104.893C18.6936 108.723 29.1091 106.087 38.044 102.624C41.7058 101.203 44.62 99.2983 47.6685 96.9609C50.4375 94.8328 52.5751 93.0906 53.9723 90.0498C54.4513 89.0002 55.0719 87.0091 54.6872 85.725C54.611 85.4725 54.3207 85.3535 54.0848 85.4797C53.7146 85.6781 53.3916 85.9775 53.1122 86.3815C51.6424 88.4988 50.1 90.2194 48.4814 91.5395C46.7358 92.9643 45.1426 94.2737 43.2591 95.381C38.9513 97.9096 34.1391 100.02 29.3087 100.741C24.3623 101.477 19.1835 101.39 13.7725 100.481C11.7946 100.15 8.30338 99.3957 7.5957 97.2026C7.56666 97.1088 7.46505 97.0583 7.37432 97.0872Z" fill="white"/>
<path d="M263.62 23.7993C262.778 27.767 261.384 31.5472 259.439 35.1398C258.775 36.3662 258.111 37.607 257.447 38.8587L255.795 36.7846L254.881 35.9262C254.746 35.7999 254.721 35.5943 254.826 35.4392C257.868 30.9845 260.038 26.1186 261.337 20.8451C261.74 19.2112 261.896 17.0722 261.805 14.4282C263.348 16.1271 264.106 18.0497 264.088 20.1959C264.077 21.2996 263.921 22.5008 263.62 23.7993Z" fill="#003074"/>
<path d="M82.2938 20.5312L84.7435 24.2213L85.1209 25.4368C85.5383 28.0303 85.4076 30.5191 84.729 32.907C82.2249 41.7154 75.6126 49.2289 67.9479 53.918C66.4418 54.8414 64.8377 55.148 63.1429 54.8342C61.8074 54.5889 61.1505 54.0407 60.3667 52.9153C60.2832 52.7962 59.9892 52.3093 59.4848 51.4472C59.0021 50.6284 58.3888 49.907 57.6376 49.2866L56.7303 47.6851C56.4944 47.2342 55.9936 46.199 55.2206 44.583C54.5709 43.2196 54.3968 41.7767 54.7052 40.251L55.5726 39.1039L57.3472 40.9074C57.1331 40.9832 56.9771 41.0806 56.8791 41.1996C56.7992 41.2934 56.7847 41.4269 56.8428 41.5351C57.8771 43.4143 58.6755 45.4307 59.238 47.5841C59.2634 47.6851 59.365 47.7464 59.4703 47.7247C60.1925 47.5732 60.7985 47.4001 61.2812 47.2053C62.1486 46.8554 63.4187 46.0367 65.0845 44.7525C67.0551 43.234 68.9459 41.5351 70.7568 39.663C74.8759 35.4103 77.5941 29.3901 78.9006 23.6297C79.3506 21.7937 80.6643 21.2346 82.2938 20.5312Z" fill="#002960"/>
<path d="M57.3474 40.9075L55.5728 39.104C57.1514 37.8054 58.7119 36.4961 60.2543 35.1795C61.0527 34.4978 61.7532 33.7042 62.3592 32.8025C64.0359 31.4823 63.6476 29.4659 62.6677 27.9041C61.7423 26.4216 59.935 25.4405 60.9693 23.3773C63.0633 22.8975 70.3759 21.4691 69.9622 25.6245C69.8788 26.4793 69.5957 27.4604 69.1166 28.5678C66.7613 34.0072 62.9181 38.617 57.3474 40.9075Z" fill="#03336C"/>
<path d="M60.9693 23.3774C59.935 25.4407 61.7423 26.4217 62.6677 27.9042C63.6476 29.4661 64.0359 31.4825 62.3592 32.8026C53.8308 34.5665 46.4745 40.5866 42.1377 47.9197C41.4228 49.1244 40.9909 49.8927 40.8385 50.2282C40.4393 51.1119 40.2687 51.9668 40.3304 52.7928C39.9349 51.7071 39.4885 50.845 38.9913 50.2066C38.0368 48.991 37.1041 47.761 36.1897 46.5166C35.776 45.9575 35.0974 45.6653 34.1538 45.64C34.6292 42.5416 36.6941 39.3422 38.7554 36.9002C44.6527 29.917 52.0598 25.4082 60.9693 23.3774Z" fill="#002960"/>
<path d="M77.8809 51.6494C77.4672 52.1652 77.0027 52.497 76.4874 52.6449C76.0301 52.9335 75.2426 53.6008 74.1248 54.6468C73.1703 55.5414 71.5372 56.5838 69.2255 57.7705C66.2859 59.2891 63.8979 58.9716 62.0616 56.811C60.4611 54.9318 58.9877 52.4213 57.6377 49.2867C58.3889 49.9072 59.0022 50.6286 59.4849 51.4474C59.9894 52.3094 60.2833 52.7964 60.3668 52.9154C61.1507 54.0408 61.8076 54.5891 63.1431 54.8344C64.8379 55.1482 66.4419 54.8416 67.948 53.9182C75.6127 49.229 82.225 41.7156 84.7291 32.9072C85.4077 30.5193 85.5384 28.0305 85.121 25.437C87.3929 28.1748 88.0788 31.3598 87.1788 34.9884C86.1844 38.9887 84.9432 42.1556 82.5153 45.4813C81.2814 47.1766 80.2 49.1244 78.7338 50.5492C78.4035 50.8702 78.1205 51.2345 77.8809 51.6494Z" fill="#003074"/>
<path d="M227.241 26.3276C228.177 27.15 228.882 28.1708 229.353 29.3936C227.811 36.7483 226.138 44.0814 224.338 51.3929C223.717 53.9142 223.209 55.6816 222.817 56.6988C221.351 60.5006 217.878 64.0897 214.681 66.546L211.894 68.3099C211.817 68.3568 211.73 68.3928 211.643 68.4109C211.008 68.5407 210.62 68.8942 210.478 69.4677L208.301 70.2324C207.423 70.2433 206.562 70.1495 205.724 69.9511C204.955 69.7707 204.28 69.41 203.703 68.8726C202.846 67.4694 202.501 65.9725 202.672 64.3818C203.343 58.12 205.586 51.786 210.021 47.3241C210.507 46.83 211.288 46.0941 211.894 46.7109C212.296 47.1149 212.453 47.6307 212.369 48.262C212.13 50.0402 208.646 56.7241 212.641 57.2255C213.313 57.3084 214.122 57.0018 215.069 56.2984C218.455 53.7952 222.676 48.3666 219.609 44.1283C217.686 41.4699 214.474 39.6448 211.11 40.3012C207.361 41.0335 204.835 43.2338 202.026 45.8128C197.664 49.813 195.555 54.4949 193.984 60.1111C193.008 63.6099 190.994 66.831 188.649 69.5579C187.854 70.4849 186.907 71.2929 185.807 71.9782C185.517 72.1622 185.158 72.1333 184.944 71.9097C183.314 70.2108 185.416 64.472 186.334 61.9543C187.422 58.9677 188.678 56.7818 190.101 53.7699C190.358 53.2289 190.573 52.594 190.743 51.8618C190.787 51.6706 190.779 51.4686 190.718 51.2811C190.264 49.9356 189.502 48.9437 188.431 48.298C185.895 45.6036 182.084 46.6244 179.108 47.8472C179.007 47.8868 178.945 47.9878 178.948 48.0924C178.956 48.298 178.909 48.4171 178.811 48.4495C178.691 48.3882 178.593 48.3089 178.509 48.2151C178.444 48.1393 178.415 48.0275 178.422 47.876C178.451 47.2267 178.469 46.7218 178.48 46.3647C178.553 43.7712 177.359 41.8234 174.895 40.5213C174.183 40.1461 173.432 40.1065 172.645 40.4058C170.594 41.1777 170.083 44.976 170.311 46.7326C170.536 48.4712 171.792 49.9861 173.018 51.0755C173.091 51.144 173.124 51.245 173.102 51.3424C171.574 57.7521 169.063 63.7181 165.568 69.2405C165.067 70.0304 164.272 70.9647 163.187 72.0432C163.122 72.1081 163.038 72.1514 162.948 72.1622L160.919 72.4219C160.792 72.4363 160.745 72.5951 160.839 72.678C161.358 73.1433 162.073 72.7033 162.61 72.3967C162.723 72.3317 162.842 72.4724 162.763 72.5734C162.454 72.9557 162.117 73.2299 161.75 73.3994C161.5 73.5148 161.206 73.4824 160.988 73.3165C159.554 72.2235 159.642 71.0512 160.004 69.273C160.52 66.7336 161.133 64.252 161.844 61.828L165.92 51.2089C166.061 50.841 166.011 50.4262 165.786 50.1016C164.505 48.2367 162.712 47.2628 160.407 47.1799C160.099 47.1041 159.805 47.0716 159.533 47.0861C159.446 47.0897 159.369 47.151 159.348 47.234L158.709 49.7408C158.687 49.8238 158.578 49.8346 158.538 49.7625C156.06 45.1707 152.216 44.4854 147.596 46.967C144.885 48.4243 142.53 50.3216 140.531 52.6626C137.13 56.6375 135.112 60.1508 133.762 64.4684C133.236 66.1529 132.931 67.0943 132.848 67.2855C131.567 70.2541 129.868 72.9846 127.745 75.4771C127.183 76.1372 126.58 76.6818 125.934 77.1183C125.422 77.4609 124.972 77.5114 124.584 77.2662C123.695 76.7071 123.887 75.3256 124.156 74.5428C125.47 70.7482 127.077 66.3585 128.979 61.3699C129.498 60.0137 129.861 58.6069 130.075 57.1533C130.322 55.4688 129.937 53.9755 128.917 52.6734C126.914 50.1196 123.387 49.7661 120.534 51.0033C118.97 51.685 117.576 52.6986 116.346 54.0513C114.35 56.2552 113.189 57.5429 112.858 57.918C112.79 57.9974 112.659 57.9252 112.692 57.8242L113.341 55.7394C113.367 55.66 113.377 55.5734 113.367 55.4869C113.047 52.7347 109.621 51.9303 107.244 51.8005C106.232 51.7464 105.292 51.6345 105.136 52.6409C104.849 54.4769 104.094 56.0712 102.864 57.4202C100.871 59.5989 98.7775 61.5142 96.5746 63.1699C96.4512 63.26 96.277 63.1807 96.2734 63.0292C96.2153 61.4493 96.1028 59.5376 95.5621 58.1525C93.9144 53.9178 90.0712 50.6967 85.2118 51.7211C81.1617 52.5724 77.4999 55.5157 75.141 58.8089C72.5824 62.3835 70.3868 66.3982 68.5614 70.8601C67.7847 72.761 67.2912 75.2823 67.0807 78.4312C66.8738 81.5189 67.9589 84.1231 69.7118 86.6228C74.2301 93.0542 83.4335 90.6375 87.9119 85.7535C88.478 85.1331 89.0659 84.3756 89.6756 83.4847C91.9039 80.8624 93.41 77.8144 94.1939 74.3336C94.8907 71.7113 96.179 69.9583 98.3529 68.1115C99.3509 67.2638 100.323 66.3549 101.271 65.3918C101.365 65.2944 101.532 65.3846 101.499 65.518C100.338 70.1675 99.0642 75.1344 97.6778 80.4115C97.2823 81.9156 97.0681 83.0302 97.0282 83.748C97.0246 83.8634 97.0427 83.9753 97.0827 84.0835C97.2024 84.4081 97.4202 84.6894 97.7286 84.9311C99.4888 86.3126 102.047 87.3623 104.323 86.9727C104.461 86.9511 104.588 86.8753 104.678 86.7671C104.914 86.4713 105.089 86.1142 105.197 85.6958C106.471 80.8407 107.64 76.5772 108.707 72.9016C110.202 67.7688 113.856 63.3646 117.87 59.9848C118.534 59.4258 119.22 58.9857 119.924 58.6683C120.345 58.4807 120.817 58.8017 120.792 59.2598C120.77 59.6746 120.668 60.1544 120.487 60.699C119.569 63.4945 118.647 66.2899 117.721 69.0782C115.954 71.6139 115.315 75.138 115.341 78.1355C115.355 80.2239 116.462 81.9337 114.285 83.4126L113.842 82.0563C113.82 81.995 113.733 81.9986 113.719 82.0599L113.341 83.4955C111.247 84.8662 109.255 86.0168 107.364 86.9475C104.508 88.3578 101.449 88.8159 98.1823 88.3289C98.1315 88.3217 98.0843 88.2965 98.0516 88.2568C98.0407 88.2424 98.0335 88.2316 98.0262 88.2243C97.9464 88.1486 97.8339 88.1125 97.7286 88.1342C93.4209 88.9457 90.6809 89.5229 89.5087 89.8583C84.3517 91.3444 81.0056 92.2606 79.4633 92.6105C77.2676 93.1047 74.4043 93.5483 70.8659 93.9451L68.8807 92.0117C68.8227 91.9576 68.7319 91.9757 68.6993 92.0478L67.3275 95.0344L56.5163 95.2292C59.6519 91.7737 61.7822 87.7807 62.9108 83.2466C63.4225 81.1762 63.7564 79.3907 63.9125 77.8866C64.5439 71.6897 62.2068 67.1232 56.9046 64.1834C51.3811 61.1247 44.6781 59.8911 39.5211 56.7565C35.3912 54.246 33.602 50.5416 34.1536 45.6396C35.0972 45.6649 35.7759 45.9571 36.1896 46.5162C37.1041 47.7606 38.0368 48.9906 38.9913 50.2062C39.4885 50.8446 39.9348 51.7067 40.3304 52.7924L42.8998 54.3434C44.3406 54.9963 45.8685 55.6456 47.4834 56.2984C49.6645 57.1822 51.8565 58.0767 54.0594 58.9893C58.7119 60.9155 63.2955 64.05 66.0065 68.2702C66.0718 68.3712 66.2242 68.3676 66.2787 68.2594L69.2545 62.4845C70.9747 59.2598 73.1159 56.1506 75.7071 53.5679C75.972 53.3046 76.2333 52.998 76.4874 52.6445C77.0027 52.4966 77.4673 52.1648 77.881 51.649C82.0653 48.6732 87.6905 47.3458 92.3757 49.5136C95.2064 50.8266 97.6125 54.0873 98.9335 56.8395C98.9698 56.9189 99.0787 56.9333 99.1367 56.8647C100.512 55.2596 101.445 54.0837 102.312 52.1251C104.773 46.5775 110.456 48.0023 114.052 51.2161C114.14 51.2955 114.274 51.2919 114.357 51.2089C118.015 47.5947 123.906 45.3799 128.642 48.4531C131.084 50.1845 132.975 52.4173 134.307 55.1478C134.35 55.2416 134.477 55.256 134.542 55.1803C135.867 53.6869 137.137 52.19 138.36 50.6895C138.705 50.2675 139.641 49.3441 141.173 47.9157L143.917 45.8344C148.801 42.8153 153.893 41.0046 159.032 44.7559C159.155 44.8461 159.315 44.875 159.467 44.8353C160.799 44.4854 161.855 44.0273 163.234 44.4241C164.523 44.7956 165.76 45.6288 166.951 46.9274C167.009 46.9923 167.121 46.9526 167.125 46.866C167.27 44.6116 167.898 42.5232 169.008 40.5934C170.413 38.2741 172.481 37.3218 175.221 37.7402C178.97 38.3138 180.084 41.1381 181.968 43.8578C182.131 44.0958 182.425 44.2077 182.705 44.1427C187.39 43.0787 189.937 44.3628 192.637 48.0167L194.049 50.3685C194.14 50.5164 194.354 50.52 194.448 50.3721C197.809 44.911 202.984 40.0199 208.736 37.5743C211.632 36.3443 214.514 36.4201 217.381 37.8016C219.471 39.0316 221.25 40.6006 222.719 42.5015C222.835 42.653 223.075 42.6025 223.122 42.4186L226.846 27.6767L227.241 26.3276ZM209.422 65.583L211.625 64.0896C211.792 63.9742 211.781 63.7289 211.607 63.6279L210.224 62.8344C210.108 62.7659 209.956 62.8272 209.923 62.957L209.281 65.4856C209.259 65.5685 209.353 65.6299 209.422 65.583Z" fill="#03336C"/>
<path d="M291.078 31.6877C293.701 32.1314 295.52 33.4876 296.539 35.7564C297.381 37.6286 298.209 39.057 299.025 40.0453C299.33 40.4168 299.664 41.1022 300.023 42.1085C300.034 43.6199 299.755 45.3476 299.178 47.299C297.454 53.1352 295.716 59.0147 293.966 64.9411C293.926 65.0781 294.028 65.2188 294.173 65.2224L297.371 65.3162L301.733 65.7887C302.027 67.5598 301.308 68.6383 299.57 69.0242C295.237 68.4471 290.9 68.5156 286.556 69.2298C286.385 69.2587 286.244 69.1036 286.291 68.9377L287.648 63.9383L294.144 38.1119C294.22 37.8089 294.112 37.4879 293.865 37.2895C292.199 35.9549 290.384 35.1433 288.417 34.8547C286.44 34.5625 285.177 35.3309 284.629 37.1561C284.16 38.7143 283.812 39.9695 283.587 40.9254C282.132 42.8407 282.154 45.3332 281.511 47.5083C280.557 50.7366 279.729 53.9144 278.187 56.9046C277.316 58.5891 275.748 60.3637 273.487 62.225C273.375 62.3151 273.226 62.344 273.092 62.3007C270.686 61.5396 270.646 59.6135 270.497 57.4961C270.49 57.3879 270.5 57.2797 270.526 57.1751L273.121 46.9636C273.139 46.8951 273.164 46.8265 273.197 46.7616C274.605 44.096 276.779 42.3394 279.722 41.4845C280.241 40.1968 280.753 38.8983 281.257 37.5925C281.979 35.7132 282.593 34.4687 283.094 33.8591C285.024 31.511 288.149 31.0782 291.078 31.6877Z" fill="#03336C"/>
<path d="M62.3594 32.8022C61.7534 33.704 61.053 34.4976 60.2546 35.1793C58.7122 36.4959 57.1517 37.8052 55.573 39.1038L54.7056 40.2508C51.1092 42.6206 48.1079 45.5604 45.7018 49.0664C44.6384 50.6968 43.7057 52.457 42.9001 54.3435L40.3307 52.7925C40.269 51.9665 40.4395 51.1116 40.8387 50.2279C40.9912 49.8924 41.423 49.1241 42.138 47.9194C46.4748 40.5863 53.831 34.5661 62.3594 32.8022Z" fill="#003074"/>
<path d="M287.648 63.9384C286.461 65.76 285.656 67.7222 285.231 69.8287C285.184 70.056 285.347 70.276 285.583 70.3013C287.724 70.5213 290.987 69.7133 293.604 69.8143C295.912 69.9009 298.376 70.0632 300.996 70.2976C303.134 70.4888 305.003 70.9866 306.596 71.7874C306.701 71.8415 306.795 71.9064 306.879 71.9857C308.962 73.9191 309.706 75.38 309.085 78.1718C308.86 79.1854 308.683 80.2134 308.552 81.2522C308.069 82.7708 306.52 82.4714 305.841 81.2703C305.816 79.4271 304.897 78.1105 303.09 77.3133C299.156 75.5783 297.008 74.5179 293.883 74.3483C293.027 74.3015 290.838 74.3339 287.314 74.4457C285.347 74.5071 284.349 74.8209 283.427 76.5522C282.233 78.7922 281.341 80.8735 280.746 82.796C280.277 84.311 279.958 85.963 279.221 87.7377C278.082 90.4898 276.779 92.8777 277.302 95.7994C275.774 98.5047 273.799 101.145 271.382 103.717C267.673 107.663 262.342 111.616 256.768 111.367C254.587 111.27 252.682 110.505 251.048 109.073C251.074 108.096 250.831 107.219 250.315 106.437C249.731 105.556 249.412 105.044 249.354 104.904C248.406 102.692 248.196 100.467 248.722 98.2233C249.862 93.361 252.674 88.9677 256.129 85.4364C257.236 84.3038 258.637 83.1603 260.332 82.0097C262.226 80.722 263.983 79.4162 265.598 78.0888C267.586 76.4549 269.659 75.8597 272.591 74.9255C272.642 74.911 272.671 74.8533 272.653 74.8028V74.7992C272.638 74.7523 272.584 74.7235 272.536 74.7379C271.651 74.9904 270.751 75.0193 269.84 74.8245C271.368 74.0201 272.957 73.3131 274.601 72.7071C275.512 72.3717 275.926 71.9713 276.206 71.084C276.735 69.4211 277.142 67.9783 277.425 66.7555C277.454 66.6365 277.309 66.5571 277.222 66.6437C276.623 67.2497 275.549 68.1803 274.003 69.432C271.564 71.4158 268.577 72.4186 265.369 72.1589C261.929 71.8775 259.668 69.0171 259.366 65.6734C259.359 65.5941 259.305 65.0963 259.203 64.1765C259.192 64.0719 259.054 64.0358 258.993 64.126L258.328 65.1035C257.483 65.4354 256.884 65.8213 256.528 66.2614C255.295 67.7908 253.85 69.3454 252.192 70.9289C250.878 72.1841 249.524 72.9308 248.131 73.1652C247.398 73.2915 244.585 72.7793 243.892 72.4402C243.148 72.0759 242.672 71.5601 242.466 70.8964C241.598 68.0685 240.669 65.0133 241.653 62.1674C242.237 60.4757 242.821 59.2854 243.38 57.2077C243.696 56.0318 244.059 54.9425 244.469 53.9361C244.886 52.9117 245.547 52.5113 246.45 52.7386C246.585 52.7747 246.715 52.67 246.715 52.533V52.3238C246.715 52.1795 246.799 52.046 246.929 51.9811C248.53 51.2092 249.633 52.0316 249.756 53.7594C249.883 55.5701 249.582 57.2402 248.846 58.7695C247.779 60.9879 247.474 62.2936 247.971 64.5949C248.102 65.1865 248.341 65.6446 248.693 65.9692C250.206 67.3723 251.909 66.0089 253.121 65.0638C253.705 64.6093 254.315 64.7428 254.892 64.2523C256.158 63.1737 256.978 62.2359 257.352 61.4424C257.697 60.7065 258.085 60.0284 258.51 59.4116C259.835 57.4854 260.695 55.9452 261.097 54.7874C261.268 54.2896 261.987 52.2877 263.246 48.7781C263.279 48.6915 263.384 48.6554 263.464 48.7059C264.879 49.6654 265.402 51.321 265.714 52.955C266.175 55.3825 266.734 58.7876 267.383 63.1665C267.412 63.3721 267.536 63.5525 267.713 63.6535L270.199 65.0783C270.268 65.1179 270.348 65.1396 270.428 65.1396C273.378 65.1648 276.949 61.8031 278.434 59.6966C278.706 59.307 279.229 58.2646 280.002 56.5693C281.25 53.8315 282.241 50.0549 282.934 47.732C283.351 46.3433 283.333 45.0808 282.883 43.9482L283.587 40.9255C283.812 39.9697 284.161 38.7144 284.629 37.1562C285.177 35.3309 286.44 34.5626 288.418 34.8548C290.385 35.1434 292.199 35.955 293.865 37.2896C294.112 37.488 294.22 37.8091 294.144 38.112L287.648 63.9384ZM275.135 78.464C274.093 78.1213 273.03 78.2764 271.941 78.9293C267.804 81.4181 265.623 82.7419 265.394 82.897C264.803 83.2974 264.331 83.6617 263.975 83.9972C261.195 86.6051 258.666 88.441 256.659 91.1355C256.314 91.5936 255.926 92.4845 255.494 93.8011C254.834 95.8138 254.434 97.4334 254.3 98.6598C254.101 100.489 254.601 102.992 256.372 103.886C257.755 104.586 259.864 104.388 260.847 103.234C262.524 101.268 264.4 99.5291 266.476 98.0141C267.184 97.4983 267.902 96.7625 268.494 96.1276C268.573 96.0411 268.642 95.9437 268.701 95.8391C269.328 94.6668 269.996 93.7362 270.352 92.6937C270.853 91.2293 271.959 89.4907 272.515 87.7016C273.636 84.0801 274.558 81.0899 275.273 78.7309C275.306 78.6191 275.247 78.5 275.135 78.464Z" fill="white"/>
<path d="M268.102 35.9444C267.344 35.9326 266.728 36.0263 266.727 36.1539C266.724 36.2813 267.337 36.3942 268.094 36.4061C268.852 36.418 269.468 36.3242 269.47 36.1965C269.472 36.0691 268.859 35.9562 268.102 35.9444Z" fill="#002960"/>
<path d="M250.265 37.6467C248.425 37.322 246.69 37.4483 245.057 38.0254C244.825 37.8342 244.541 37.8198 244.211 37.9821C244.168 38.0038 244.113 37.9893 244.088 37.9497L244.026 37.8631C244.015 37.8451 244.019 37.8234 244.037 37.8126C245.844 36.6547 248.483 36.1786 250.265 37.6467Z" fill="#002960"/>
<path d="M257.446 38.8587L259.686 43.0429C259.718 43.1042 259.809 43.1006 259.834 43.0357L261.932 37.7477C263.249 38.1914 263.859 39.1797 263.754 40.7055C263.572 43.3603 262.574 45.8239 261.82 48.54C261.337 50.2714 260.847 51.725 260.342 52.9009C258.415 57.4025 254.975 61.5867 251.48 64.1837C251.088 64.4723 250.675 64.6274 250.239 64.6526C250.123 64.6599 250.021 64.5769 249.999 64.4651C249.767 63.2784 249.825 62.29 250.177 61.5037C252.144 57.0779 254.579 51.8982 255.421 46.5201C255.704 44.7129 255.672 43.0862 255.32 41.6397C254.939 40.0671 253.774 39.2447 253.186 37.5566C253.157 37.4736 253.208 37.3798 253.295 37.3618L255.795 36.7847L257.446 38.8587Z" fill="#03336C"/>
<path d="M255.08 42.4801L255.047 43.2159C255.04 43.3602 254.837 43.3927 254.79 43.2556L254.227 41.6613C254.176 41.5098 253.955 41.5242 253.922 41.6793C253.901 41.7911 253.908 41.9643 253.941 42.2059L252.83 39.9047C252.812 39.8722 252.794 39.8433 252.772 39.8181L251.103 37.9136C253.378 38.4871 254.706 40.0093 255.08 42.4801Z" fill="#002960"/>
<path d="M203.703 68.8727C201.834 68.447 200.992 67.2748 201.17 65.3594C201.228 64.7643 201.442 64.0573 201.812 63.2457C202.629 61.4566 202.36 59.9236 202.269 57.3662C202.244 56.6556 202.505 55.5447 203.046 54.0261C204.156 50.9024 207.027 47.5948 208.809 44.94C208.907 44.7921 208.758 44.6045 208.591 44.6658C206.864 45.3151 205.677 46.2169 204.694 47.9807C204.207 48.8536 203.224 50.3794 201.747 52.558C201.119 53.4814 200.575 54.5275 199.896 55.6601C199.805 55.8116 199.616 55.8729 199.453 55.808C199.29 55.7395 199.199 55.5627 199.243 55.3932L199.758 53.3696C199.812 53.1532 199.569 52.9837 199.384 53.1099L198.426 53.7592C198.274 53.8638 198.078 53.7015 198.154 53.5319L199.25 51.0936C199.283 51.0214 199.257 50.9349 199.188 50.8952C199.119 50.8519 199.032 50.8699 198.981 50.9313C197.86 52.3705 196.898 54.0622 196.089 56.0136C195.577 57.2544 195.16 58.9569 194.873 60.039C193.715 64.4432 191.28 68.512 188.127 71.7331C187.274 72.6024 186.388 73.1506 185.466 73.3851C185.354 73.4139 185.234 73.3923 185.14 73.3238C183.481 72.137 181.315 69.7239 182.705 67.6715C183.38 66.6688 183.895 65.9365 183.75 64.858C183.343 61.8029 184.37 59.7036 186.08 56.8107C186.537 56.0352 186.813 55.2778 186.904 54.5347C186.954 54.1235 186.497 53.8421 186.152 54.0766L184.712 55.0541C184.468 55.22 184.131 55.1082 184.033 54.8305L183.594 53.5824C183.507 53.3372 183.206 53.247 182.999 53.4057C182.814 53.5464 182.708 53.6546 182.683 53.7267C182.157 55.1443 181.369 56.8143 180.313 58.7369C178.999 61.1248 178.128 63.7831 177.472 65.9185C176.633 68.6418 175.791 73.5799 177.159 76.2274C178.807 79.4124 181.921 78.6694 184.922 79.0337C185.038 79.0481 185.154 79.0121 185.245 78.9399C186.533 77.9011 187.902 76.6386 189.353 75.1489C190.609 73.8612 191.353 72.5302 192.224 71.1415C193.44 69.2045 194.942 70.2506 195.817 71.6862C198.531 76.1409 202.494 77.6486 207.709 76.2022C209.252 75.7729 210.108 74.7197 211.001 74.0343C212.696 72.7358 215.294 72.6745 216.742 70.9467C218.274 69.1252 219.693 67.4912 220.999 66.052C221.235 65.7923 221.667 65.9293 221.714 66.2756C221.961 68.209 221.798 69.4462 221.017 71.4156C220.694 72.2272 220.379 73.0496 220.077 73.8756C219.82 73.1001 219.758 72.2741 219.892 71.4048C220.034 70.485 220.194 69.5544 220.364 68.6058C220.331 68.6382 219.856 69.1252 218.938 70.0738C216.731 72.3499 214.311 74.2616 211.676 75.8054C207.557 78.2257 202.023 79.5134 197.802 76.4655C195.799 75.0155 194.572 73.1109 194.122 70.7483C194.086 70.5644 193.839 70.5247 193.745 70.687C192.329 73.1001 190.671 75.286 188.773 77.2518C186.66 79.4341 183.852 81.6272 180.476 81.1114C172.503 79.8922 175.846 67.5669 177.435 62.8237C177.838 61.6225 178.538 60.0571 179.533 58.1345C180.19 56.8612 180.941 55.3174 181.779 53.4959C181.83 53.3877 181.728 53.2722 181.612 53.3047L180.353 53.669C179.569 53.8313 178.796 53.8241 178.034 53.6546C177.533 53.5428 177.167 53.5788 176.931 53.7592C176.63 53.9936 176.444 54.3471 176.372 54.8124C175.472 56.9911 174.626 59.177 173.839 61.3664C172.605 64.7895 171.767 66.9754 171.327 67.9168C169.974 70.8169 168.497 73.5185 166.896 76.0218C164.479 79.7984 161.231 82.5361 156.423 82.1718C155.279 82.0853 154.198 81.5586 153.182 80.5956C151.741 79.2321 151.396 76.9849 151.353 75.001C151.349 74.882 151.197 74.8387 151.135 74.9397C150.369 76.1914 149.469 77.6053 148.435 79.178C146.795 81.6668 143.815 83.8311 140.934 84.1449C136.488 84.6318 133.32 81.5081 132.492 77.3564C132.474 77.2771 132.369 77.2554 132.322 77.3204C130.678 79.5387 129.342 81.2737 128.311 82.5325C126.769 84.4082 124.443 86.3163 121.768 86.1107C119.496 85.9376 117.918 84.7617 116.945 82.6516C116.223 81.0897 115.882 79.5675 115.918 78.0923C115.991 75.167 116.593 72.1623 117.722 69.0783C118.647 66.29 119.569 63.4946 120.487 60.6991C120.668 60.1545 120.77 59.6747 120.792 59.2599C120.817 58.8018 120.345 58.4808 119.925 58.6684C119.22 58.9858 118.535 59.4258 117.87 59.9849C113.857 63.3647 110.202 67.7689 108.707 72.9017C107.64 76.5773 106.471 80.8408 105.198 85.6959C105.089 86.1143 104.914 86.4714 104.679 86.7672C104.588 86.8754 104.461 86.9511 104.323 86.9728C102.047 87.3624 99.4889 86.3127 97.7288 84.9312C97.4203 84.6895 97.2026 84.4082 97.0828 84.0836C97.0429 83.9753 97.0247 83.8635 97.0284 83.7481C97.0683 83.0303 97.2824 81.9157 97.678 80.4116C99.0643 75.1345 100.338 70.1676 101.499 65.5181C101.532 65.3847 101.365 65.2945 101.271 65.3919C100.324 66.355 99.351 67.2639 98.353 68.1116C96.1792 69.9584 94.8908 71.7114 94.194 74.3337L93.4573 75.8054C93.4319 75.8595 93.4029 75.8992 93.3775 75.9172C93.3484 75.9353 93.3121 75.9497 93.2722 75.9569C93.2142 75.9641 93.1634 76.0038 93.138 76.0579L89.6758 83.4848C89.0661 84.3757 88.4782 85.1332 87.912 85.7536C83.4337 90.6375 74.2302 93.0543 69.7119 86.6229C67.9591 84.1232 66.874 81.519 67.0808 78.4313C67.2913 75.2824 67.7849 72.7611 68.5615 70.8602C70.387 66.3982 72.5826 62.3836 75.1411 58.809C77.5001 55.5158 81.1618 52.5725 85.2119 51.7212C90.0713 50.6968 93.9146 53.9179 95.5622 58.1526C96.1029 59.5377 96.2154 61.4494 96.2735 63.0293C96.2771 63.1808 96.4513 63.2601 96.5747 63.17C98.7776 61.5143 100.872 59.599 102.864 57.4203C104.094 56.0713 104.849 54.477 105.136 52.641C105.292 51.6346 106.232 51.7465 107.244 51.8006C109.621 51.9304 113.047 52.7348 113.367 55.487C113.378 55.5735 113.367 55.6601 113.341 55.7394L112.692 57.8243C112.659 57.9253 112.79 57.9975 112.859 57.9181C113.189 57.543 114.35 56.2553 116.346 54.0514C117.576 52.6987 118.97 51.6851 120.534 51.0034C123.387 49.7662 126.914 50.1197 128.917 52.6735C129.937 53.9756 130.322 55.4689 130.075 57.1534C129.861 58.607 129.498 60.0138 128.979 61.37C127.078 66.3586 125.47 70.7483 124.156 74.5429C123.888 75.3257 123.695 76.7072 124.584 77.2663C124.973 77.5115 125.423 77.461 125.934 77.1184C126.58 76.6819 127.183 76.1372 127.745 75.4772C129.868 72.9847 131.567 70.2542 132.848 67.2856C132.931 67.0944 133.236 66.153 133.762 64.4685C135.112 60.1509 137.13 56.6376 140.531 52.6626C142.53 50.3217 144.886 48.4244 147.597 46.9671C152.216 44.4855 156.06 45.1708 158.538 49.7626C158.578 49.8347 158.687 49.8239 158.709 49.7409L159.348 47.2341C159.369 47.1511 159.446 47.0898 159.533 47.0862C159.805 47.0717 160.099 47.1042 160.407 47.18C160.622 47.6561 160.952 47.9302 161.398 47.9987C162.694 48.208 163.717 48.8212 164.465 49.8347C164.69 50.1413 164.755 50.5345 164.639 50.8916C163.489 54.4373 162.556 58.084 161.845 61.8281C161.133 64.2521 160.52 66.7337 160.005 69.2731C159.642 71.0513 159.555 72.2236 160.988 73.3165C161.206 73.4825 161.5 73.5149 161.75 73.3995C162.117 73.23 162.454 72.9558 162.763 72.5735C162.843 72.4725 162.723 72.3318 162.61 72.3968C162.073 72.7034 161.358 73.1434 160.839 72.6781C160.745 72.5951 160.792 72.4364 160.919 72.422L162.948 72.1623C163.039 72.1515 163.122 72.1082 163.187 72.0433C164.272 70.9648 165.067 70.0305 165.568 69.2406C169.063 63.7182 171.574 57.7522 173.102 51.3425C173.124 51.2451 173.091 51.1441 173.019 51.0756C171.792 49.9862 170.536 48.4713 170.311 46.7327C170.083 44.976 170.594 41.1778 172.645 40.4059C173.432 40.1065 174.184 40.1462 174.895 40.5214C177.359 41.8235 178.553 43.7713 178.48 46.3648C178.47 46.7219 178.451 47.2268 178.422 47.8761C178.415 48.0276 178.444 48.1394 178.509 48.2152C178.593 48.309 178.691 48.3883 178.811 48.4496C179.359 48.9799 179.899 49.153 180.44 48.9654C181.591 48.5687 182.763 48.0673 183.928 47.9591C185.347 47.8256 186.849 47.941 188.431 48.2981C189.502 48.9438 190.264 49.9357 190.718 51.2812C190.78 51.4687 190.787 51.6707 190.743 51.8619C190.573 52.5941 190.359 53.229 190.101 53.77C188.678 56.7819 187.423 58.9677 186.334 61.9544C185.416 64.4721 183.314 70.2109 184.944 71.9098C185.158 72.1334 185.517 72.1623 185.808 71.9783C186.907 71.293 187.854 70.485 188.649 69.558C190.994 66.8311 193.008 63.61 193.984 60.1112C195.555 54.495 197.664 49.8131 202.026 45.8129C204.835 43.2339 207.361 41.0336 211.11 40.3013C214.474 39.6448 217.686 41.47 219.609 44.1284C222.676 48.3667 218.455 53.7953 215.069 56.2985C214.122 57.0019 213.313 57.3085 212.641 57.2255C208.646 56.7242 212.13 50.0403 212.369 48.2621C212.453 47.6308 212.297 47.115 211.894 46.711C211.288 46.0942 210.507 46.8301 210.021 47.3242C205.586 51.7861 203.344 58.1201 202.672 64.3819C202.502 65.9726 202.846 67.4695 203.703 68.8727ZM153.127 62.5243C152.51 64.1438 152.155 65.1502 151.338 66.6868C149.926 69.3452 149.11 70.8638 148.896 71.2389C147.869 73.0136 146.58 74.3518 145.034 75.2499C144.327 75.6575 143.202 75.8415 141.659 75.8018C141.525 75.7982 141.398 75.7369 141.311 75.6395C139.133 73.1542 137.976 71.3868 139.039 68.1837C139.983 65.3306 141.242 62.5387 142.813 59.8082C143.732 58.2103 145.024 56.9695 146.018 55.5158C147.357 53.5536 148.769 51.797 150.246 50.2495C150.26 50.2351 150.271 50.2171 150.278 50.199L150.344 50.0331C150.409 49.8672 150.246 49.7049 150.079 49.7626C144.577 51.7104 141.924 56.414 138.549 61.3376C138.444 61.4891 138.212 61.4638 138.143 61.2943C138.125 61.2546 138.15 61.0851 138.212 60.7785C138.738 58.2247 139.776 56.1146 141.325 54.4517C142.225 53.4887 144.142 51.7284 147.074 49.171C147.103 49.1494 147.121 49.1133 147.121 49.0736V48.8753C147.121 48.7382 146.969 48.6588 146.856 48.7346C145.038 49.9465 143.398 51.3677 141.932 53.0017C140.574 54.5131 138.81 56.5366 137.693 58.3293C137.46 58.7044 136.796 60.0895 135.697 62.4882C135.308 63.3395 135.029 64.1835 134.851 65.0168C134.492 66.7193 134.147 68.3605 133.298 69.4101C132.205 70.7628 131.411 72.0685 130.91 73.3274C130.863 73.4428 130.805 73.5474 130.728 73.6448C129.574 75.1237 128.105 76.6747 126.319 78.3015C125.27 79.2537 124.334 79.2104 123.503 78.168C123.43 78.0778 123.39 77.966 123.379 77.8542C123.169 75.167 123.067 73.6195 123.075 73.2083C123.122 69.6338 123.136 67.3036 123.115 66.2143C123.042 62.8201 121.246 64.1258 119.852 65.6227C119.776 65.7057 119.714 65.8031 119.67 65.9077C119.202 67.1233 118.781 68.0791 118.538 69.1612C118.346 70.0305 118.041 71.2822 117.62 72.909C116.8 76.1012 116.967 80.9094 119.808 83.0519C122.229 84.8771 125.172 84.0547 127.136 81.959C128.152 80.8769 129.302 79.4774 130.59 77.7604C132.336 75.4303 134.024 77.6702 135.533 79.0121C136.927 80.2493 138.629 81.0464 140.64 81.3963C142.403 81.6993 143.801 81.2989 145.063 80.1519C145.64 79.6325 146.871 78.3123 148.762 76.1877C149.832 74.983 151.175 73.8684 152.405 75.5782C153.276 76.7865 154.111 77.746 154.909 78.4602C156.916 80.2565 159.976 80.8516 162.273 79.0084C165.412 76.4943 167.655 73.3129 168.998 69.4642C169.248 68.7536 169.422 67.5777 169.52 65.9365C169.527 65.8211 169.553 65.7093 169.6 65.6047C170.395 63.7326 171.273 61.8931 171.973 59.3429C171.999 59.2563 171.933 59.1697 171.843 59.1697H171.716C171.643 59.1697 171.578 59.213 171.549 59.2816C170.464 61.8462 169.785 64.0248 168.37 66.3838C166.635 69.2731 165.568 70.99 165.165 71.5383C165.103 71.6212 165.035 71.7006 164.958 71.7691C163.772 72.8837 162.828 73.9983 161.242 74.9361C161.093 75.0263 160.905 75.0263 160.756 74.9397L159.725 74.3482C159.598 74.276 159.507 74.1534 159.475 74.0091C158.836 71.2245 158.295 68.9628 157.856 67.2243C157.221 64.721 156.452 62.3475 153.352 62.3692C153.251 62.3692 153.164 62.4305 153.127 62.5243ZM153.77 51.7465C151.008 52.3272 148.696 53.8818 146.827 56.4104C144.483 59.5846 142.734 63.0076 141.579 66.6832C140.803 69.154 139.467 73.9766 143.028 74.5285C143.902 74.662 144.595 74.5033 145.103 74.0524C146.813 72.523 148.243 70.7267 149.386 68.6671C151.502 64.8472 153.146 60.6522 154.314 56.0857C154.568 55.0866 155.189 52.2911 154.162 51.797C154.038 51.7392 153.9 51.7212 153.77 51.7465ZM89.9479 66.1061C90.4052 63.8517 90.1947 60.0282 88.5326 58.185C88.2604 57.882 87.8104 57.8171 87.4584 58.0263C85.3027 59.314 84.1958 63.7038 86.1918 65.4099C87.0664 66.1602 88.1987 66.4956 89.5887 66.4163C89.7665 66.4055 89.9153 66.2792 89.9479 66.1061ZM79.6848 65.0889C77.1807 69.2406 75.4387 74.7016 76.0738 79.5928C76.4077 82.1826 79.5795 83.9537 81.6518 81.7714C84.4498 78.8245 86.5475 75.4231 87.9447 71.5635C88.01 71.3904 87.8793 71.2028 87.6943 71.2028C84.6494 71.1631 82.4103 69.8321 80.9804 67.217C80.7626 66.8203 80.4179 66.1169 79.9497 65.1033C79.8989 64.9951 79.7465 64.9843 79.6848 65.0889Z" fill="white"/>
<path d="M255.08 42.4803C255.193 43.2269 255.109 43.9447 254.837 44.6337C254.823 44.6733 254.812 44.713 254.804 44.7527L254.325 48.2263L254.362 44.3523L253.941 42.2061C253.908 41.9644 253.901 41.7913 253.923 41.6795C253.955 41.5244 254.177 41.51 254.227 41.6615L254.79 43.2558C254.837 43.3928 255.04 43.3604 255.048 43.2161L255.08 42.4803Z" fill="#03336C"/>
<path d="M302.15 47.8508L297.37 65.3161L294.173 65.2223C294.028 65.2187 293.926 65.078 293.966 64.9409C295.715 59.0146 297.454 53.1351 299.178 47.2989C299.755 45.3475 300.034 43.6197 300.023 42.1084C301.678 43.728 302.386 45.6433 302.15 47.8508Z" fill="#003074"/>
<path d="M254.325 48.226C253.777 51.9629 252.551 55.4473 250.638 58.6792C251.128 56.7711 251.995 53.9648 253.248 50.2604C253.792 48.648 254.162 46.6786 254.362 44.3521L254.325 48.226Z" fill="#F4F4EE"/>
<path d="M203.703 68.8726C204.28 69.41 204.955 69.7707 205.724 69.9511C206.563 70.1495 207.423 70.2433 208.301 70.2324C206.936 70.7194 205.525 70.7194 204.066 70.2324C203.931 70.1891 203.793 70.2865 203.793 70.4272V70.5859C203.793 70.7663 203.913 70.9214 204.084 70.9719C205.917 71.5093 207.648 71.5237 209.273 71.0115C212.035 70.1423 214.467 68.7175 216.561 66.7336C219.468 63.9886 221.783 60.9587 223.511 57.6475C223.569 57.5357 223.663 57.4419 223.775 57.3842C226.207 56.1542 230.776 53.5571 229.985 59.2743C229.524 62.5963 228.628 65.8968 227.288 69.172C225.993 72.3462 223.5 73.5509 220.364 74.3372L220.077 73.8755C220.379 73.0495 220.694 72.2271 221.017 71.4155C221.798 69.4461 221.961 68.2089 221.714 66.2755C221.667 65.9292 221.235 65.7922 220.999 66.0519C219.693 67.4911 218.274 69.1251 216.742 70.9466C215.294 72.6744 212.696 72.7357 211.001 74.0342C210.108 74.7196 209.252 75.7728 207.709 76.2021C202.494 77.6485 198.531 76.1408 195.817 71.6861C194.942 70.2505 193.44 69.2044 192.224 71.1414C191.353 72.5301 190.609 73.8611 189.353 75.1488C187.902 76.6385 186.533 77.901 185.245 78.9398C185.154 79.012 185.038 79.048 184.922 79.0336C181.921 78.6693 178.807 79.4123 177.159 76.2273C175.791 73.5798 176.633 68.6417 177.471 65.9184C178.128 63.783 178.999 61.1247 180.313 58.7368C181.369 56.8142 182.157 55.1442 182.683 53.7266C182.708 53.6545 182.814 53.5463 182.999 53.4056C183.205 53.2469 183.507 53.3371 183.594 53.5823L184.033 54.8304C184.131 55.1081 184.468 55.2199 184.712 55.054L186.152 54.0765C186.497 53.842 186.954 54.1234 186.904 54.5346C186.813 55.2777 186.537 56.0351 186.08 56.8106C184.37 59.7035 183.343 61.8028 183.75 64.8579C183.895 65.9364 183.38 66.6687 182.705 67.6714C181.315 69.7238 183.481 72.1369 185.14 73.3237C185.234 73.3922 185.354 73.4138 185.466 73.385C186.388 73.1505 187.274 72.6023 188.127 71.733C191.28 68.5119 193.715 64.4431 194.873 60.0389C195.16 58.9568 195.577 57.2543 196.089 56.0135C196.898 54.0621 197.86 52.3704 198.981 50.9312C199.032 50.8699 199.119 50.8518 199.188 50.8951C199.257 50.9348 199.283 51.0213 199.25 51.0935L198.154 53.5318C198.078 53.7014 198.274 53.8637 198.426 53.7591L199.384 53.1098C199.569 52.9836 199.812 53.1531 199.758 53.3695L199.243 55.3931C199.199 55.5626 199.29 55.7394 199.453 55.8079C199.616 55.8728 199.805 55.8115 199.896 55.66C200.574 54.5274 201.119 53.4813 201.747 52.5579C203.224 50.3793 204.207 48.8535 204.694 47.9806C205.677 46.2168 206.864 45.315 208.591 44.6657C208.758 44.6044 208.907 44.792 208.809 44.9399C207.027 47.5947 204.156 50.9023 203.046 54.026C202.505 55.5446 202.244 56.6555 202.269 57.3661C202.36 59.9235 202.629 61.4565 201.812 63.2456C201.442 64.0572 201.228 64.7642 201.17 65.3593C200.992 67.2747 201.834 68.4469 203.703 68.8726Z" fill="white"/>
<path d="M188.431 48.2982C186.849 47.9411 185.347 47.8257 183.928 47.9592C182.763 48.0674 181.59 48.5687 180.44 48.9655C179.899 49.1531 179.359 48.9799 178.811 48.4497C178.909 48.4172 178.956 48.2982 178.948 48.0926C178.945 47.988 179.007 47.887 179.108 47.8473C182.084 46.6245 185.895 45.6038 188.431 48.2982Z" fill="white"/>
<path d="M161.844 61.8284C162.556 58.0843 163.488 54.4375 164.639 50.8918C164.755 50.5347 164.69 50.1416 164.465 49.835C163.717 48.8214 162.694 48.2082 161.398 47.999C160.952 47.9304 160.621 47.6563 160.407 47.1802C162.712 47.2631 164.505 48.237 165.786 50.1019C166.011 50.4265 166.061 50.8413 165.92 51.2092L161.844 61.8284Z" fill="white"/>
<path d="M245.529 74.7126C246.991 75.4484 248.74 74.8568 250.148 74.139C252.217 73.0858 253.68 71.6754 255.334 70.1172C256.525 68.9918 257.487 67.8953 258.223 66.8276C258.332 66.6689 258.575 66.6905 258.655 66.8673C259.922 69.7457 261.896 72.2201 265.227 72.5844C266.973 72.7756 268.657 72.5952 270.279 72.0434C271.676 71.5708 273.204 70.4563 274.358 69.8359C274.692 69.6591 275.124 69.605 275.658 69.6807C275.752 69.6952 275.814 69.7854 275.792 69.8791L275.422 71.3256C275.327 71.7115 275.055 72.0325 274.689 72.1949C271.419 73.6413 268.635 74.9615 266.334 76.159C265.402 76.6459 264.324 77.3205 263.108 78.1898C261.66 79.2214 260.615 79.9536 259.972 80.39C258.749 81.2197 258.1 81.8978 256.96 82.713C256.285 83.1963 255.621 84.2532 254.801 84.3542C253.937 84.4624 253.135 84.181 252.398 83.5065L253.774 81.9411C253.843 81.8617 253.752 81.7427 253.658 81.7896C249.804 83.6328 245.75 82.0998 242.723 79.4378C242.233 79.0085 241.722 78.5685 241.195 78.1212L238.55 73.3058L237.004 67.7654C234.859 68.4724 232.743 68.9882 230.653 69.3128C230.558 69.3273 230.475 69.2515 230.486 69.1577C230.765 65.8645 231.789 62.9356 232.805 59.2853C232.892 58.9715 232.943 58.4088 232.957 57.5972C234.427 54.8378 236.26 52.3561 238.455 50.1595C239.649 48.9655 240.974 48.2225 242.422 47.9303C245.082 47.3965 244.102 51.4616 243.601 52.9405C242.429 56.4177 241.595 59.0003 241.097 60.6848C239.896 64.7608 239.682 73.6052 245.529 74.7126Z" fill="#03336C"/>
<path d="M153.352 62.3695C156.451 62.3479 157.221 64.7213 157.856 67.2246C158.295 68.9632 158.836 71.2248 159.475 74.0094C159.507 74.1537 159.598 74.2764 159.725 74.3485L160.756 74.9401C160.904 75.0266 161.093 75.0266 161.242 74.9364C162.828 73.9986 163.771 72.884 164.958 71.7695C165.034 71.7009 165.103 71.6216 165.165 71.5386C165.568 70.9903 166.635 69.2734 168.37 66.3842C169.785 64.0252 170.464 61.8465 171.549 59.2819C171.578 59.2134 171.643 59.1701 171.716 59.1701H171.843C171.933 59.1701 171.999 59.2567 171.973 59.3432C171.273 61.8934 170.395 63.733 169.6 65.605C169.553 65.7096 169.527 65.8215 169.52 65.9369C169.422 67.5781 169.248 68.754 168.997 69.4646C167.655 73.3133 165.412 76.4947 162.273 79.0088C159.975 80.852 156.916 80.2568 154.909 78.4605C154.111 77.7463 153.276 76.7869 152.405 75.5785C151.175 73.8688 149.832 74.9833 148.761 76.1881C146.871 78.3126 145.64 79.6328 145.063 80.1522C143.8 81.2993 142.403 81.6996 140.639 81.3967C138.629 81.0468 136.927 80.2496 135.533 79.0124C134.024 77.6706 132.336 75.4306 130.59 77.7608C129.302 79.4777 128.152 80.8772 127.135 81.9594C125.172 84.055 122.229 84.8774 119.808 83.0523C116.967 80.9097 116.8 76.1015 117.62 72.9093C118.041 71.2825 118.346 70.0309 118.538 69.1616C118.781 68.0795 119.202 67.1236 119.67 65.908C119.714 65.8034 119.776 65.706 119.852 65.6231C121.245 64.1262 123.042 62.8204 123.114 66.2146C123.136 67.304 123.122 69.6341 123.074 73.2087C123.067 73.6199 123.169 75.1673 123.379 77.8545C123.39 77.9664 123.43 78.0782 123.503 78.1684C124.334 79.2108 125.27 79.2541 126.319 78.3018C128.104 76.675 129.574 75.124 130.728 73.6451C130.804 73.5477 130.863 73.4431 130.91 73.3277C131.411 72.0688 132.205 70.7631 133.298 69.4105C134.147 68.3608 134.492 66.7196 134.851 65.0171C135.029 64.1839 135.308 63.3398 135.697 62.4886C136.796 60.0899 137.46 58.7048 137.693 58.3296C138.81 56.5369 140.574 54.5134 141.931 53.002C143.398 51.3681 145.038 49.9469 146.856 48.7349C146.969 48.6592 147.121 48.7385 147.121 48.8756V49.074C147.121 49.1137 147.103 49.1497 147.074 49.1714C144.142 51.7288 142.225 53.489 141.325 54.4521C139.776 56.1149 138.738 58.225 138.212 60.7788C138.15 61.0854 138.124 61.2549 138.143 61.2946C138.212 61.4642 138.444 61.4894 138.549 61.3379C141.924 56.4143 144.577 51.7107 150.079 49.7629C150.246 49.7052 150.409 49.8675 150.344 50.0335L150.278 50.1994C150.271 50.2174 150.26 50.2354 150.246 50.2499C148.769 51.7973 147.357 53.5539 146.018 55.5162C145.023 56.9698 143.731 58.2106 142.813 59.8085C141.242 62.5391 139.983 65.3309 139.039 68.1841C137.976 71.3871 139.133 73.1546 141.311 75.6398C141.398 75.7372 141.525 75.7985 141.659 75.8021C143.202 75.8418 144.327 75.6579 145.034 75.2503C146.58 74.3521 147.869 73.0139 148.896 71.2392C149.11 70.8641 149.926 69.3455 151.338 66.6872C152.155 65.1506 152.51 64.1442 153.127 62.5246C153.164 62.4308 153.251 62.3695 153.352 62.3695Z" fill="white"/>
<path d="M154.162 51.797C155.189 52.2912 154.568 55.0866 154.314 56.0858C153.145 60.6523 151.501 64.8472 149.386 68.6671C148.242 70.7267 146.813 72.523 145.103 74.0524C144.595 74.5033 143.902 74.662 143.027 74.5285C139.467 73.9767 140.803 69.154 141.579 66.6832C142.733 63.0077 144.483 59.5846 146.827 56.4104C148.696 53.8819 151.008 52.3272 153.77 51.7465C153.9 51.7212 154.038 51.7393 154.162 51.797Z" fill="#03336C"/>
<path d="M220.077 73.8758L220.364 74.3375C221.834 76.343 225.815 76.1302 228.047 75.9895C228.21 75.9787 228.348 75.8597 228.381 75.701C228.929 73.2951 229.8 69.2841 230.994 63.6607C231.502 61.262 232.155 59.2385 232.957 57.5973C232.942 58.4088 232.892 58.9715 232.805 59.2854C231.788 62.9357 230.765 65.8646 230.486 69.1578C230.475 69.2516 230.558 69.3274 230.653 69.3129C232.743 68.9883 234.859 68.4725 237.003 67.7655C236.165 71.1742 235.418 74.5395 234.757 77.858C234.634 78.4748 234.34 79.5497 233.872 81.0827C233.175 83.3623 230.137 84.0044 228.076 84.0585C224.813 84.1487 223.086 82.3524 220.908 80.2711C220.821 80.1881 220.683 80.1773 220.585 80.2459C218.346 81.8474 216.938 82.8285 216.354 83.1892C213.955 84.6681 211.407 85.6456 208.707 86.1253C204.113 86.9405 200.23 84.8629 197.072 81.7716C196.974 81.6742 196.811 81.6778 196.72 81.7824C193.962 84.8629 190.983 87.8387 186.747 88.8559C184.007 89.5123 181.55 88.9893 179.384 87.2904C177.105 85.5049 175.069 82.576 174.006 80.8013C173.944 80.7003 173.795 80.7039 173.741 80.8085C173.011 82.1612 171.98 83.5824 170.645 85.0721C168.758 87.1786 166.965 88.8126 164.486 89.7179C161.946 90.6449 159.529 90.4935 157.232 89.2707C156.335 88.7909 154.764 87.4527 154.216 86.8864C154.125 86.7926 153.973 86.7926 153.878 86.8828C151.138 89.5448 147.019 92.4773 143.071 92.1599C140.175 91.9291 137.845 90.1941 135.638 88.1633C135.548 88.0803 135.406 88.0876 135.326 88.1777C134.278 89.3392 133.33 90.3131 132.485 91.103C128.612 94.6993 123.191 95.1068 119.336 91.2221C118.589 90.4682 117.798 89.6494 116.967 88.7657L115.686 86.7097L114.285 83.4128C116.462 81.9339 115.355 80.2242 115.341 78.1357C115.315 75.1383 115.954 71.6142 117.721 69.0785C116.593 72.1625 115.99 75.1671 115.918 78.0925C115.881 79.5677 116.223 81.0899 116.945 82.6517C117.917 84.7619 119.496 85.9378 121.768 86.1109C124.443 86.3165 126.769 84.4084 128.311 82.5327C129.342 81.2739 130.677 79.5389 132.321 77.3205C132.369 77.2556 132.474 77.2773 132.492 77.3566C133.319 81.5083 136.488 84.632 140.933 84.1451C143.815 83.8312 146.794 81.667 148.435 79.1782C149.469 77.6055 150.369 76.1915 151.135 74.9399C151.196 74.8389 151.349 74.8822 151.353 75.0012C151.396 76.9851 151.741 79.2323 153.182 80.5957C154.198 81.5588 155.279 82.0854 156.422 82.172C161.231 82.5363 164.479 79.7986 166.896 76.022C168.497 73.5187 169.974 70.8171 171.327 67.917C171.766 66.9756 172.605 64.7897 173.839 61.3666C174.626 59.1771 175.472 56.9913 176.372 54.8126L172.354 67.0802C172.322 67.1812 172.314 67.2894 172.336 67.394C172.485 68.0577 172.775 69.432 173.309 69.7422C173.523 69.8684 173.824 69.7927 174.02 69.5618C174.416 69.1037 174.768 68.5013 175.076 67.7619C175.646 66.3876 176.038 65.4498 176.433 64.227C177.294 61.5758 178.415 59.0329 179.79 56.6053C180.313 55.6855 180.502 54.7044 180.353 53.6692L181.612 53.3049C181.728 53.2724 181.83 53.3878 181.779 53.4961C180.941 55.3176 180.19 56.8614 179.533 58.1347C178.538 60.0573 177.838 61.6227 177.435 62.8239C175.846 67.5671 172.503 79.8924 180.476 81.1115C183.851 81.6273 186.66 79.4343 188.772 77.252C190.67 75.2862 192.329 73.1003 193.744 70.6872C193.839 70.5249 194.085 70.5646 194.122 70.7485C194.572 73.1111 195.798 75.0156 197.802 76.4657C202.022 79.5136 207.557 78.2259 211.676 75.8056C214.311 74.2618 216.731 72.35 218.938 70.074C219.856 69.1254 220.331 68.6384 220.364 68.6059C220.193 69.5546 220.034 70.4852 219.892 71.405C219.758 72.2743 219.82 73.1003 220.077 73.8758Z" fill="#002960"/>
<path d="M180.353 53.6693C180.502 54.7046 180.313 55.6857 179.79 56.6055C178.415 59.033 177.294 61.576 176.433 64.2271C176.038 65.4499 175.646 66.3878 175.076 67.762C174.768 68.5015 174.416 69.1039 174.02 69.562C173.824 69.7928 173.523 69.8686 173.309 69.7423C172.775 69.4321 172.485 68.0578 172.336 67.3941C172.314 67.2895 172.322 67.1813 172.354 67.0803L176.372 54.8128C176.444 54.3475 176.629 53.994 176.931 53.7595C177.167 53.5792 177.533 53.5431 178.034 53.6549C178.796 53.8244 179.569 53.8317 180.353 53.6693Z" fill="#03336C"/>
<path d="M89.948 66.1064C89.9153 66.2795 89.7666 66.4058 89.5887 66.4166C88.1988 66.4959 87.0665 66.1605 86.1919 65.4102C84.1958 63.7041 85.3027 59.3143 87.4584 58.0266C87.8105 57.8174 88.2605 57.8823 88.5326 58.1853C90.1948 60.0285 90.4053 63.852 89.948 66.1064Z" fill="#03336C"/>
<path d="M209.281 65.4857L209.923 62.9572C209.956 62.8273 210.108 62.766 210.224 62.8345L211.607 63.6281C211.781 63.7291 211.792 63.9744 211.625 64.0898L209.422 65.5831C209.353 65.63 209.259 65.5687 209.281 65.4857Z" fill="#03336C"/>
<path d="M287.648 63.9385L286.29 68.9378C286.243 69.1038 286.385 69.2589 286.555 69.23C290.899 68.5158 295.236 68.4473 299.569 69.0244C301.7 69.3058 303.768 69.7927 305.779 70.4889C308.294 71.3582 310.431 72.9958 310.243 75.9283C310.127 77.6741 309.564 79.4487 308.552 81.2523C308.682 80.2134 308.86 79.1854 309.085 78.1719C309.706 75.38 308.962 73.9192 306.879 71.9858C306.795 71.9064 306.701 71.8415 306.595 71.7874C305.002 70.9866 303.133 70.4889 300.996 70.2977C298.375 70.0632 295.911 69.9009 293.603 69.8143C290.987 69.7133 287.724 70.5213 285.583 70.3013C285.347 70.276 285.184 70.056 285.231 69.8288C285.655 67.7223 286.461 65.76 287.648 63.9385Z" fill="white"/>
<path d="M269.84 74.8245C266.323 76.5956 263.115 78.5866 260.215 80.805C255.24 84.6104 250.304 90.1364 248.399 95.9329C246.885 100.543 247.586 105.517 251.048 109.073C252.681 110.505 254.586 111.27 256.768 111.367C262.342 111.616 267.673 107.663 271.382 103.717C273.799 101.145 275.773 98.5047 277.301 95.7994C279.308 92.3186 280.876 88.6611 282.001 84.8232C282.6 82.7816 283.271 80.2711 284.008 77.2917C284.117 76.8553 284.218 76.5054 284.313 76.2421C284.411 75.9679 284.65 75.7696 284.937 75.7191C292.068 74.4782 301.344 74.4313 305.841 81.2703C306.519 82.4714 308.069 82.7708 308.552 81.2522C309.564 79.4487 310.127 77.6741 310.243 75.9283C310.431 72.9957 308.294 71.3581 305.779 70.4888C303.768 69.7927 301.7 69.3057 299.569 69.0244C301.308 68.6384 302.026 67.5599 301.732 65.7889C305.354 66.2253 309.898 67.3255 311.836 70.6079C312.065 70.9938 312.446 71.9208 312.986 73.3853C313.353 74.3989 313.727 75.1528 314.104 75.6541C315.229 77.151 316.151 78.6949 316.869 80.2892C316.924 81.5336 316.88 82.3632 316.742 82.778C316.057 84.8521 314.997 86.8359 313.56 88.7296C312.373 90.2987 311.012 90.8398 309.477 90.3564C308.225 89.9596 307.619 89.1336 306.512 88.0696C302.15 83.8854 296.376 82.9223 290.54 83.5896C290.391 83.6076 290.268 83.7122 290.224 83.8565C288.047 91.3916 285.586 98.6815 281.409 104.958C279.693 107.544 277.849 109.831 275.879 111.818C271.589 116.154 262.933 120.926 256.677 118.412C253.596 117.175 250.87 114.992 248.5 111.862C244.312 106.123 243.503 99.9836 246.076 93.444C246.994 91.1103 248.319 88.7729 250.057 86.4283L252.398 83.5066C253.135 84.1812 253.937 84.4625 254.801 84.3543C255.621 84.2533 256.285 83.1964 256.96 82.7131C258.099 81.8979 258.749 81.2198 259.972 80.3902C260.614 79.9537 261.66 79.2215 263.108 78.1899C264.323 77.3206 265.401 76.6461 266.334 76.1591C268.635 74.9616 271.418 73.6414 274.688 72.195C275.055 72.0327 275.327 71.7116 275.421 71.3257L275.791 69.8793C275.813 69.7855 275.752 69.6953 275.657 69.6809C275.124 69.6051 274.692 69.6592 274.358 69.836C273.204 70.4564 271.676 71.571 270.279 72.0435C268.657 72.5954 266.973 72.7757 265.227 72.5845C261.896 72.2202 259.921 69.7458 258.655 66.8674C258.575 66.6906 258.332 66.669 258.223 66.8277C257.486 67.8954 256.524 68.9919 255.334 70.1173C253.679 71.6756 252.217 73.0859 250.148 74.1392C248.74 74.857 246.991 75.4485 245.528 74.7127C246.809 74.8966 248.04 74.6983 249.219 74.1139C253.32 72.0796 255.911 68.9054 258.328 65.1035L258.992 64.126C259.054 64.0359 259.192 64.0719 259.203 64.1765C259.304 65.0963 259.359 65.5941 259.366 65.6735C259.667 69.0172 261.928 71.8776 265.369 72.1589C268.577 72.4186 271.563 71.4159 274.002 69.432C275.548 68.1803 276.622 67.2497 277.221 66.6437C277.308 66.5572 277.454 66.6365 277.425 66.7556C277.141 67.9784 276.735 69.4212 276.205 71.084C275.926 71.9713 275.512 72.3717 274.601 72.7072C272.957 73.3132 271.368 74.0201 269.84 74.8245Z" fill="#002960"/>
<path d="M47.1966 82.2079C45.2986 81.6849 43.4078 81.1799 41.5243 80.6929C38.9077 80.0148 37.0315 79.4666 35.892 79.0445C31.2213 77.3168 27.1204 74.864 23.5929 71.679C21.9634 70.2073 20.4573 68.2487 19.071 65.8067C18.8133 65.2584 18.7081 64.6669 18.7625 64.0356C20.8928 67.0331 23.3207 69.4282 26.0461 71.2281C29.5918 73.5618 33.2754 75.2175 37.1004 76.1878C38.9331 76.6531 40.7586 77.1364 42.5804 77.6378C44.4204 78.1428 45.8139 78.7884 46.7684 79.5748C47.3962 80.0942 47.5378 80.9707 47.1966 82.2079Z" fill="#003074"/>
<path d="M79.9497 65.1034C80.4178 66.117 80.7626 66.8204 80.9804 67.2171C82.4102 69.8322 84.6494 71.1632 87.6942 71.2029C87.8793 71.2029 88.01 71.3905 87.9446 71.5636C86.5474 75.4231 84.4498 78.8246 81.6518 81.7715C79.5795 83.9538 76.4077 82.1827 76.0738 79.5929C75.4387 74.7017 77.1807 69.2407 79.6848 65.089C79.7465 64.9844 79.8989 64.9952 79.9497 65.1034Z" fill="#03336C"/>
<path d="M214.681 66.5464C213.69 67.9207 212.289 68.8946 210.479 69.4681C210.62 68.8946 211.008 68.5411 211.643 68.4112C211.731 68.3932 211.818 68.3571 211.894 68.3102L214.681 66.5464Z" fill="#03336C"/>
<path d="M238.55 73.306L236.8 81.6852C236.133 83.9432 235.977 86.194 233.429 87.1643C229.92 88.4989 226.788 88.0228 224.037 85.7359C223.518 85.3067 222.952 84.7981 222.346 84.2137C222.269 84.1416 222.146 84.1344 222.059 84.1957L218.049 87.0813C214.971 88.9101 211.411 90.1942 207.778 90.0752C204.472 89.9669 201.09 88.0696 198.745 85.8513C198.666 85.7756 198.539 85.7828 198.466 85.8621C197.014 87.4673 195.421 88.9281 193.683 90.2483C190.515 92.4883 187.005 93.913 183.22 92.2574C179.537 90.6451 177.838 88.1201 175.926 84.863C175.849 84.7295 175.653 84.7223 175.566 84.8558C174.517 86.4573 173.367 87.9903 172.115 89.4584C171.168 90.5657 170.068 91.5288 168.82 92.3512C167.756 92.9464 167.002 93.3287 166.562 93.5055C162.559 95.0962 159.159 93.8157 156.049 91.1897C155.878 91.0455 155.624 91.0563 155.465 91.2114C152.474 94.0718 148.028 96.5029 143.866 95.8897C141.344 95.4965 139.29 93.9022 137.388 92.3296C137.235 92.1997 137.003 92.225 136.88 92.3837C134.757 95.0853 131.012 98.0287 127.477 97.8447C125.14 97.7221 122.831 96.8672 121.148 95.1899C120.679 94.7246 120.226 94.2593 119.79 93.8012L118.847 92.5676C117.78 91.4062 117.152 90.1401 116.967 88.7658C117.798 89.6495 118.589 90.4683 119.337 91.2222C123.191 95.107 128.613 94.6994 132.485 91.1032C133.331 90.3132 134.278 89.3393 135.327 88.1779C135.406 88.0877 135.548 88.0805 135.639 88.1634C137.845 90.1942 140.175 91.9292 143.071 92.16C147.02 92.4774 151.139 89.5449 153.879 86.8829C153.973 86.7928 154.125 86.7928 154.216 86.8865C154.764 87.4528 156.336 88.7911 157.232 89.2708C159.529 90.4936 161.946 90.6451 164.487 89.7181C166.965 88.8127 168.758 87.1787 170.645 85.0722C171.981 83.5825 173.011 82.1613 173.741 80.8087C173.795 80.7041 173.944 80.7005 174.006 80.8015C175.069 82.5761 177.105 85.505 179.384 87.2905C181.551 88.9894 184.008 89.5125 186.748 88.856C190.983 87.8388 193.962 84.863 196.72 81.7826C196.811 81.678 196.974 81.6744 197.072 81.7718C200.23 84.863 204.113 86.9406 208.707 86.1255C211.408 85.6457 213.955 84.6682 216.354 83.1893C216.938 82.8286 218.346 81.8475 220.586 80.246C220.684 80.1774 220.821 80.1883 220.909 80.2712C223.086 82.3525 224.813 84.1488 228.076 84.0586C230.137 84.0045 233.175 83.3625 233.872 81.0828C234.34 79.5498 234.634 78.4749 234.757 77.8581C235.418 74.5396 236.165 71.1743 237.004 67.7656L238.55 73.306Z" fill="#003074"/>
<path d="M44.9829 91.1642C42.4679 93.3464 39.6263 95.0021 36.4581 96.1238C32.6729 97.4657 30.2595 98.5478 27.1203 98.8472C24.0029 99.1429 20.7149 99.2043 17.2564 99.0311C14.9228 98.7534 12.6075 98.5153 10.3066 97.6929C9.89651 97.5486 9.64247 97.2853 9.53722 96.8994C9.48642 96.7154 9.67513 96.5603 9.84933 96.6361C11.1014 97.1843 12.3788 97.4007 13.6889 97.2853C15.6668 97.8011 17.6338 98.0753 19.5972 98.1005C29.8712 98.2376 39.8259 95.067 47.0297 87.5066C50.1507 84.2314 52.6657 79.1708 49.6463 74.9181C48.6664 73.5366 47.3745 72.3318 45.7704 71.311C46.9499 71.3651 48.0205 71.7836 48.9858 72.5735C49.8314 73.2624 50.4701 74.2183 50.902 75.4339C52.0996 78.792 51.7258 81.7859 50.0818 84.7436C49.7189 85.3965 48.8878 86.4714 47.5886 87.9755C46.6886 89.0144 45.8212 90.0785 44.9829 91.1642Z" fill="white"/>
<path d="M94.194 74.334C93.4101 77.8148 91.9041 80.8627 89.6758 83.485L93.138 76.0581C93.1634 76.004 93.2142 75.9644 93.2722 75.9572C93.3122 75.9499 93.3484 75.9355 93.3775 75.9175C93.4029 75.8994 93.4319 75.8598 93.4573 75.8057L94.194 74.334Z" fill="white"/>
<path d="M305.841 81.2703C301.344 74.4314 292.068 74.4783 284.937 75.7191C284.65 75.7696 284.411 75.968 284.313 76.2421C284.219 76.5054 284.117 76.8553 284.008 77.2918C283.271 80.2712 282.6 82.7817 282.001 84.8233C280.876 88.6611 279.308 92.3187 277.301 95.7995C276.779 92.8778 278.082 90.4899 279.221 87.7377C279.958 85.9631 280.277 84.3111 280.746 82.7961C281.341 80.8735 282.233 78.7923 283.427 76.5523C284.349 74.8209 285.347 74.5071 287.314 74.4458C290.838 74.334 293.026 74.3015 293.883 74.3484C297.008 74.5179 299.156 75.5784 303.09 77.3134C304.897 78.1106 305.816 79.4271 305.841 81.2703Z" fill="white"/>
<path d="M251.048 109.073C247.586 105.516 246.886 100.542 248.399 95.9326C250.304 90.1361 255.24 84.6101 260.215 80.8047C263.115 78.5863 266.323 76.5952 269.84 74.8242C270.751 75.019 271.651 74.9901 272.536 74.7376C272.583 74.7232 272.638 74.752 272.652 74.7989V74.8025C272.67 74.853 272.641 74.9108 272.591 74.9252C269.658 75.8594 267.586 76.4546 265.597 78.0886C263.982 79.416 262.226 80.7217 260.331 82.0094C258.637 83.1601 257.236 84.3035 256.129 85.4361C252.674 88.9674 249.861 93.3608 248.722 98.223C248.196 100.467 248.406 102.692 249.353 104.903C249.411 105.044 249.731 105.556 250.315 106.436C250.83 107.219 251.074 108.096 251.048 109.073Z" fill="white"/>
<path d="M275.273 78.731C274.558 81.09 273.636 84.0802 272.515 87.7017C271.959 89.4907 270.852 91.2293 270.352 92.6938C269.996 93.7362 269.328 94.6669 268.7 95.8391C268.642 95.9437 268.573 96.0411 268.493 96.1277C267.902 96.7625 267.183 97.4984 266.476 98.0142C264.4 99.5291 262.524 101.268 260.847 103.234C259.863 104.388 257.755 104.586 256.372 103.886C254.601 102.992 254.1 100.489 254.3 98.6598C254.434 97.4334 254.833 95.8139 255.494 93.8012C255.926 92.4846 256.314 91.5937 256.659 91.1356C258.666 88.4411 261.195 86.6051 263.975 83.9972C264.331 83.6618 264.803 83.2975 265.394 82.8971C265.623 82.742 267.804 81.4182 271.941 78.9293C273.03 78.2765 274.093 78.1214 275.135 78.464C275.247 78.5001 275.305 78.6191 275.273 78.731ZM265.63 83.7159L264.393 84.6573C260.731 87.4275 256.728 91.3195 255.396 95.9437C254.641 98.5588 254.093 102.768 257.719 103.212C258.775 103.338 259.722 103.046 260.56 102.328C262.172 100.947 263.932 99.273 265.841 97.3036C268.268 94.8039 270.098 91.8714 271.328 88.5096C272.5 85.3174 273.494 82.0639 274.318 78.7454C274.34 78.6588 274.249 78.5867 274.173 78.6263C271.201 80.0872 268.356 81.7861 265.63 83.7159Z" fill="white"/>
<path d="M252.398 83.5064L250.058 86.4281C248.777 86.0926 247.387 85.4073 245.891 84.3793C243.507 82.7381 241.939 80.6532 241.195 78.1211C241.722 78.5684 242.233 79.0084 242.723 79.4377C245.75 82.0997 249.804 83.6326 253.658 81.7895C253.752 81.7426 253.843 81.8616 253.774 81.9409L252.398 83.5064Z" fill="#003074"/>
<path d="M264.392 84.6574C264.062 85.3968 263.739 85.9126 263.423 86.2084C261.17 88.3185 259.787 89.6603 259.272 90.2339C257.305 92.4233 256.441 94.8328 255.548 97.7834C255.33 98.5084 255.316 99.4246 255.501 100.525C255.77 102.108 256.96 102.83 258.473 102.743C259.239 102.7 259.809 102.491 260.179 102.115C261.279 100.997 262.32 100.027 263.3 99.201C263.485 99.0459 264.552 97.989 266.508 96.0232C266.886 95.6408 267.216 95.2152 267.484 94.7535C269.764 90.8435 271.603 87.222 272.496 82.8322C272.522 82.7096 272.493 82.5833 272.413 82.4859C271.799 81.7176 270.889 81.4868 269.687 81.797C269.676 81.8006 269.666 81.8042 269.658 81.8078L265.63 83.7159C268.355 81.7862 271.201 80.0873 274.173 78.6264C274.249 78.5867 274.34 78.6589 274.318 78.7454C273.494 82.0639 272.5 85.3175 271.328 88.5097C270.097 91.8715 268.268 94.804 265.84 97.3037C263.932 99.2731 262.171 100.947 260.56 102.328C259.722 103.046 258.775 103.338 257.718 103.212C254.093 102.768 254.641 98.5589 255.396 95.9438C256.728 91.3196 260.731 87.4276 264.392 84.6574Z" fill="#002960"/>
<path d="M318.797 83.8023C318.938 85.5553 318.615 87.229 317.828 88.8197C317.214 90.0569 316.554 91.1751 315.846 92.1779C315.088 93.0291 314.536 93.5413 314.191 93.7108C312.402 94.609 310.823 94.3745 309.455 93.0003C304.672 88.2065 299.315 86.9982 292.569 87.312C292.453 87.3156 292.351 87.3949 292.315 87.5067L290.558 93.5161C288.766 98.6489 286.817 103.583 283.953 108.031C279.617 114.848 274.089 120.096 266.254 122.56C259.479 123.959 254.623 121.023 250.46 116.006C249.324 114.639 248.671 113.257 248.5 111.861C250.87 114.992 253.596 117.175 256.677 118.412C262.934 120.926 271.589 116.154 275.879 111.818C277.849 109.831 279.693 107.544 281.409 104.958C285.587 98.6814 288.047 91.3915 290.225 83.8564C290.268 83.7121 290.391 83.6075 290.54 83.5895C296.376 82.9222 302.15 83.8853 306.512 88.0694C307.619 89.1335 308.225 89.9595 309.477 90.3563C311.012 90.8397 312.373 90.2986 313.56 88.7295C314.997 86.8358 316.057 84.852 316.743 82.7779C316.88 82.3631 316.924 81.5335 316.87 80.2891C317.889 81.2089 318.532 82.3811 318.797 83.8023Z" fill="#003074"/>
<path d="M264.393 84.6569L265.63 83.7155L269.659 81.8074C269.666 81.8038 269.677 81.8002 269.688 81.7966C270.889 81.4864 271.8 81.7172 272.413 82.4855C272.493 82.5829 272.522 82.7091 272.497 82.8318C271.604 87.2215 269.764 90.843 267.485 94.753C267.216 95.2147 266.886 95.6404 266.509 96.0227C264.552 97.9886 263.485 99.0454 263.3 99.2005C262.321 100.027 261.279 100.997 260.179 102.115C259.809 102.49 259.239 102.699 258.474 102.743C256.96 102.829 255.77 102.108 255.501 100.524C255.316 99.4242 255.331 98.508 255.549 97.783C256.441 94.8324 257.305 92.4229 259.272 90.2334C259.787 89.6599 261.17 88.3181 263.424 86.208C263.74 85.9122 264.063 85.3964 264.393 84.6569Z" fill="#03336C"/>
<path d="M7.59578 97.2024C8.30346 99.3955 11.7947 100.149 13.7725 100.481C19.1836 101.39 24.3623 101.477 29.3088 100.741C34.1392 100.02 38.9516 97.9094 43.2593 95.3809C45.1428 94.2735 46.736 92.9641 48.4816 91.5394C50.1002 90.2192 51.6426 88.4986 53.1124 86.3813C53.3918 85.9773 53.7148 85.6779 54.085 85.4795C54.3209 85.3533 54.6112 85.4723 54.6874 85.7248C55.0721 87.0089 54.4515 89 53.9725 90.0497C52.5753 93.0904 50.4377 94.8326 47.6687 96.9607C44.6202 99.2981 41.7061 101.203 38.0443 102.624C29.1093 106.087 18.6936 108.723 9.3559 104.893C7.19657 104.005 4.37675 101.967 5.0808 99.2007C5.33846 98.1907 6.10421 97.4874 7.3744 97.087C7.46513 97.0581 7.56675 97.1086 7.59578 97.2024Z" fill="white"/>
<path d="M113.341 83.4956C112.662 86.356 111.751 89.3102 110.605 92.3509C110.216 93.3861 109.603 94.0678 108.768 94.4033C106.05 95.489 103.611 94.4069 101.528 92.6936C100.316 91.698 98.9406 90.5402 97.4019 89.2236C97.2712 89.1154 97.0789 89.1334 96.97 89.2633C93.9361 92.9208 91.1199 95.7884 86.7504 97.5703C81.2087 99.8355 74.9848 98.0067 70.8657 93.9452C74.4041 93.5484 77.2675 93.1048 79.4631 92.6106C81.0055 92.2607 84.3515 91.3445 89.5085 89.8584C90.6807 89.523 93.4207 88.9458 97.7285 88.1343C97.8337 88.1126 97.9462 88.1487 98.0261 88.2244C98.0333 88.2316 98.0406 88.2425 98.0515 88.2569C98.0842 88.2966 98.1313 88.3218 98.1821 88.329C101.448 88.816 104.508 88.3579 107.364 86.9475C109.255 86.0169 111.247 84.8663 113.341 83.4956Z" fill="#002960"/>
<path d="M17.2566 99.031C20.7151 99.2042 24.0031 99.1429 27.1205 98.8471C30.2597 98.5477 32.6731 97.4656 36.4582 96.1238C39.6264 95.002 42.4681 93.3463 44.983 91.1641L50.4921 86.5687C50.6844 86.41 50.9529 86.63 50.8368 86.8501C50.267 87.925 49.4723 88.9169 48.4561 89.8295C43.985 93.8441 38.3454 97.1914 32.3973 98.5838C29.6754 99.2222 27.8427 99.619 26.8991 99.7741C24.7289 100.131 22.2756 100.254 19.5357 100.142C17.7792 100.066 16.2549 99.8174 14.963 99.3917C14.9049 99.3737 14.9158 99.2871 14.9775 99.2799L17.2566 99.031Z" fill="white"/>
<path d="M67.3275 95.0347C64.5186 100.701 60.6463 104.59 55.4784 108.529C50.913 112.009 45.8104 114.451 40.4176 116.37C38.4615 117.066 36.5925 117.579 34.8178 117.911C27.6539 119.242 19.7824 119.617 12.9378 116.983C9.35952 115.606 6.25662 113.207 3.62551 109.784L2.03596 107.428C0.145184 103.958 -0.206843 100.33 0.979882 96.546C2.00692 96.867 3.05937 96.8707 4.13721 96.5568C2.79444 99.4749 2.52952 102.808 4.38762 105.56C7.10583 109.593 12.5531 110.848 17.242 111.09C31.9436 111.854 46.3911 105.852 56.5164 95.2295L67.3275 95.0347Z" fill="#002960"/>
</g>
<defs>
<clipPath id="clip0_3_2185">
<rect width="319" height="123" fill="white"/>
</clipPath>
</defs>
</svg>
