<svg width="879" height="341" viewBox="0 0 879 341" fill="none" xmlns="http://www.w3.org/2000/svg">
<g clip-path="url(#clip0_3_1885)">
<path d="M689.94 1.32024C698.43 3.27024 704.86 8.51022 707.19 16.8702C708.09 20.0902 709.19 22.5402 710.5 24.2302C712.51 26.8202 715.49 31.0002 719.42 36.7702C720.27 38.0102 720.93 39.0902 721.4 40.0002C721.65 47.3302 721.22 53.2602 720.11 57.7902C716.53 72.4102 710.55 85.9002 702.17 98.2502C701.88 98.6802 701.95 99.2502 702.32 99.6002L704.84 101.98L697.95 103.58C697.71 103.63 697.57 103.89 697.65 104.12C699.27 108.8 702.48 111.08 703.53 115.44C704.5 119.45 704.59 123.96 703.81 128.97C701.49 143.88 694.78 158.24 689.36 170.51C688.39 172.69 688.23 175.43 688.87 178.72C688.93 179.03 689.21 179.26 689.53 179.24C690.73 179.17 691.87 178.74 692.95 177.94C702.58 170.74 712.06 159.14 717.37 146.66C718.76 143.4 720.11 139.37 721.44 134.57C723.52 127.04 726.27 120.21 726.77 112.85C727.06 108.62 725.38 105.88 721.75 104.65C723.7 98.5202 727.7 94.4802 733.75 92.5502C738.84 91.3602 743.76 91.6402 748.51 93.4002C751.3 94.4402 757.11 96.7702 760.28 99.2102C761.56 100.2 762.74 101.75 763.83 103.86C765.78 107.64 768.09 111.36 770.77 115.01C762.66 117.38 756.67 122.25 752.79 129.64C752.7 129.82 752.63 130.01 752.58 130.2L745.43 158.51C745.36 158.8 745.33 159.1 745.35 159.4C745.76 165.27 745.87 170.61 752.5 172.72C752.87 172.84 753.28 172.76 753.59 172.51C759.82 167.35 764.14 162.43 766.54 157.76C770.79 149.47 773.07 140.66 775.7 131.71C777.47 125.68 777.41 118.77 781.42 113.46L779.48 121.84C777.35 129.73 775.35 137.61 773.49 145.46C772.5 149.62 770.56 154.02 767.67 158.66C763.77 164.91 751.22 181.84 742.43 175.91C740.46 174.58 740.07 172.15 740.67 169.93C745.74 151.28 750.78 131.23 755.8 109.76C755.99 108.99 755.66 108.18 754.98 107.76C749.06 104.01 740.21 101.08 733.34 102.7C732.13 102.99 731.14 103.86 730.7 105.03C730.03 106.84 729.28 109.23 728.45 112.2C726.9 117.75 725.28 123.92 723.61 130.7C721.5 139.26 719.59 145.33 717.89 148.91C712.9 159.4 706.22 168.3 697.86 175.62C695.6 177.61 687.71 184.58 686.95 178.15C686.69 175.93 687.03 173.37 687.97 170.47C688.88 167.66 689.76 165.07 690.63 162.68C695.9 153.72 699.28 144.06 700.79 133.7L702.11 124.07C702.13 123.96 702.16 123.85 702.2 123.74C702.95 121.83 703.18 119.84 702.87 117.77C701.84 110.92 698.18 106.7 691.91 105.11L689.6 104.37C684.69 100.3 677.42 101.62 672.44 104.83C672.39 104.86 672.38 104.92 672.41 104.97L672.58 105.21C672.65 105.32 672.8 105.36 672.92 105.3C673.83 104.85 674.61 104.89 675.25 105.42C668.06 110.1 663.22 116.86 656.94 122.17C654.47 124.26 651.93 127.03 649.32 130.48C649.27 130.55 649.17 130.56 649.1 130.51C649.03 130.46 649.02 130.37 649.07 130.3C654.61 122.93 659.14 115.74 664.94 108.8C672.49 99.7702 679.44 90.5202 685.78 81.0502C696.16 65.5502 703.63 47.3802 704.14 28.5102C704.26 23.7402 701.4 21.2202 697.92 16.8002C694.43 12.3802 692.2 11.0202 686.75 10.4802C673.48 9.15024 661.94 17.4002 654.91 27.9502C650.63 34.3802 647.45 39.9402 645.37 44.6302C640.24 56.2202 635.78 68.5002 631.98 81.4902C630.68 78.1002 628.74 75.2702 626.16 72.9902C629.93 58.7102 635.33 45.0902 642.35 32.1202C648.31 21.1202 656.07 11.0402 667.04 4.73024L675.61 1.55022C680.48 0.380215 685.26 0.300234 689.94 1.32024ZM734.961 100.231C734.95 100.58 736.64 100.9 738.73 100.93C740.82 100.96 742.51 100.7 742.52 100.35C742.53 100 740.84 99.6802 738.75 99.6503C736.66 99.6202 734.97 99.8802 734.961 100.231Z" fill="#002960"/>
<path d="M675.25 105.42C679.75 103.82 684.53 103.47 689.6 104.37L691.91 105.11L696.51 110.39C696.57 110.46 696.62 110.54 696.67 110.63L699.73 117.01L700.89 122.96C700.34 129.41 699.32 134.87 697.82 139.34C694.37 149.61 691.98 157.39 690.63 162.68C689.76 165.07 688.88 167.66 687.97 170.47C687.03 173.37 686.69 175.93 686.95 178.15C687.71 184.58 695.6 177.61 697.86 175.62C706.22 168.3 712.9 159.4 717.89 148.91C719.59 145.33 721.5 139.26 723.61 130.7C725.28 123.92 726.9 117.75 728.45 112.2C729.28 109.23 730.03 106.84 730.7 105.03C731.14 103.86 732.13 102.99 733.34 102.7C740.21 101.08 749.06 104.01 754.98 107.76C755.66 108.18 755.99 108.99 755.8 109.76C750.78 131.23 745.74 151.28 740.67 169.93C740.07 172.15 740.46 174.58 742.43 175.91C751.22 181.84 763.77 164.91 767.67 158.66C770.56 154.02 772.5 149.62 773.49 145.46C775.35 137.61 777.35 129.73 779.48 121.84C780.72 124.98 780.77 128.48 779.62 132.33C777.71 138.77 774.98 149.24 771.54 156.83C769.41 161.53 767.97 164.42 767.22 165.5C763.13 171.34 753.29 180.66 745.16 180.59C744.94 180.59 744.72 180.53 744.53 180.42L737.68 176.47C737.19 176.19 736.85 175.69 736.77 175.12C734.98 162.98 733.44 153.54 732.17 146.81C731.31 142.28 729.87 137.69 725.97 135.03C725.75 134.89 725.46 134.99 725.37 135.23C721.9 144.96 719.92 150.51 719.45 151.89C718.34 155.1 715.97 159.37 712.32 164.71C711.15 166.42 710.08 168.3 709.13 170.34C708.1 172.54 705.84 175.14 702.35 178.13C700.76 179.49 699.08 179.12 697.47 180.38C694.13 183 689.44 186.78 685.27 182.89C684.3 181.99 683.64 180.72 683.28 179.08C681.91 172.7 682.75 169.08 685.69 162.93C687.72 158.69 688.55 154.06 688.2 149.04C687.86 144.25 684.82 141.97 680.41 144.11C680.05 144.29 679.82 144.66 679.82 145.06V145.64C679.82 146.02 679.46 146.31 679.09 146.21C676.6 145.58 674.78 146.69 673.63 149.53C672.5 152.32 671.5 155.34 670.63 158.6C669.09 164.36 667.48 167.66 665.87 172.35C663.16 180.24 665.72 188.71 668.11 196.55C668.68 198.39 669.99 199.82 672.04 200.83C673.95 201.77 681.7 203.19 683.72 202.84C687.56 202.19 691.29 200.12 694.91 196.64C699.48 192.25 703.46 187.94 706.86 183.7C707.84 182.48 709.49 181.41 711.82 180.49C705.16 191.03 698.02 199.83 686.72 205.47C683.47 207.09 680.08 207.64 676.55 207.13C660.44 204.06 661.03 179.54 664.34 168.24C665.71 163.57 668.01 156.41 671.24 146.77C672.62 142.67 675.32 131.4 667.99 132.88C664 133.69 660.35 135.75 657.06 139.06C651.01 145.15 645.96 152.03 641.91 159.68C639.7 164.23 637.9 169.84 636.5 176.49C633.21 192.08 630.81 203.2 629.3 209.87C629.21 210.31 628.83 210.64 628.38 210.67C622.23 211.06 611.26 211.65 607.21 206.09C615.85 203.91 622.72 200.57 626.29 191.77C629.98 182.69 632.45 173.54 633.72 164.33C635.9 148.48 623.31 155.68 616.61 159.09C616.3 159.25 616.04 159.51 615.88 159.82C611.12 169 604.74 177.4 596.73 185.01C590.96 190.51 584.26 194.46 576.65 196.87C572.17 198.29 567.4 198.25 562.35 196.76C561.88 196.62 561.55 196.19 561.55 195.69V195.25C561.55 194.86 561.93 194.59 562.3 194.71C566.32 196.06 570.21 196.06 573.97 194.71L579.97 192.59C584.96 191 588.82 188.3 591.55 184.49C600.36 177.68 609.93 167.73 613.97 157.19C615.05 154.37 616.45 149.47 618.16 142.48C623.12 122.21 627.73 101.88 631.98 81.4899C635.78 68.4999 640.24 56.2199 645.37 44.6299C647.45 39.9399 650.63 34.3799 654.91 27.9499C661.94 17.3999 673.48 9.14988 686.75 10.4799C692.2 11.0199 694.43 12.3799 697.92 16.7999C701.4 21.2199 704.26 23.7399 704.14 28.5099C703.63 47.3799 696.16 65.5499 685.78 81.0499C679.44 90.5199 672.49 99.7699 664.94 108.8C659.14 115.74 654.61 122.93 649.07 130.3C649.02 130.37 649.03 130.46 649.1 130.51C649.17 130.56 649.27 130.55 649.32 130.48C651.93 127.03 654.47 124.26 656.94 122.17C663.22 116.86 668.06 110.1 675.25 105.42ZM652.96 103.98C665.96 86.3299 677.57 67.3199 682.34 46.0799C683.29 41.8699 684.39 33.9499 682.08 29.4699C681.6 28.5399 681.12 27.9699 680.65 27.7499C679.57 27.2599 678.27 27.5299 677.37 28.4299C676.06 29.7499 674.95 31.3699 674.02 33.2999C663.5 55.2799 657.85 78.9699 652.74 103.88C652.71 104.01 652.88 104.09 652.96 103.98Z" fill="white"/>
<path d="M652.96 103.98C652.88 104.09 652.71 104.01 652.74 103.88C657.85 78.9698 663.5 55.2798 674.02 33.2998C674.95 31.3698 676.06 29.7498 677.37 28.4298C678.27 27.5298 679.57 27.2598 680.65 27.7498C681.12 27.9698 681.6 28.5398 682.08 29.4698C684.39 33.9498 683.29 41.8698 682.34 46.0798C677.57 67.3198 665.96 86.3298 652.96 103.98Z" fill="#03336C"/>
<path d="M189.86 29.68C201.32 30.92 214.03 35.47 220.38 45.62C221.49 47.39 223.62 51.16 226.76 56.92C222.27 58.87 218.65 60.42 217.41 65.51C219.06 54.87 211.94 45.9 202.38 42.34C189.61 37.58 174.35 38.64 162.31 41.32L161.15 40.78C160.96 40.69 160.98 40.4 161.19 40.35C166.57 38.94 172.52 37.97 179.05 37.42C179.86 37.35 180.75 37.18 181.73 36.92C181.86 36.88 181.94 36.76 181.92 36.62C181.9 36.49 181.79 36.39 181.65 36.39C175.46 36.42 169.62 37.01 164.14 38.15C160.03 39 154.4 40.63 147.23 43.02C132.45 47.96 118.56 54.39 105.74 62.99C99.9102 66.9 96.8302 68.98 96.4902 69.22C92.1202 72.28 87.5502 76.1 82.7602 80.69C82.5502 80.9 82.4402 81.19 82.4802 81.48L82.6302 82.79C72.9802 91.31 65.3802 99.59 59.8502 107.62C51.7002 119.47 46.7502 138.8 49.3302 152.69C52.1402 167.75 66.8602 178.15 81.0802 183.19C90.8502 186.65 100.91 189.7 111.26 192.33C113.77 192.97 116.28 193.77 118.78 194.74C121.34 195.73 123.79 196.71 126.12 197.7C130.54 200.53 134.1 203.87 136.8 207.7C145.12 219.49 138.19 233.52 129.59 242.6C109.74 263.56 82.3102 272.35 54.0002 271.97C48.5902 271.9 43.1702 271.14 37.7202 269.71L22.0002 263.73C21.3302 263.47 20.7302 263.07 20.2502 262.54C18.7402 260.89 15.8302 258.1 14.0602 261.29C13.3902 262.5 12.5002 264.63 11.4002 267.69C8.43019 268.56 5.5302 268.55 2.7002 267.66C3.7102 263.87 5.2802 260.33 7.4102 257.02C9.9302 253.09 12.9302 251.46 17.3402 251.84C18.7102 251.95 20.9802 252.91 24.1302 254.72C32.2902 259.37 41.0702 261.91 50.4702 262.32C72.3402 263.04 94.2102 257.67 112.35 245.32C116.09 242.74 120.15 239.47 124.52 235.52C127.31 233 129.16 230.46 130.05 227.91C130.99 224.48 130.6 222.05 128.87 220.61C126.24 218.43 122.4 216.64 117.33 215.24C112.31 213.85 107.28 212.51 102.23 211.22C91.6902 208.53 81.5402 203.94 71.7702 197.47C64.2602 192.48 57.5702 185.84 51.7002 177.53C50.2502 175.39 48.8602 173.03 47.5502 170.45C41.7502 159.05 40.6102 146.89 41.8602 134.3C42.5302 129.39 43.5802 125.21 44.9902 121.74C46.7202 117.51 49.0102 112.87 51.8602 107.84C58.0502 98.3 64.7102 89.97 71.8602 82.86C77.2102 77.53 82.7902 72.41 88.6002 67.49C98.8202 58.96 109.87 51.64 121.74 45.55C133.25 39.66 145.24 35.12 157.71 31.94C168.27 29.25 178.99 28.5 189.86 29.68Z" fill="#03336C"/>
<path d="M162.31 41.3201C157.78 42.5601 153.31 43.9201 148.89 45.4101C133.29 50.6601 118.7 57.9001 105.11 67.1401C97.5698 72.2701 90.0798 77.4801 82.6298 82.7901L82.4798 81.4801C82.4398 81.1901 82.5498 80.9001 82.7598 80.6901C87.5498 76.1001 92.1198 72.2801 96.4898 69.2201C96.8298 68.9801 99.9098 66.9001 105.74 62.9901C118.56 54.3901 132.45 47.9601 147.23 43.0201C154.4 40.6301 160.03 39.0001 164.14 38.1501C169.62 37.0101 175.46 36.4201 181.65 36.3901C181.79 36.3901 181.9 36.4901 181.92 36.6201C181.94 36.7601 181.86 36.8801 181.73 36.9201C180.75 37.1801 179.86 37.3501 179.05 37.4201C172.52 37.9701 166.57 38.9401 161.19 40.3501C160.98 40.4001 160.96 40.6901 161.15 40.7801L162.31 41.3201Z" fill="#002960"/>
<path d="M217.41 65.5101C213.81 81.4801 206.32 98.1701 194.97 109.96C189.98 115.15 184.77 119.86 179.34 124.07C174.75 127.63 171.25 129.9 168.86 130.87C167.53 131.41 165.86 131.89 163.87 132.31C163.58 132.37 163.3 132.2 163.23 131.92C161.68 125.95 159.48 120.36 156.63 115.15C156.47 114.85 156.51 114.48 156.73 114.22C157 113.89 157.43 113.62 158.02 113.41C173.37 107.06 183.96 94.2801 190.45 79.2001C191.77 76.1301 192.55 73.4101 192.78 71.0401C193.92 59.5201 173.77 63.4801 168 64.8101C143.45 70.4401 123.04 82.94 106.79 102.3C101.11 109.07 95.42 117.94 94.11 126.53C92.59 140.12 97.52 150.39 108.9 157.35C123.11 166.04 141.58 169.46 156.8 177.94C171.41 186.09 177.85 198.75 176.11 215.93C175.68 220.1 174.76 225.05 173.35 230.79C170.24 243.36 164.37 254.43 155.73 264.01C127.83 293.46 88.02 310.1 47.51 307.98C34.59 307.31 19.58 303.83 12.09 292.65C6.97002 285.02 7.70003 275.78 11.4 267.69C12.5 264.63 13.39 262.5 14.06 261.29C15.83 258.1 18.74 260.89 20.25 262.54C20.73 263.07 21.33 263.47 22 263.73L37.72 269.71C34.11 270.03 30.59 269.43 27.14 267.91C26.66 267.7 26.14 268.13 26.28 268.64C26.57 269.71 27.27 270.44 28.4 270.84C34.74 273.12 41.12 273.78 47.55 274.55L41.27 275.24C41.1 275.26 41.07 275.5 41.23 275.55C44.79 276.73 48.99 277.42 53.83 277.63C61.38 277.94 68.14 277.6 74.12 276.61C76.72 276.18 81.77 275.08 89.27 273.31C105.66 269.45 121.2 260.17 133.52 249.04C136.32 246.51 138.51 243.76 140.08 240.78C140.4 240.17 139.66 239.56 139.13 240L123.95 252.74C126.26 249.73 128.65 246.78 131.13 243.9C134.71 239.73 137 236.75 138 234.94C142.53 226.74 143.56 218.44 140.26 209.13C139.07 205.76 137.31 203.11 134.98 201.2C132.32 199.01 129.37 197.85 126.12 197.7C123.79 196.71 121.34 195.73 118.78 194.74C116.28 193.77 113.77 192.97 111.26 192.33C100.91 189.7 90.85 186.65 81.08 183.19C66.86 178.15 52.14 167.75 49.33 152.69C46.75 138.8 51.7 119.47 59.85 107.62C65.38 99.5901 72.98 91.3101 82.63 82.7901C90.08 77.4801 97.57 72.2701 105.11 67.1401C118.7 57.9001 133.29 50.6601 148.89 45.4101C153.31 43.9201 157.78 42.5601 162.31 41.3201C174.35 38.6401 189.61 37.5801 202.38 42.3401C211.94 45.9001 219.06 54.8701 217.41 65.5101ZM20.32 269.16C16.82 270.27 14.71 272.22 14 275.02C12.06 282.69 19.83 288.34 25.78 290.8C51.51 301.42 80.21 294.11 104.83 284.51C114.92 280.57 122.95 275.29 131.35 268.81C138.98 262.91 144.87 258.08 148.72 249.65C150.04 246.74 151.75 241.22 150.69 237.66C150.48 236.96 149.68 236.63 149.03 236.98C148.01 237.53 147.12 238.36 146.35 239.48C142.3 245.35 138.05 250.12 133.59 253.78C128.78 257.73 124.39 261.36 119.2 264.43C107.33 271.44 94.07 277.29 80.76 279.29C67.13 281.33 52.86 281.09 37.95 278.57C32.5 277.65 22.88 275.56 20.93 269.48C20.85 269.22 20.57 269.08 20.32 269.16Z" fill="white"/>
<path d="M726.4 65.98C724.08 76.98 720.24 87.46 714.88 97.42C713.05 100.82 711.22 104.26 709.39 107.73L704.84 101.98L702.32 99.6C701.95 99.25 701.88 98.68 702.17 98.25C710.55 85.9 716.53 72.41 720.11 57.79C721.22 53.26 721.65 47.33 721.4 40C725.65 44.71 727.74 50.04 727.69 55.99C727.66 59.05 727.23 62.38 726.4 65.98Z" fill="#003074"/>
<path d="M226.76 56.9199L233.51 67.1499L234.55 70.5199C235.7 77.7099 235.34 84.6099 233.47 91.2299C226.57 115.65 208.35 136.48 187.23 149.48C183.08 152.04 178.66 152.89 173.99 152.02C170.31 151.34 168.5 149.82 166.34 146.7C166.11 146.37 165.3 145.02 163.91 142.63C162.58 140.36 160.89 138.36 158.82 136.64L156.32 132.2C155.67 130.95 154.29 128.08 152.16 123.6C150.37 119.82 149.89 115.82 150.74 111.59L153.13 108.41L158.02 113.41C157.43 113.62 157 113.89 156.73 114.22C156.51 114.48 156.47 114.85 156.63 115.15C159.48 120.36 161.68 125.95 163.23 131.92C163.3 132.2 163.58 132.37 163.87 132.31C165.86 131.89 167.53 131.41 168.86 130.87C171.25 129.9 174.75 127.63 179.34 124.07C184.77 119.86 189.98 115.15 194.97 109.96C206.32 98.1699 213.81 81.4799 217.41 65.5099C218.65 60.4199 222.27 58.8699 226.76 56.9199Z" fill="#002960"/>
<path d="M158.02 113.41L153.13 108.41C157.48 104.81 161.78 101.18 166.03 97.53C168.23 95.64 170.16 93.44 171.83 90.94C176.45 87.28 175.38 81.6899 172.68 77.3599C170.13 73.2499 165.15 70.53 168 64.81C173.77 63.48 193.92 59.52 192.78 71.04C192.55 73.41 191.77 76.13 190.45 79.2C183.96 94.28 173.37 107.06 158.02 113.41Z" fill="#03336C"/>
<path d="M168 64.8101C165.15 70.5301 170.13 73.25 172.68 77.36C175.38 81.69 176.45 87.2801 171.83 90.9401C148.33 95.8301 128.06 112.52 116.11 132.85C114.14 136.19 112.95 138.32 112.53 139.25C111.43 141.7 110.96 144.07 111.13 146.36C110.04 143.35 108.81 140.96 107.44 139.19C104.81 135.82 102.24 132.41 99.7204 128.96C98.5804 127.41 96.7104 126.6 94.1104 126.53C95.4204 117.94 101.11 109.07 106.79 102.3C123.04 82.94 143.45 70.4401 168 64.8101Z" fill="#002960"/>
<path d="M214.6 143.19C213.46 144.62 212.18 145.54 210.76 145.95C209.5 146.75 207.33 148.6 204.25 151.5C201.62 153.98 197.12 156.87 190.75 160.16C182.65 164.37 176.07 163.49 171.01 157.5C166.6 152.29 162.54 145.33 158.82 136.64C160.89 138.36 162.58 140.36 163.91 142.63C165.3 145.02 166.11 146.37 166.34 146.7C168.5 149.82 170.31 151.34 173.99 152.02C178.66 152.89 183.08 152.04 187.23 149.48C208.35 136.48 226.57 115.65 233.47 91.23C235.34 84.61 235.7 77.71 234.55 70.52C240.81 78.11 242.7 86.94 240.22 97C237.48 108.09 234.06 116.87 227.37 126.09C223.97 130.79 220.99 136.19 216.95 140.14C216.04 141.03 215.26 142.04 214.6 143.19Z" fill="#003074"/>
<path d="M626.16 72.9902C628.74 75.2702 630.68 78.1002 631.98 81.4902C627.73 101.88 623.12 122.21 618.16 142.48C616.45 149.47 615.05 154.37 613.97 157.19C609.93 167.73 600.36 177.68 591.55 184.49L583.87 189.38C583.66 189.51 583.42 189.61 583.18 189.66C581.43 190.02 580.36 191 579.97 192.59L573.97 194.71C571.55 194.74 569.18 194.48 566.87 193.93C564.75 193.43 562.89 192.43 561.3 190.94C558.94 187.05 557.99 182.9 558.46 178.49C560.31 161.13 566.49 143.57 578.71 131.2C580.05 129.83 582.2 127.79 583.87 129.5C584.98 130.62 585.41 132.05 585.18 133.8C584.52 138.73 574.92 157.26 585.93 158.65C587.78 158.88 590.01 158.03 592.62 156.08C601.95 149.14 613.58 134.09 605.13 122.34C599.83 114.97 590.98 109.91 581.71 111.73C571.38 113.76 564.42 119.86 556.68 127.01C544.66 138.1 538.85 151.08 534.52 166.65C531.83 176.35 526.28 185.28 519.82 192.84C517.63 195.41 515.02 197.65 511.99 199.55C511.19 200.06 510.2 199.98 509.61 199.36C505.12 194.65 510.91 178.74 513.44 171.76C516.44 163.48 519.9 157.42 523.82 149.07C524.53 147.57 525.12 145.81 525.59 143.78C525.71 143.25 525.69 142.69 525.52 142.17C524.27 138.44 522.17 135.69 519.22 133.9C512.23 126.43 501.73 129.26 493.53 132.65C493.25 132.76 493.08 133.04 493.09 133.33C493.11 133.9 492.98 134.23 492.71 134.32C492.38 134.15 492.11 133.93 491.88 133.67C491.7 133.46 491.62 133.15 491.64 132.73C491.72 130.93 491.77 129.53 491.8 128.54C492 121.35 488.71 115.95 481.92 112.34C479.96 111.3 477.89 111.19 475.72 112.02C470.07 114.16 468.66 124.69 469.29 129.56C469.91 134.38 473.37 138.58 476.75 141.6C476.95 141.79 477.04 142.07 476.98 142.34C472.77 160.11 465.85 176.65 456.22 191.96C454.84 194.15 452.65 196.74 449.66 199.73C449.48 199.91 449.25 200.03 449 200.06L443.41 200.78C443.06 200.82 442.93 201.26 443.19 201.49C444.62 202.78 446.59 201.56 448.07 200.71C448.38 200.53 448.71 200.92 448.49 201.2C447.64 202.26 446.71 203.02 445.7 203.49C445.01 203.81 444.2 203.72 443.6 203.26C439.65 200.23 439.89 196.98 440.89 192.05C442.31 185.01 444 178.13 445.96 171.41L457.19 141.97C457.58 140.95 457.44 139.8 456.82 138.9C453.29 133.73 448.35 131.03 442 130.8C441.15 130.59 440.34 130.5 439.59 130.54C439.35 130.55 439.14 130.72 439.08 130.95L437.32 137.9C437.26 138.13 436.96 138.16 436.85 137.96C430.02 125.23 419.43 123.33 406.7 130.21C399.23 134.25 392.74 139.51 387.23 146C377.86 157.02 372.3 166.76 368.58 178.73C367.13 183.4 366.29 186.01 366.06 186.54C362.53 194.77 357.85 202.34 352 209.25C350.45 211.08 348.79 212.59 347.01 213.8C345.6 214.75 344.36 214.89 343.29 214.21C340.84 212.66 341.37 208.83 342.11 206.66C345.73 196.14 350.16 183.97 355.4 170.14C356.83 166.38 357.83 162.48 358.42 158.45C359.1 153.78 358.04 149.64 355.23 146.03C349.71 138.95 339.99 137.97 332.13 141.4C327.82 143.29 323.98 146.1 320.59 149.85C315.09 155.96 311.89 159.53 310.98 160.57C310.79 160.79 310.43 160.59 310.52 160.31L312.31 154.53C312.38 154.31 312.41 154.07 312.38 153.83C311.5 146.2 302.06 143.97 295.51 143.61C292.72 143.46 290.13 143.15 289.7 145.94C288.91 151.03 286.83 155.45 283.44 159.19C277.95 165.23 272.18 170.54 266.11 175.13C265.77 175.38 265.29 175.16 265.28 174.74C265.12 170.36 264.81 165.06 263.32 161.22C258.78 149.48 248.19 140.55 234.8 143.39C223.64 145.75 213.55 153.91 207.05 163.04C200 172.95 193.95 184.08 188.92 196.45C186.78 201.72 185.42 208.71 184.84 217.44C184.27 226 187.26 233.22 192.09 240.15C204.54 257.98 229.9 251.28 242.24 237.74C243.8 236.02 245.42 233.92 247.1 231.45C253.24 224.18 257.39 215.73 259.55 206.08C261.47 198.81 265.02 193.95 271.01 188.83C273.76 186.48 276.44 183.96 279.05 181.29C279.31 181.02 279.77 181.27 279.68 181.64C276.48 194.53 272.97 208.3 269.15 222.93C268.06 227.1 267.47 230.19 267.36 232.18C267.35 232.5 267.4 232.81 267.51 233.11C267.84 234.01 268.44 234.79 269.29 235.46C274.14 239.29 281.19 242.2 287.46 241.12C287.84 241.06 288.19 240.85 288.44 240.55C289.09 239.73 289.57 238.74 289.87 237.58C293.38 224.12 296.6 212.3 299.54 202.11C303.66 187.88 313.73 175.67 324.79 166.3C326.62 164.75 328.51 163.53 330.45 162.65C331.61 162.13 332.91 163.02 332.84 164.29C332.78 165.44 332.5 166.77 332 168.28C329.47 176.03 326.93 183.78 324.38 191.51C319.51 198.54 317.75 208.31 317.82 216.62C317.86 222.41 320.91 227.15 314.91 231.25L313.69 227.49C313.63 227.32 313.39 227.33 313.35 227.5L312.31 231.48C306.54 235.28 301.05 238.47 295.84 241.05C287.97 244.96 279.54 246.23 270.54 244.88C270.4 244.86 270.27 244.79 270.18 244.68C270.15 244.64 270.13 244.61 270.11 244.59C269.89 244.38 269.58 244.28 269.29 244.34C257.42 246.59 249.87 248.19 246.64 249.12C232.43 253.24 223.21 255.78 218.96 256.75C212.91 258.12 205.02 259.35 195.27 260.45L189.8 255.09C189.64 254.94 189.39 254.99 189.3 255.19L185.52 263.47L155.73 264.01C164.37 254.43 170.24 243.36 173.35 230.79C174.76 225.05 175.68 220.1 176.11 215.93C177.85 198.75 171.41 186.09 156.8 177.94C141.58 169.46 123.11 166.04 108.9 157.35C97.52 150.39 92.59 140.12 94.11 126.53C96.71 126.6 98.58 127.41 99.72 128.96C102.24 132.41 104.81 135.82 107.44 139.19C108.81 140.96 110.04 143.35 111.13 146.36L118.21 150.66C122.18 152.47 126.39 154.27 130.84 156.08C136.85 158.53 142.89 161.01 148.96 163.54C161.78 168.88 174.41 177.57 181.88 189.27C182.06 189.55 182.48 189.54 182.63 189.24L190.83 173.23C195.57 164.29 201.47 155.67 208.61 148.51C209.34 147.78 210.06 146.93 210.76 145.95C212.18 145.54 213.46 144.62 214.6 143.19C226.13 134.94 241.63 131.26 254.54 137.27C262.34 140.91 268.97 149.95 272.61 157.58C272.71 157.8 273.01 157.84 273.17 157.65C276.96 153.2 279.53 149.94 281.92 144.51C288.7 129.13 304.36 133.08 314.27 141.99C314.51 142.21 314.88 142.2 315.11 141.97C325.19 131.95 341.42 125.81 354.47 134.33C361.2 139.13 366.41 145.32 370.08 152.89C370.2 153.15 370.55 153.19 370.73 152.98C374.38 148.84 377.88 144.69 381.25 140.53C382.2 139.36 384.78 136.8 389 132.84L396.56 127.07C410.02 118.7 424.05 113.68 438.21 124.08C438.55 124.33 438.99 124.41 439.41 124.3C443.08 123.33 445.99 122.06 449.79 123.16C453.34 124.19 456.75 126.5 460.03 130.1C460.19 130.28 460.5 130.17 460.51 129.93C460.91 123.68 462.64 117.89 465.7 112.54C469.57 106.11 475.27 103.47 482.82 104.63C493.15 106.22 496.22 114.05 501.41 121.59C501.86 122.25 502.67 122.56 503.44 122.38C516.35 119.43 523.37 122.99 530.81 133.12L534.7 139.64C534.95 140.05 535.54 140.06 535.8 139.65C545.06 124.51 559.32 110.95 575.17 104.17C583.15 100.76 591.09 100.97 598.99 104.8C604.75 108.21 609.65 112.56 613.7 117.83C614.02 118.25 614.68 118.11 614.81 117.6L625.07 76.7303L626.16 72.9902ZM577.06 181.82L583.13 177.68C583.59 177.36 583.56 176.68 583.08 176.4L579.27 174.2C578.95 174.01 578.53 174.18 578.44 174.54L576.67 181.55C576.61 181.78 576.87 181.95 577.06 181.82Z" fill="#03336C"/>
<path d="M802.06 87.8499C809.29 89.0799 814.3 92.8398 817.11 99.1298C819.43 104.32 821.71 108.28 823.96 111.02C824.8 112.05 825.72 113.95 826.71 116.74C826.74 120.93 825.97 125.72 824.38 131.13C819.63 147.31 814.84 163.61 810.02 180.04C809.91 180.42 810.19 180.81 810.59 180.82L819.4 181.08L831.42 182.39C832.23 187.3 830.25 190.29 825.46 191.36C813.52 189.76 801.57 189.95 789.6 191.93C789.13 192.01 788.74 191.58 788.87 191.12L792.61 177.26L810.51 105.66C810.72 104.82 810.42 103.93 809.74 103.38C805.15 99.6799 800.15 97.4298 794.73 96.6298C789.28 95.8198 785.8 97.9499 784.29 103.01C783 107.33 782.04 110.81 781.42 113.46C777.41 118.77 777.47 125.68 775.7 131.71C773.07 140.66 770.79 149.47 766.54 157.76C764.14 162.43 759.82 167.35 753.59 172.51C753.28 172.76 752.87 172.84 752.5 172.72C745.87 170.61 745.76 165.27 745.35 159.4C745.33 159.1 745.36 158.8 745.43 158.51L752.58 130.2C752.63 130.01 752.7 129.82 752.79 129.64C756.67 122.25 762.66 117.38 770.77 115.01C772.2 111.44 773.61 107.84 775 104.22C776.99 99.0098 778.68 95.5598 780.06 93.8698C785.38 87.3598 793.99 86.1599 802.06 87.8499Z" fill="#03336C"/>
<path d="M171.83 90.9399C170.16 93.4399 168.23 95.6399 166.03 97.5299C161.78 101.18 157.48 104.81 153.13 108.41L150.74 111.59C140.83 118.16 132.56 126.31 125.93 136.03C123 140.55 120.43 145.43 118.21 150.66L111.13 146.36C110.96 144.07 111.43 141.7 112.53 139.25C112.95 138.32 114.14 136.19 116.11 132.85C128.06 112.52 148.33 95.8299 171.83 90.9399Z" fill="#003074"/>
<path d="M792.61 177.26C789.34 182.31 787.12 187.75 785.95 193.59C785.82 194.22 786.27 194.83 786.92 194.9C792.82 195.51 801.81 193.27 809.02 193.55C815.38 193.79 822.17 194.24 829.39 194.89C835.28 195.42 840.43 196.8 844.82 199.02C845.11 199.17 845.37 199.35 845.6 199.57C851.34 204.93 853.39 208.98 851.68 216.72C851.06 219.53 850.57 222.38 850.21 225.26C848.88 229.47 844.61 228.64 842.74 225.31C842.67 220.2 840.14 216.55 835.16 214.34C824.32 209.53 818.4 206.59 809.79 206.12C807.43 205.99 801.4 206.08 791.69 206.39C786.27 206.56 783.52 207.43 780.98 212.23C777.69 218.44 775.23 224.21 773.59 229.54C772.3 233.74 771.42 238.32 769.39 243.24C766.25 250.87 762.66 257.49 764.1 265.59C759.89 273.09 754.45 280.41 747.79 287.54C737.57 298.48 722.88 309.44 707.52 308.75C701.51 308.48 696.26 306.36 691.76 302.39C691.83 299.68 691.16 297.25 689.74 295.08C688.13 292.64 687.25 291.22 687.09 290.83C684.48 284.7 683.9 278.53 685.35 272.31C688.49 258.83 696.24 246.65 705.76 236.86C708.81 233.72 712.67 230.55 717.34 227.36C722.56 223.79 727.4 220.17 731.85 216.49C737.33 211.96 743.04 210.31 751.12 207.72C751.26 207.68 751.34 207.52 751.29 207.38V207.37C751.25 207.24 751.1 207.16 750.97 207.2C748.53 207.9 746.05 207.98 743.54 207.44C747.75 205.21 752.13 203.25 756.66 201.57C759.17 200.64 760.31 199.53 761.08 197.07C762.54 192.46 763.66 188.46 764.44 185.07C764.52 184.74 764.12 184.52 763.88 184.76C762.23 186.44 759.27 189.02 755.01 192.49C748.29 197.99 740.06 200.77 731.22 200.05C721.74 199.27 715.51 191.34 714.68 182.07C714.66 181.85 714.51 180.47 714.23 177.92C714.2 177.63 713.82 177.53 713.65 177.78L711.82 180.49C709.49 181.41 707.84 182.48 706.86 183.7C703.46 187.94 699.48 192.25 694.91 196.64C691.29 200.12 687.56 202.19 683.72 202.84C681.7 203.19 673.95 201.77 672.04 200.83C669.99 199.82 668.68 198.39 668.11 196.55C665.72 188.71 663.16 180.24 665.87 172.35C667.48 167.66 669.09 164.36 670.63 158.6C671.5 155.34 672.5 152.32 673.63 149.53C674.78 146.69 676.6 145.58 679.09 146.21C679.46 146.31 679.82 146.02 679.82 145.64V145.06C679.82 144.66 680.05 144.29 680.41 144.11C684.82 141.97 687.86 144.25 688.2 149.04C688.55 154.06 687.72 158.69 685.69 162.93C682.75 169.08 681.91 172.7 683.28 179.08C683.64 180.72 684.3 181.99 685.27 182.89C689.44 186.78 694.13 183 697.47 180.38C699.08 179.12 700.76 179.49 702.35 178.13C705.84 175.14 708.1 172.54 709.13 170.34C710.08 168.3 711.15 166.42 712.32 164.71C715.97 159.37 718.34 155.1 719.45 151.89C719.92 150.51 721.9 144.96 725.37 135.23C725.46 134.99 725.75 134.89 725.97 135.03C729.87 137.69 731.31 142.28 732.17 146.81C733.44 153.54 734.98 162.98 736.77 175.12C736.85 175.69 737.19 176.19 737.68 176.47L744.53 180.42C744.72 180.53 744.94 180.59 745.16 180.59C753.29 180.66 763.13 171.34 767.22 165.5C767.97 164.42 769.41 161.53 771.54 156.83C774.98 149.24 777.71 138.77 779.62 132.33C780.77 128.48 780.72 124.98 779.48 121.84L781.42 113.46C782.04 110.81 783 107.33 784.29 103.01C785.8 97.9498 789.28 95.8198 794.73 96.6298C800.15 97.4298 805.15 99.6798 809.74 103.38C810.42 103.93 810.72 104.82 810.51 105.66L792.61 177.26ZM758.13 217.53C755.26 216.58 752.33 217.01 749.33 218.82C737.93 225.72 731.92 229.39 731.29 229.82C729.66 230.93 728.36 231.94 727.38 232.87C719.72 240.1 712.75 245.19 707.22 252.66C706.27 253.93 705.2 256.4 704.01 260.05C702.19 265.63 701.09 270.12 700.72 273.52C700.17 278.59 701.55 285.53 706.43 288.01C710.24 289.95 716.05 289.4 718.76 286.2C723.38 280.75 728.55 275.93 734.27 271.73C736.22 270.3 738.2 268.26 739.83 266.5C740.05 266.26 740.24 265.99 740.4 265.7C742.13 262.45 743.97 259.87 744.95 256.98C746.33 252.92 749.38 248.1 750.91 243.14C754 233.1 756.54 224.81 758.51 218.27C758.6 217.96 758.44 217.63 758.13 217.53Z" fill="white"/>
<path d="M738.75 99.65C736.663 99.6173 734.966 99.8772 734.961 100.231C734.955 100.584 736.643 100.897 738.73 100.93C740.818 100.963 742.514 100.703 742.52 100.349C742.525 99.9959 740.838 99.6828 738.75 99.65Z" fill="#002960"/>
<path d="M689.6 104.37C684.53 103.47 679.75 103.82 675.25 105.42C674.61 104.89 673.83 104.85 672.92 105.3C672.8 105.36 672.65 105.32 672.58 105.21L672.41 104.97C672.38 104.92 672.39 104.86 672.44 104.83C677.42 101.62 684.69 100.3 689.6 104.37Z" fill="#002960"/>
<path d="M709.39 107.73L715.56 119.33C715.65 119.5 715.9 119.49 715.97 119.31L721.75 104.65C725.38 105.88 727.06 108.62 726.77 112.85C726.27 120.21 723.52 127.04 721.44 134.57C720.11 139.37 718.76 143.4 717.37 146.66C712.06 159.14 702.58 170.74 692.95 177.94C691.87 178.74 690.73 179.17 689.53 179.24C689.21 179.26 688.93 179.03 688.87 178.72C688.23 175.43 688.39 172.69 689.36 170.51C694.78 158.24 701.49 143.88 703.81 128.97C704.59 123.96 704.5 119.45 703.53 115.44C702.48 111.08 699.27 108.8 697.65 104.12C697.57 103.89 697.71 103.63 697.95 103.58L704.84 101.98L709.39 107.73Z" fill="#03336C"/>
<path d="M702.87 117.77L702.78 119.81C702.76 120.21 702.2 120.3 702.07 119.92L700.52 115.5C700.38 115.08 699.77 115.12 699.68 115.55C699.62 115.86 699.64 116.34 699.73 117.01L696.67 110.63C696.62 110.54 696.57 110.46 696.51 110.39L691.91 105.11C698.18 106.7 701.84 110.92 702.87 117.77Z" fill="#002960"/>
<path d="M561.3 190.94C556.15 189.76 553.83 186.51 554.32 181.2C554.48 179.55 555.07 177.59 556.09 175.34C558.34 170.38 557.6 166.13 557.35 159.04C557.28 157.07 558 153.99 559.49 149.78C562.55 141.12 570.46 131.95 575.37 124.59C575.64 124.18 575.23 123.66 574.77 123.83C570.01 125.63 566.74 128.13 564.03 133.02C562.69 135.44 559.98 139.67 555.91 145.71C554.18 148.27 552.68 151.17 550.81 154.31C550.56 154.73 550.04 154.9 549.59 154.72C549.14 154.53 548.89 154.04 549.01 153.57L550.43 147.96C550.58 147.36 549.91 146.89 549.4 147.24L546.76 149.04C546.34 149.33 545.8 148.88 546.01 148.41L549.03 141.65C549.12 141.45 549.05 141.21 548.86 141.1C548.67 140.98 548.43 141.03 548.29 141.2C545.2 145.19 542.55 149.88 540.32 155.29C538.91 158.73 537.76 163.45 536.97 166.45C533.78 178.66 527.07 189.94 518.38 198.87C516.03 201.28 513.59 202.8 511.05 203.45C510.74 203.53 510.41 203.47 510.15 203.28C505.58 199.99 499.61 193.3 503.44 187.61C505.3 184.83 506.72 182.8 506.32 179.81C505.2 171.34 508.03 165.52 512.74 157.5C514 155.35 514.76 153.25 515.01 151.19C515.15 150.05 513.89 149.27 512.94 149.92L508.97 152.63C508.3 153.09 507.37 152.78 507.1 152.01L505.89 148.55C505.65 147.87 504.82 147.62 504.25 148.06C503.74 148.45 503.45 148.75 503.38 148.95C501.93 152.88 499.76 157.51 496.85 162.84C493.23 169.46 490.83 176.83 489.02 182.75C486.71 190.3 484.39 203.99 488.16 211.33C492.7 220.16 501.28 218.1 509.55 219.11C509.87 219.15 510.19 219.05 510.44 218.85C513.99 215.97 517.76 212.47 521.76 208.34C525.22 204.77 527.27 201.08 529.67 197.23C533.02 191.86 537.16 194.76 539.57 198.74C547.05 211.09 557.97 215.27 572.34 211.26C576.59 210.07 578.95 207.15 581.41 205.25C586.08 201.65 593.24 201.48 597.23 196.69C601.45 191.64 605.36 187.11 608.96 183.12C609.61 182.4 610.8 182.78 610.93 183.74C611.61 189.1 611.16 192.53 609.01 197.99C608.12 200.24 607.25 202.52 606.42 204.81C605.71 202.66 605.54 200.37 605.91 197.96C606.3 195.41 606.74 192.83 607.21 190.2C607.12 190.29 605.81 191.64 603.28 194.27C597.2 200.58 590.53 205.88 583.27 210.16C571.92 216.87 556.67 220.44 545.04 211.99C539.52 207.97 536.14 202.69 534.9 196.14C534.8 195.63 534.12 195.52 533.86 195.97C529.96 202.66 525.39 208.72 520.16 214.17C514.34 220.22 506.6 226.3 497.3 224.87C475.33 221.49 484.54 187.32 488.92 174.17C490.03 170.84 491.96 166.5 494.7 161.17C496.51 157.64 498.58 153.36 500.89 148.31C501.03 148.01 500.75 147.69 500.43 147.78L496.96 148.79C494.8 149.24 492.67 149.22 490.57 148.75C489.19 148.44 488.18 148.54 487.53 149.04C486.7 149.69 486.19 150.67 485.99 151.96C483.51 158 481.18 164.06 479.01 170.13C475.61 179.62 473.3 185.68 472.09 188.29C468.36 196.33 464.29 203.82 459.88 210.76C453.22 221.23 444.27 228.82 431.02 227.81C427.87 227.57 424.89 226.11 422.09 223.44C418.12 219.66 417.17 213.43 417.05 207.93C417.04 207.6 416.62 207.48 416.45 207.76C414.34 211.23 411.86 215.15 409.01 219.51C404.49 226.41 396.28 232.41 388.34 233.28C376.09 234.63 367.36 225.97 365.08 214.46C365.03 214.24 364.74 214.18 364.61 214.36C360.08 220.51 356.4 225.32 353.56 228.81C349.31 234.01 342.9 239.3 335.53 238.73C329.27 238.25 324.92 234.99 322.24 229.14C320.25 224.81 319.31 220.59 319.41 216.5C319.61 208.39 321.27 200.06 324.38 191.51C326.93 183.78 329.47 176.03 332 168.28C332.5 166.77 332.78 165.44 332.84 164.29C332.91 163.02 331.61 162.13 330.45 162.65C328.51 163.53 326.62 164.75 324.79 166.3C313.73 175.67 303.66 187.88 299.54 202.11C296.6 212.3 293.38 224.12 289.87 237.58C289.57 238.74 289.09 239.73 288.44 240.55C288.19 240.85 287.84 241.06 287.46 241.12C281.19 242.2 274.14 239.29 269.29 235.46C268.44 234.79 267.84 234.01 267.51 233.11C267.4 232.81 267.35 232.5 267.36 232.18C267.47 230.19 268.06 227.1 269.15 222.93C272.97 208.3 276.48 194.53 279.68 181.64C279.77 181.27 279.31 181.02 279.05 181.29C276.44 183.96 273.76 186.48 271.01 188.83C265.02 193.95 261.47 198.81 259.55 206.08L257.52 210.16C257.45 210.31 257.37 210.42 257.3 210.47C257.22 210.52 257.12 210.56 257.01 210.58C256.85 210.6 256.71 210.71 256.64 210.86L247.1 231.45C245.42 233.92 243.8 236.02 242.24 237.74C229.9 251.28 204.54 257.98 192.09 240.15C187.26 233.22 184.27 226 184.84 217.44C185.42 208.71 186.78 201.72 188.92 196.45C193.95 184.08 200 172.95 207.05 163.04C213.55 153.91 223.64 145.75 234.8 143.39C248.19 140.55 258.78 149.48 263.32 161.22C264.81 165.06 265.12 170.36 265.28 174.74C265.29 175.16 265.77 175.38 266.11 175.13C272.18 170.54 277.95 165.23 283.44 159.19C286.83 155.45 288.91 151.03 289.7 145.94C290.13 143.15 292.72 143.46 295.51 143.61C302.06 143.97 311.5 146.2 312.38 153.83C312.41 154.07 312.38 154.31 312.31 154.53L310.52 160.31C310.43 160.59 310.79 160.79 310.98 160.57C311.89 159.53 315.09 155.96 320.59 149.85C323.98 146.1 327.82 143.29 332.13 141.4C339.99 137.97 349.71 138.95 355.23 146.03C358.04 149.64 359.1 153.78 358.42 158.45C357.83 162.48 356.83 166.38 355.4 170.14C350.16 183.97 345.73 196.14 342.11 206.66C341.37 208.83 340.84 212.66 343.29 214.21C344.36 214.89 345.6 214.75 347.01 213.8C348.79 212.59 350.45 211.08 352 209.25C357.85 202.34 362.53 194.77 366.06 186.54C366.29 186.01 367.13 183.4 368.58 178.73C372.3 166.76 377.86 157.02 387.23 146C392.74 139.51 399.23 134.25 406.7 130.21C419.43 123.33 430.02 125.23 436.85 137.96C436.96 138.16 437.26 138.13 437.32 137.9L439.08 130.95C439.14 130.72 439.35 130.55 439.59 130.54C440.34 130.5 441.15 130.59 442 130.8C442.59 132.12 443.5 132.88 444.73 133.07C448.3 133.65 451.12 135.35 453.18 138.16C453.8 139.01 453.98 140.1 453.66 141.09C450.49 150.92 447.92 161.03 445.96 171.41C444 178.13 442.31 185.01 440.89 192.05C439.89 196.98 439.65 200.23 443.6 203.26C444.2 203.72 445.01 203.81 445.7 203.49C446.71 203.02 447.64 202.26 448.49 201.2C448.71 200.92 448.38 200.53 448.07 200.71C446.59 201.56 444.62 202.78 443.19 201.49C442.93 201.26 443.06 200.82 443.41 200.78L449 200.06C449.25 200.03 449.48 199.91 449.66 199.73C452.65 196.74 454.84 194.15 456.22 191.96C465.85 176.65 472.77 160.11 476.98 142.34C477.04 142.07 476.95 141.79 476.75 141.6C473.37 138.58 469.91 134.38 469.29 129.56C468.66 124.69 470.07 114.16 475.72 112.02C477.89 111.19 479.96 111.3 481.92 112.34C488.71 115.95 492 121.35 491.8 128.54C491.77 129.53 491.72 130.93 491.64 132.73C491.62 133.15 491.7 133.46 491.88 133.67C492.11 133.93 492.38 134.15 492.71 134.32C494.22 135.79 495.71 136.27 497.2 135.75C500.37 134.65 503.6 133.26 506.81 132.96C510.72 132.59 514.86 132.91 519.22 133.9C522.17 135.69 524.27 138.44 525.52 142.17C525.69 142.69 525.71 143.25 525.59 143.78C525.12 145.81 524.53 147.57 523.82 149.07C519.9 157.42 516.44 163.48 513.44 171.76C510.91 178.74 505.12 194.65 509.61 199.36C510.2 199.98 511.19 200.06 511.99 199.55C515.02 197.65 517.63 195.41 519.82 192.84C526.28 185.28 531.83 176.35 534.52 166.65C538.85 151.08 544.66 138.1 556.68 127.01C564.42 119.86 571.38 113.76 581.71 111.73C590.98 109.91 599.83 114.97 605.13 122.34C613.58 134.09 601.95 149.14 592.62 156.08C590.01 158.03 587.78 158.88 585.93 158.65C574.92 157.26 584.52 138.73 585.18 133.8C585.41 132.05 584.98 130.62 583.87 129.5C582.2 127.79 580.05 129.83 578.71 131.2C566.49 143.57 560.31 161.13 558.46 178.49C557.99 182.9 558.94 187.05 561.3 190.94ZM421.94 173.34C420.24 177.83 419.26 180.62 417.01 184.88C413.12 192.25 410.87 196.46 410.28 197.5C407.45 202.42 403.9 206.13 399.64 208.62C397.69 209.75 394.59 210.26 390.34 210.15C389.97 210.14 389.62 209.97 389.38 209.7C383.38 202.81 380.19 197.91 383.12 189.03C385.72 181.12 389.19 173.38 393.52 165.81C396.05 161.38 399.61 157.94 402.35 153.91C406.04 148.47 409.93 143.6 414 139.31C414.04 139.27 414.07 139.22 414.09 139.17L414.27 138.71C414.45 138.25 414 137.8 413.54 137.96C398.38 143.36 391.07 156.4 381.77 170.05C381.48 170.47 380.84 170.4 380.65 169.93C380.6 169.82 380.67 169.35 380.84 168.5C382.29 161.42 385.15 155.57 389.42 150.96C391.9 148.29 397.18 143.41 405.26 136.32C405.34 136.26 405.39 136.16 405.39 136.05V135.5C405.39 135.12 404.97 134.9 404.66 135.11C399.65 138.47 395.13 142.41 391.09 146.94C387.35 151.13 382.49 156.74 379.41 161.71C378.77 162.75 376.94 166.59 373.91 173.24C372.84 175.6 372.07 177.94 371.58 180.25C370.59 184.97 369.64 189.52 367.3 192.43C364.29 196.18 362.1 199.8 360.72 203.29C360.59 203.61 360.43 203.9 360.22 204.17C357.04 208.27 352.99 212.57 348.07 217.08C345.18 219.72 342.6 219.6 340.31 216.71C340.11 216.46 340 216.15 339.97 215.84C339.39 208.39 339.11 204.1 339.13 202.96C339.26 193.05 339.3 186.59 339.24 183.57C339.04 174.16 334.09 177.78 330.25 181.93C330.04 182.16 329.87 182.43 329.75 182.72C328.46 186.09 327.3 188.74 326.63 191.74C326.1 194.15 325.26 197.62 324.1 202.13C321.84 210.98 322.3 224.31 330.13 230.25C336.8 235.31 344.91 233.03 350.32 227.22C353.12 224.22 356.29 220.34 359.84 215.58C364.65 209.12 369.3 215.33 373.46 219.05C377.3 222.48 381.99 224.69 387.53 225.66C392.39 226.5 396.24 225.39 399.72 222.21C401.31 220.77 404.7 217.11 409.91 211.22C412.86 207.88 416.56 204.79 419.95 209.53C422.35 212.88 424.65 215.54 426.85 217.52C432.38 222.5 440.81 224.15 447.14 219.04C455.79 212.07 461.97 203.25 465.67 192.58C466.36 190.61 466.84 187.35 467.11 182.8C467.13 182.48 467.2 182.17 467.33 181.88C469.52 176.69 471.94 171.59 473.87 164.52C473.94 164.28 473.76 164.04 473.51 164.04H473.16C472.96 164.04 472.78 164.16 472.7 164.35C469.71 171.46 467.84 177.5 463.94 184.04C459.16 192.05 456.22 196.81 455.11 198.33C454.94 198.56 454.75 198.78 454.54 198.97C451.27 202.06 448.67 205.15 444.3 207.75C443.89 208 443.37 208 442.96 207.76L440.12 206.12C439.77 205.92 439.52 205.58 439.43 205.18C437.67 197.46 436.18 191.19 434.97 186.37C433.22 179.43 431.1 172.85 422.56 172.91C422.28 172.91 422.04 173.08 421.94 173.34ZM423.71 143.46C416.1 145.07 409.73 149.38 404.58 156.39C398.12 165.19 393.3 174.68 390.12 184.87C387.98 191.72 384.3 205.09 394.11 206.62C396.52 206.99 398.43 206.55 399.83 205.3C404.54 201.06 408.48 196.08 411.63 190.37C417.46 179.78 421.99 168.15 425.21 155.49C425.91 152.72 427.62 144.97 424.79 143.6C424.45 143.44 424.07 143.39 423.71 143.46ZM247.85 183.27C249.11 177.02 248.53 166.42 243.95 161.31C243.2 160.47 241.96 160.29 240.99 160.87C235.05 164.44 232 176.61 237.5 181.34C239.91 183.42 243.03 184.35 246.86 184.13C247.35 184.1 247.76 183.75 247.85 183.27ZM219.57 180.45C212.67 191.96 207.87 207.1 209.62 220.66C210.54 227.84 219.28 232.75 224.99 226.7C232.7 218.53 238.48 209.1 242.33 198.4C242.51 197.92 242.15 197.4 241.64 197.4C233.25 197.29 227.08 193.6 223.14 186.35C222.54 185.25 221.59 183.3 220.3 180.49C220.16 180.19 219.74 180.16 219.57 180.45Z" fill="white"/>
<path d="M702.87 117.77C703.18 119.84 702.95 121.83 702.2 123.74C702.16 123.85 702.13 123.96 702.11 124.07L700.79 133.7L700.89 122.96L699.73 117.01C699.64 116.34 699.62 115.86 699.68 115.55C699.77 115.12 700.38 115.08 700.52 115.5L702.07 119.92C702.2 120.3 702.76 120.21 702.78 119.81L702.87 117.77Z" fill="#03336C"/>
<path d="M832.57 132.66L819.4 181.08L810.59 180.82C810.19 180.81 809.91 180.42 810.02 180.04C814.84 163.61 819.63 147.31 824.38 131.13C825.97 125.72 826.74 120.93 826.71 116.74C831.27 121.23 833.22 126.54 832.57 132.66Z" fill="#003074"/>
<path d="M700.79 133.7C699.28 144.06 695.9 153.72 690.63 162.68C691.98 157.39 694.37 149.61 697.82 139.34C699.32 134.87 700.34 129.41 700.89 122.96L700.79 133.7Z" fill="#F4F4EE"/>
<path d="M561.3 190.94C562.89 192.43 564.75 193.43 566.87 193.93C569.18 194.48 571.55 194.74 573.97 194.71C570.21 196.06 566.32 196.06 562.3 194.71C561.93 194.59 561.55 194.86 561.55 195.25V195.69C561.55 196.19 561.88 196.62 562.35 196.76C567.4 198.25 572.17 198.29 576.65 196.87C584.26 194.46 590.96 190.51 596.73 185.01C604.74 177.4 611.12 169 615.88 159.82C616.04 159.51 616.3 159.25 616.61 159.09C623.31 155.68 635.9 148.48 633.72 164.33C632.45 173.54 629.98 182.69 626.29 191.77C622.72 200.57 615.85 203.91 607.21 206.09L606.42 204.81C607.25 202.52 608.12 200.24 609.01 197.99C611.16 192.53 611.61 189.1 610.93 183.74C610.8 182.78 609.61 182.4 608.96 183.12C605.36 187.11 601.45 191.64 597.23 196.69C593.24 201.48 586.08 201.65 581.41 205.25C578.95 207.15 576.59 210.07 572.34 211.26C557.97 215.27 547.05 211.09 539.57 198.74C537.16 194.76 533.02 191.86 529.67 197.23C527.27 201.08 525.22 204.77 521.76 208.34C517.76 212.47 513.99 215.97 510.44 218.85C510.19 219.05 509.87 219.15 509.55 219.11C501.28 218.1 492.7 220.16 488.16 211.33C484.39 203.99 486.71 190.3 489.02 182.75C490.83 176.83 493.23 169.46 496.85 162.84C499.76 157.51 501.93 152.88 503.38 148.95C503.45 148.75 503.74 148.45 504.25 148.06C504.82 147.62 505.65 147.87 505.89 148.55L507.1 152.01C507.37 152.78 508.3 153.09 508.97 152.63L512.94 149.92C513.89 149.27 515.15 150.05 515.01 151.19C514.76 153.25 514 155.35 512.74 157.5C508.03 165.52 505.2 171.34 506.32 179.81C506.72 182.8 505.3 184.83 503.44 187.61C499.61 193.3 505.58 199.99 510.15 203.28C510.41 203.47 510.74 203.53 511.05 203.45C513.59 202.8 516.03 201.28 518.38 198.87C527.07 189.94 533.78 178.66 536.97 166.45C537.76 163.45 538.91 158.73 540.32 155.29C542.55 149.88 545.2 145.19 548.29 141.2C548.43 141.03 548.67 140.98 548.86 141.1C549.05 141.21 549.12 141.45 549.03 141.65L546.01 148.41C545.8 148.88 546.34 149.33 546.76 149.04L549.4 147.24C549.91 146.89 550.58 147.36 550.43 147.96L549.01 153.57C548.89 154.04 549.14 154.53 549.59 154.72C550.04 154.9 550.56 154.73 550.81 154.31C552.68 151.17 554.18 148.27 555.91 145.71C559.98 139.67 562.69 135.44 564.03 133.02C566.74 128.13 570.01 125.63 574.77 123.83C575.23 123.66 575.64 124.18 575.37 124.59C570.46 131.95 562.55 141.12 559.49 149.78C558 153.99 557.28 157.07 557.35 159.04C557.6 166.13 558.34 170.38 556.09 175.34C555.07 177.59 554.48 179.55 554.32 181.2C553.83 186.51 556.15 189.76 561.3 190.94Z" fill="white"/>
<path d="M519.22 133.9C514.86 132.91 510.72 132.59 506.81 132.96C503.6 133.26 500.37 134.65 497.2 135.75C495.71 136.27 494.22 135.79 492.71 134.32C492.98 134.23 493.11 133.9 493.09 133.33C493.08 133.04 493.25 132.76 493.53 132.65C501.73 129.26 512.23 126.43 519.22 133.9Z" fill="white"/>
<path d="M445.96 171.41C447.92 161.03 450.49 150.92 453.66 141.09C453.98 140.1 453.8 139.01 453.18 138.16C451.12 135.35 448.3 133.65 444.73 133.07C443.5 132.88 442.59 132.12 442 130.8C448.35 131.03 453.29 133.73 456.82 138.9C457.44 139.8 457.58 140.95 457.19 141.97L445.96 171.41Z" fill="white"/>
<path d="M676.55 207.13C680.58 209.17 685.4 207.53 689.28 205.54C694.98 202.62 699.01 198.71 703.57 194.39C706.85 191.27 709.5 188.23 711.53 185.27C711.83 184.83 712.5 184.89 712.72 185.38C716.21 193.36 721.65 200.22 730.83 201.23C735.64 201.76 740.28 201.26 744.75 199.73C748.6 198.42 752.81 195.33 755.99 193.61C756.91 193.12 758.1 192.97 759.57 193.18C759.83 193.22 760 193.47 759.94 193.73L758.92 197.74C758.66 198.81 757.91 199.7 756.9 200.15C747.89 204.16 740.22 207.82 733.88 211.14C731.31 212.49 728.34 214.36 724.99 216.77C721 219.63 718.12 221.66 716.35 222.87C712.98 225.17 711.19 227.05 708.05 229.31C706.19 230.65 704.36 233.58 702.1 233.86C699.72 234.16 697.51 233.38 695.48 231.51L699.27 227.17C699.46 226.95 699.21 226.62 698.95 226.75C688.33 231.86 677.16 227.61 668.82 220.23C667.47 219.04 666.06 217.82 664.61 216.58L657.32 203.23L653.06 187.87C647.15 189.83 641.32 191.26 635.56 192.16C635.3 192.2 635.07 191.99 635.1 191.73C635.87 182.6 638.69 174.48 641.49 164.36C641.73 163.49 641.87 161.93 641.91 159.68C645.96 152.03 651.01 145.15 657.06 139.06C660.35 135.75 664 133.69 667.99 132.88C675.32 131.4 672.62 142.67 671.24 146.77C668.01 156.41 665.71 163.57 664.34 168.24C661.03 179.54 660.44 204.06 676.55 207.13Z" fill="#03336C"/>
<path d="M422.56 172.91C431.1 172.85 433.22 179.43 434.97 186.37C436.18 191.19 437.67 197.46 439.43 205.18C439.52 205.58 439.77 205.92 440.12 206.12L442.96 207.76C443.37 208 443.89 208 444.3 207.75C448.67 205.15 451.27 202.06 454.54 198.97C454.75 198.78 454.94 198.56 455.11 198.33C456.22 196.81 459.16 192.05 463.94 184.04C467.84 177.5 469.71 171.46 472.7 164.35C472.78 164.16 472.96 164.04 473.16 164.04H473.51C473.76 164.04 473.94 164.28 473.87 164.52C471.94 171.59 469.52 176.69 467.33 181.88C467.2 182.17 467.13 182.48 467.11 182.8C466.84 187.35 466.36 190.61 465.67 192.58C461.97 203.25 455.79 212.07 447.14 219.04C440.81 224.15 432.38 222.5 426.85 217.52C424.65 215.54 422.35 212.88 419.95 209.53C416.56 204.79 412.86 207.88 409.91 211.22C404.7 217.11 401.31 220.77 399.72 222.21C396.24 225.39 392.39 226.5 387.53 225.66C381.99 224.69 377.3 222.48 373.46 219.05C369.3 215.33 364.65 209.12 359.84 215.58C356.29 220.34 353.12 224.22 350.32 227.22C344.91 233.03 336.8 235.31 330.13 230.25C322.3 224.31 321.84 210.98 324.1 202.13C325.26 197.62 326.1 194.15 326.63 191.74C327.3 188.74 328.46 186.09 329.75 182.72C329.87 182.43 330.04 182.16 330.25 181.93C334.09 177.78 339.04 174.16 339.24 183.57C339.3 186.59 339.26 193.05 339.13 202.96C339.11 204.1 339.39 208.39 339.97 215.84C340 216.15 340.11 216.46 340.31 216.71C342.6 219.6 345.18 219.72 348.07 217.08C352.99 212.57 357.04 208.27 360.22 204.17C360.43 203.9 360.59 203.61 360.72 203.29C362.1 199.8 364.29 196.18 367.3 192.43C369.64 189.52 370.59 184.97 371.58 180.25C372.07 177.94 372.84 175.6 373.91 173.24C376.94 166.59 378.77 162.75 379.41 161.71C382.49 156.74 387.35 151.13 391.09 146.94C395.13 142.41 399.65 138.47 404.66 135.11C404.97 134.9 405.39 135.12 405.39 135.5V136.05C405.39 136.16 405.34 136.26 405.26 136.32C397.18 143.41 391.9 148.29 389.42 150.96C385.15 155.57 382.29 161.42 380.84 168.5C380.67 169.35 380.6 169.82 380.65 169.93C380.84 170.4 381.48 170.47 381.77 170.05C391.07 156.4 398.38 143.36 413.54 137.96C414 137.8 414.45 138.25 414.27 138.71L414.09 139.17C414.07 139.22 414.04 139.27 414 139.31C409.93 143.6 406.04 148.47 402.35 153.91C399.61 157.94 396.05 161.38 393.52 165.81C389.19 173.38 385.72 181.12 383.12 189.03C380.19 197.91 383.38 202.81 389.38 209.7C389.62 209.97 389.97 210.14 390.34 210.15C394.59 210.26 397.69 209.75 399.64 208.62C403.9 206.13 407.45 202.42 410.28 197.5C410.87 196.46 413.12 192.25 417.01 184.88C419.26 180.62 420.24 177.83 421.94 173.34C422.04 173.08 422.28 172.91 422.56 172.91Z" fill="white"/>
<path d="M424.79 143.6C427.62 144.97 425.91 152.72 425.21 155.49C421.99 168.15 417.46 179.78 411.63 190.37C408.48 196.08 404.54 201.06 399.83 205.3C398.43 206.55 396.52 206.99 394.11 206.62C384.3 205.09 387.98 191.72 390.12 184.87C393.3 174.68 398.12 165.19 404.58 156.39C409.73 149.38 416.1 145.07 423.71 143.46C424.07 143.39 424.45 143.44 424.79 143.6Z" fill="#03336C"/>
<path d="M606.42 204.81L607.21 206.09C611.26 211.65 622.23 211.06 628.38 210.67C628.83 210.64 629.21 210.31 629.3 209.87C630.81 203.2 633.21 192.08 636.5 176.49C637.9 169.84 639.7 164.23 641.91 159.68C641.87 161.93 641.73 163.49 641.49 164.36C638.69 174.48 635.87 182.6 635.1 191.73C635.07 191.99 635.3 192.2 635.56 192.16C641.32 191.26 647.15 189.83 653.06 187.87C650.75 197.32 648.69 206.65 646.87 215.85C646.53 217.56 645.72 220.54 644.43 224.79C642.51 231.11 634.14 232.89 628.46 233.04C619.47 233.29 614.71 228.31 608.71 222.54C608.47 222.31 608.09 222.28 607.82 222.47C601.65 226.91 597.77 229.63 596.16 230.63C589.55 234.73 582.53 237.44 575.09 238.77C562.43 241.03 551.73 235.27 543.03 226.7C542.76 226.43 542.31 226.44 542.06 226.73C534.46 235.27 526.25 243.52 514.58 246.34C507.03 248.16 500.26 246.71 494.29 242C488.01 237.05 482.4 228.93 479.47 224.01C479.3 223.73 478.89 223.74 478.74 224.03C476.73 227.78 473.89 231.72 470.21 235.85C465.01 241.69 460.07 246.22 453.24 248.73C446.24 251.3 439.58 250.88 433.25 247.49C430.78 246.16 426.45 242.45 424.94 240.88C424.69 240.62 424.27 240.62 424.01 240.87C416.46 248.25 405.11 256.38 394.23 255.5C386.25 254.86 379.83 250.05 373.75 244.42C373.5 244.19 373.11 244.21 372.89 244.46C370 247.68 367.39 250.38 365.06 252.57C354.39 262.54 339.45 263.67 328.83 252.9C326.77 250.81 324.59 248.54 322.3 246.09L318.77 240.39L314.91 231.25C320.91 227.15 317.86 222.41 317.82 216.62C317.75 208.31 319.51 198.54 324.38 191.51C321.27 200.06 319.61 208.39 319.41 216.5C319.31 220.59 320.25 224.81 322.24 229.14C324.92 234.99 329.27 238.25 335.53 238.73C342.9 239.3 349.31 234.01 353.56 228.81C356.4 225.32 360.08 220.51 364.61 214.36C364.74 214.18 365.03 214.24 365.08 214.46C367.36 225.97 376.09 234.63 388.34 233.28C396.28 232.41 404.49 226.41 409.01 219.51C411.86 215.15 414.34 211.23 416.45 207.76C416.62 207.48 417.04 207.6 417.05 207.93C417.17 213.43 418.12 219.66 422.09 223.44C424.89 226.11 427.87 227.57 431.02 227.81C444.27 228.82 453.22 221.23 459.88 210.76C464.29 203.82 468.36 196.33 472.09 188.29C473.3 185.68 475.61 179.62 479.01 170.13C481.18 164.06 483.51 158 485.99 151.96L474.92 185.97C474.83 186.25 474.81 186.55 474.87 186.84C475.28 188.68 476.08 192.49 477.55 193.35C478.14 193.7 478.97 193.49 479.51 192.85C480.6 191.58 481.57 189.91 482.42 187.86C483.99 184.05 485.07 181.45 486.16 178.06C488.53 170.71 491.62 163.66 495.41 156.93C496.85 154.38 497.37 151.66 496.96 148.79L500.43 147.78C500.75 147.69 501.03 148.01 500.89 148.31C498.58 153.36 496.51 157.64 494.7 161.17C491.96 166.5 490.03 170.84 488.92 174.17C484.54 187.32 475.33 221.49 497.3 224.87C506.6 226.3 514.34 220.22 520.16 214.17C525.39 208.72 529.96 202.66 533.86 195.97C534.12 195.52 534.8 195.63 534.9 196.14C536.14 202.69 539.52 207.97 545.04 211.99C556.67 220.44 571.92 216.87 583.27 210.16C590.53 205.88 597.2 200.58 603.28 194.27C605.81 191.64 607.12 190.29 607.21 190.2C606.74 192.83 606.3 195.41 605.91 197.96C605.54 200.37 605.71 202.66 606.42 204.81Z" fill="#002960"/>
<path d="M496.96 148.79C497.37 151.66 496.85 154.38 495.41 156.93C491.62 163.66 488.53 170.71 486.16 178.06C485.07 181.45 483.99 184.05 482.42 187.86C481.57 189.91 480.6 191.58 479.51 192.85C478.97 193.49 478.14 193.7 477.55 193.35C476.08 192.49 475.28 188.68 474.87 186.84C474.81 186.55 474.83 186.25 474.92 185.97L485.99 151.96C486.19 150.67 486.7 149.69 487.53 149.04C488.18 148.54 489.19 148.44 490.57 148.75C492.67 149.22 494.8 149.24 496.96 148.79Z" fill="#03336C"/>
<path d="M247.85 183.27C247.76 183.75 247.35 184.1 246.86 184.13C243.03 184.35 239.91 183.42 237.5 181.34C232 176.61 235.05 164.44 240.99 160.87C241.96 160.29 243.2 160.47 243.95 161.31C248.53 166.42 249.11 177.02 247.85 183.27Z" fill="#03336C"/>
<path d="M576.67 181.55L578.44 174.54C578.53 174.18 578.95 174.01 579.27 174.2L583.08 176.4C583.56 176.68 583.59 177.36 583.13 177.68L577.06 181.82C576.87 181.95 576.61 181.78 576.67 181.55Z" fill="#03336C"/>
<path d="M792.61 177.26L788.87 191.12C788.74 191.58 789.13 192.01 789.6 191.93C801.57 189.95 813.52 189.76 825.46 191.36C831.33 192.14 837.03 193.49 842.57 195.42C849.5 197.83 855.39 202.37 854.87 210.5C854.55 215.34 853 220.26 850.21 225.26C850.57 222.38 851.06 219.53 851.68 216.72C853.39 208.98 851.34 204.93 845.6 199.57C845.37 199.35 845.11 199.17 844.82 199.02C840.43 196.8 835.28 195.42 829.39 194.89C822.17 194.24 815.38 193.79 809.02 193.55C801.81 193.27 792.82 195.51 786.92 194.9C786.27 194.83 785.82 194.22 785.95 193.59C787.12 187.75 789.34 182.31 792.61 177.26Z" fill="white"/>
<path d="M743.54 207.44C733.85 212.35 725.01 217.87 717.02 224.02C703.31 234.57 689.71 249.89 684.46 265.96C680.29 278.74 682.22 292.53 691.76 302.39C696.26 306.36 701.51 308.48 707.52 308.75C722.88 309.44 737.57 298.48 747.79 287.54C754.45 280.41 759.89 273.09 764.1 265.59C769.63 255.94 773.95 245.8 777.05 235.16C778.7 229.5 780.55 222.54 782.58 214.28C782.88 213.07 783.16 212.1 783.42 211.37C783.69 210.61 784.35 210.06 785.14 209.92C804.79 206.48 830.35 206.35 842.74 225.31C844.61 228.64 848.88 229.47 850.21 225.26C853 220.26 854.55 215.34 854.87 210.5C855.39 202.37 849.5 197.83 842.57 195.42C837.03 193.49 831.33 192.14 825.46 191.36C830.25 190.29 832.23 187.3 831.42 182.39C841.4 183.6 853.92 186.65 859.26 195.75C859.89 196.82 860.94 199.39 862.43 203.45C863.44 206.26 864.47 208.35 865.51 209.74C868.61 213.89 871.15 218.17 873.13 222.59C873.28 226.04 873.16 228.34 872.78 229.49C870.89 235.24 867.97 240.74 864.01 245.99C860.74 250.34 856.99 251.84 852.76 250.5C849.31 249.4 847.64 247.11 844.59 244.16C832.57 232.56 816.66 229.89 800.58 231.74C800.17 231.79 799.83 232.08 799.71 232.48C793.71 253.37 786.93 273.58 775.42 290.98C770.69 298.15 765.61 304.49 760.18 310C748.36 322.02 724.51 335.25 707.27 328.28C698.78 324.85 691.27 318.8 684.74 310.12C673.2 294.21 670.97 277.19 678.06 259.06C680.59 252.59 684.24 246.11 689.03 239.61L695.48 231.51C697.51 233.38 699.72 234.16 702.1 233.86C704.36 233.58 706.19 230.65 708.05 229.31C711.19 227.05 712.98 225.17 716.35 222.87C718.12 221.66 721 219.63 724.99 216.77C728.34 214.36 731.31 212.49 733.88 211.14C740.22 207.82 747.89 204.16 756.9 200.15C757.91 199.7 758.66 198.81 758.92 197.74L759.94 193.73C760 193.47 759.83 193.22 759.57 193.18C758.1 192.97 756.91 193.12 755.99 193.61C752.81 195.33 748.6 198.42 744.75 199.73C740.28 201.26 735.64 201.76 730.83 201.23C721.65 200.22 716.21 193.36 712.72 185.38C712.5 184.89 711.83 184.83 711.53 185.27C709.5 188.23 706.85 191.27 703.57 194.39C699.01 198.71 694.98 202.62 689.28 205.54C685.4 207.53 680.58 209.17 676.55 207.13C680.08 207.64 683.47 207.09 686.72 205.47C698.02 199.83 705.16 191.03 711.82 180.49L713.65 177.78C713.82 177.53 714.2 177.63 714.23 177.92C714.51 180.47 714.66 181.85 714.68 182.07C715.51 191.34 721.74 199.27 731.22 200.05C740.06 200.77 748.29 197.99 755.01 192.49C759.27 189.02 762.23 186.44 763.88 184.76C764.12 184.52 764.52 184.74 764.44 185.07C763.66 188.46 762.54 192.46 761.08 197.07C760.31 199.53 759.17 200.64 756.66 201.57C752.13 203.25 747.75 205.21 743.54 207.44Z" fill="#002960"/>
<path d="M130.05 227.91C124.82 226.46 119.61 225.06 114.42 223.71C107.21 221.83 102.04 220.31 98.9001 219.14C86.0301 214.35 74.7301 207.55 65.0101 198.72C60.5201 194.64 56.3701 189.21 52.5501 182.44C51.8401 180.92 51.5501 179.28 51.7001 177.53C57.5701 185.84 64.2601 192.48 71.7701 197.47C81.5401 203.94 91.6901 208.53 102.23 211.22C107.28 212.51 112.31 213.85 117.33 215.24C122.4 216.64 126.24 218.43 128.87 220.61C130.6 222.05 130.99 224.48 130.05 227.91Z" fill="#003074"/>
<path d="M220.3 180.49C221.59 183.3 222.54 185.25 223.14 186.35C227.08 193.6 233.25 197.29 241.64 197.4C242.15 197.4 242.51 197.92 242.33 198.4C238.48 209.1 232.7 218.53 224.99 226.7C219.28 232.75 210.54 227.84 209.62 220.66C207.87 207.1 212.67 191.96 219.57 180.45C219.74 180.16 220.16 180.19 220.3 180.49Z" fill="#03336C"/>
<path d="M591.55 184.49C588.82 188.3 584.96 191 579.97 192.59C580.36 191 581.43 190.02 583.18 189.66C583.42 189.61 583.66 189.51 583.87 189.38L591.55 184.49Z" fill="#03336C"/>
<path d="M657.32 203.23L652.5 226.46C650.66 232.72 650.23 238.96 643.21 241.65C633.54 245.35 624.91 244.03 617.33 237.69C615.9 236.5 614.34 235.09 612.67 233.47C612.46 233.27 612.12 233.25 611.88 233.42L600.83 241.42C592.35 246.49 582.54 250.05 572.53 249.72C563.42 249.42 554.1 244.16 547.64 238.01C547.42 237.8 547.07 237.82 546.87 238.04C542.87 242.49 538.48 246.54 533.69 250.2C524.96 256.41 515.29 260.36 504.86 255.77C494.71 251.3 490.03 244.3 484.76 235.27C484.55 234.9 484.01 234.88 483.77 235.25C480.88 239.69 477.71 243.94 474.26 248.01C471.65 251.08 468.62 253.75 465.18 256.03C462.25 257.68 460.17 258.74 458.96 259.23C447.93 263.64 438.56 260.09 429.99 252.81C429.52 252.41 428.82 252.44 428.38 252.87C420.14 260.8 407.89 267.54 396.42 265.84C389.47 264.75 383.81 260.33 378.57 255.97C378.15 255.61 377.51 255.68 377.17 256.12C371.32 263.61 361 271.77 351.26 271.26C344.82 270.92 338.46 268.55 333.82 263.9C332.53 262.61 331.28 261.32 330.08 260.05L327.48 256.63C324.54 253.41 322.81 249.9 322.3 246.09C324.59 248.54 326.77 250.81 328.83 252.9C339.45 263.67 354.39 262.54 365.06 252.57C367.39 250.38 370 247.68 372.89 244.46C373.11 244.21 373.5 244.19 373.75 244.42C379.83 250.05 386.25 254.86 394.23 255.5C405.11 256.38 416.46 248.25 424.01 240.87C424.27 240.62 424.69 240.62 424.94 240.88C426.45 242.45 430.78 246.16 433.25 247.49C439.58 250.88 446.24 251.3 453.24 248.73C460.07 246.22 465.01 241.69 470.21 235.85C473.89 231.72 476.73 227.78 478.74 224.03C478.89 223.74 479.3 223.73 479.47 224.01C482.4 228.93 488.01 237.05 494.29 242C500.26 246.71 507.03 248.16 514.58 246.34C526.25 243.52 534.46 235.27 542.06 226.73C542.31 226.44 542.76 226.43 543.03 226.7C551.73 235.27 562.43 241.03 575.09 238.77C582.53 237.44 589.55 234.73 596.16 230.63C597.77 229.63 601.65 226.91 607.82 222.47C608.09 222.28 608.47 222.31 608.71 222.54C614.71 228.31 619.47 233.29 628.46 233.04C634.14 232.89 642.51 231.11 644.43 224.79C645.72 220.54 646.53 217.56 646.87 215.85C648.69 206.65 650.75 197.32 653.06 187.87L657.32 203.23Z" fill="#003074"/>
<path d="M123.95 252.74C117.02 258.79 109.19 263.38 100.46 266.49C90.03 270.21 83.38 273.21 74.73 274.04C66.14 274.86 57.08 275.03 47.55 274.55C41.12 273.78 34.74 273.12 28.4 270.84C27.27 270.44 26.57 269.71 26.28 268.64C26.14 268.13 26.66 267.7 27.14 267.91C30.59 269.43 34.11 270.03 37.72 269.71C43.17 271.14 48.59 271.9 54 271.97C82.31 272.35 109.74 263.56 129.59 242.6C138.19 233.52 145.12 219.49 136.8 207.7C134.1 203.87 130.54 200.53 126.12 197.7C129.37 197.85 132.32 199.01 134.98 201.2C137.31 203.11 139.07 205.76 140.26 209.13C143.56 218.44 142.53 226.74 138 234.94C137 236.75 134.71 239.73 131.13 243.9C128.65 246.78 126.26 249.73 123.95 252.74Z" fill="white"/>
<path d="M259.55 206.08C257.39 215.73 253.24 224.18 247.1 231.45L256.64 210.86C256.71 210.71 256.85 210.6 257.01 210.58C257.12 210.56 257.22 210.52 257.3 210.47C257.37 210.42 257.45 210.31 257.52 210.16L259.55 206.08Z" fill="white"/>
<path d="M842.74 225.31C830.35 206.35 804.79 206.48 785.14 209.92C784.35 210.06 783.69 210.61 783.42 211.37C783.16 212.1 782.88 213.07 782.58 214.28C780.55 222.54 778.7 229.5 777.05 235.16C773.95 245.8 769.63 255.94 764.1 265.59C762.66 257.49 766.25 250.87 769.39 243.24C771.42 238.32 772.3 233.74 773.59 229.54C775.23 224.21 777.69 218.44 780.98 212.23C783.52 207.43 786.27 206.56 791.69 206.39C801.4 206.08 807.43 205.99 809.79 206.12C818.4 206.59 824.32 209.53 835.16 214.34C840.14 216.55 842.67 220.2 842.74 225.31Z" fill="white"/>
<path d="M691.76 302.39C682.22 292.53 680.29 278.74 684.46 265.96C689.71 249.89 703.31 234.57 717.02 224.02C725.01 217.87 733.85 212.35 743.54 207.44C746.05 207.98 748.53 207.9 750.97 207.2C751.1 207.16 751.25 207.24 751.29 207.37V207.38C751.34 207.52 751.26 207.68 751.12 207.72C743.04 210.31 737.33 211.96 731.85 216.49C727.4 220.17 722.56 223.79 717.34 227.36C712.67 230.55 708.81 233.72 705.76 236.86C696.24 246.65 688.49 258.83 685.35 272.31C683.9 278.53 684.48 284.7 687.09 290.83C687.25 291.22 688.13 292.64 689.74 295.08C691.16 297.25 691.83 299.68 691.76 302.39Z" fill="white"/>
<path d="M758.51 218.27C756.54 224.81 754 233.1 750.91 243.14C749.38 248.1 746.33 252.92 744.95 256.98C743.97 259.87 742.13 262.45 740.4 265.7C740.24 265.99 740.05 266.26 739.83 266.5C738.2 268.26 736.22 270.3 734.27 271.73C728.55 275.93 723.38 280.75 718.76 286.2C716.05 289.4 710.24 289.95 706.43 288.01C701.55 285.53 700.17 278.59 700.72 273.52C701.09 270.12 702.19 265.63 704.01 260.05C705.2 256.4 706.27 253.93 707.22 252.66C712.75 245.19 719.72 240.1 727.38 232.87C728.36 231.94 729.66 230.93 731.29 229.82C731.92 229.39 737.93 225.72 749.33 218.82C752.33 217.01 755.26 216.58 758.13 217.53C758.44 217.63 758.6 217.96 758.51 218.27ZM731.94 232.09L728.53 234.7C718.44 242.38 707.41 253.17 703.74 265.99C701.66 273.24 700.15 284.91 710.14 286.14C713.05 286.49 715.66 285.68 717.97 283.69C722.41 279.86 727.26 275.22 732.52 269.76C739.21 262.83 744.25 254.7 747.64 245.38C750.87 236.53 753.61 227.51 755.88 218.31C755.94 218.07 755.69 217.87 755.48 217.98C747.29 222.03 739.45 226.74 731.94 232.09Z" fill="white"/>
<path d="M695.48 231.51L689.03 239.61C685.5 238.68 681.67 236.78 677.55 233.93C670.98 229.38 666.66 223.6 664.61 216.58C666.06 217.82 667.47 219.04 668.82 220.23C677.16 227.61 688.33 231.86 698.95 226.75C699.21 226.62 699.46 226.95 699.27 227.17L695.48 231.51Z" fill="#003074"/>
<path d="M728.53 234.7C727.62 236.75 726.73 238.18 725.86 239C719.65 244.85 715.84 248.57 714.42 250.16C709 256.23 706.62 262.91 704.16 271.09C703.56 273.1 703.52 275.64 704.03 278.69C704.77 283.08 708.05 285.08 712.22 284.84C714.33 284.72 715.9 284.14 716.92 283.1C719.95 280 722.82 277.31 725.52 275.02C726.03 274.59 728.97 271.66 734.36 266.21C735.4 265.15 736.31 263.97 737.05 262.69C743.33 251.85 748.4 241.81 750.86 229.64C750.93 229.3 750.85 228.95 750.63 228.68C748.94 226.55 746.43 225.91 743.12 226.77C743.09 226.78 743.06 226.79 743.04 226.8L731.94 232.09C739.45 226.74 747.29 222.03 755.48 217.98C755.69 217.87 755.94 218.07 755.88 218.31C753.61 227.51 750.87 236.53 747.64 245.38C744.25 254.7 739.21 262.83 732.52 269.76C727.26 275.22 722.41 279.86 717.97 283.69C715.66 285.68 713.05 286.49 710.14 286.14C700.15 284.91 701.66 273.24 703.74 265.99C707.41 253.17 718.44 242.38 728.53 234.7Z" fill="#002960"/>
<path d="M878.44 232.33C878.83 237.19 877.94 241.83 875.77 246.24C874.08 249.67 872.26 252.77 870.31 255.55C868.22 257.91 866.7 259.33 865.75 259.8C860.82 262.29 856.47 261.64 852.7 257.83C839.52 244.54 824.76 241.19 806.17 242.06C805.85 242.07 805.57 242.29 805.47 242.6L800.63 259.26C795.69 273.49 790.32 287.17 782.43 299.5C770.48 318.4 755.25 332.95 733.66 339.78C714.99 343.66 701.61 335.52 690.14 321.61C687.01 317.82 685.21 313.99 684.74 310.12C691.27 318.8 698.78 324.85 707.27 328.28C724.51 335.25 748.36 322.02 760.18 310C765.61 304.49 770.69 298.15 775.42 290.98C786.93 273.58 793.71 253.37 799.71 232.48C799.83 232.08 800.17 231.79 800.58 231.74C816.66 229.89 832.57 232.56 844.59 244.16C847.64 247.11 849.31 249.4 852.76 250.5C856.99 251.84 860.74 250.34 864.01 245.99C867.97 240.74 870.89 235.24 872.78 229.49C873.16 228.34 873.28 226.04 873.13 222.59C875.94 225.14 877.71 228.39 878.44 232.33Z" fill="#003074"/>
<path d="M728.53 234.7L731.94 232.09L743.04 226.8C743.06 226.79 743.09 226.78 743.12 226.77C746.43 225.91 748.94 226.55 750.63 228.68C750.85 228.95 750.93 229.3 750.86 229.64C748.4 241.81 743.33 251.85 737.05 262.69C736.31 263.97 735.4 265.15 734.36 266.21C728.97 271.66 726.03 274.59 725.52 275.02C722.82 277.31 719.95 280 716.92 283.1C715.9 284.14 714.33 284.72 712.22 284.84C708.05 285.08 704.77 283.08 704.03 278.69C703.52 275.64 703.56 273.1 704.16 271.09C706.62 262.91 709 256.23 714.42 250.16C715.84 248.57 719.65 244.85 725.86 239C726.73 238.18 727.62 236.75 728.53 234.7Z" fill="#03336C"/>
<path d="M20.9296 269.48C22.8796 275.56 32.4996 277.65 37.9496 278.57C52.8596 281.09 67.1296 281.33 80.7596 279.29C94.0696 277.29 107.33 271.44 119.2 264.43C124.39 261.36 128.78 257.73 133.59 253.78C138.05 250.12 142.3 245.35 146.35 239.48C147.12 238.36 148.01 237.53 149.03 236.98C149.68 236.63 150.48 236.96 150.69 237.66C151.75 241.22 150.04 246.74 148.72 249.65C144.87 258.08 138.98 262.91 131.35 268.81C122.95 275.29 114.92 280.57 104.83 284.51C80.2097 294.11 51.5096 301.42 25.7796 290.8C19.8296 288.34 12.0596 282.69 13.9996 275.02C14.7096 272.22 16.8196 270.27 20.3196 269.16C20.5696 269.08 20.8496 269.22 20.9296 269.48Z" fill="white"/>
<path d="M312.31 231.48C310.44 239.41 307.93 247.6 304.77 256.03C303.7 258.9 302.01 260.79 299.71 261.72C292.22 264.73 285.5 261.73 279.76 256.98C276.42 254.22 272.63 251.01 268.39 247.36C268.03 247.06 267.5 247.11 267.2 247.47C258.84 257.61 251.08 265.56 239.04 270.5C223.77 276.78 206.62 271.71 195.27 260.45C205.02 259.35 212.91 258.12 218.96 256.75C223.21 255.78 232.43 253.24 246.64 249.12C249.87 248.19 257.42 246.59 269.29 244.34C269.58 244.28 269.89 244.38 270.11 244.59C270.13 244.61 270.15 244.64 270.18 244.68C270.27 244.79 270.4 244.86 270.54 244.88C279.54 246.23 287.97 244.96 295.84 241.05C301.05 238.47 306.54 235.28 312.31 231.48Z" fill="#002960"/>
<path d="M47.5501 274.55C57.0801 275.03 66.1401 274.86 74.7301 274.04C83.3801 273.21 90.0301 270.21 100.46 266.49C109.19 263.38 117.02 258.79 123.95 252.74L139.13 240C139.66 239.56 140.4 240.17 140.08 240.78C138.51 243.76 136.32 246.51 133.52 249.04C121.2 260.17 105.66 269.45 89.2701 273.31C81.7701 275.08 76.7201 276.18 74.1201 276.61C68.1401 277.6 61.3801 277.94 53.8301 277.63C48.9901 277.42 44.7901 276.73 41.2301 275.55C41.0701 275.5 41.1001 275.26 41.2701 275.24L47.5501 274.55Z" fill="white"/>
<path d="M185.52 263.47C177.78 279.18 167.11 289.96 152.87 300.88C140.29 310.53 126.23 317.3 111.37 322.62C105.98 324.55 100.83 325.97 95.94 326.89C76.2 330.58 54.51 331.62 35.65 324.32C25.79 320.5 17.24 313.85 9.99003 304.36L5.61003 297.83C0.400028 288.21 -0.569976 278.15 2.70003 267.66C5.53003 268.55 8.43003 268.56 11.4 267.69C7.70003 275.78 6.97003 285.02 12.09 292.65C19.58 303.83 34.59 307.31 47.51 307.98C88.02 310.1 127.83 293.46 155.73 264.01L185.52 263.47Z" fill="#002960"/>
</g>
<defs>
<clipPath id="clip0_3_1885">
<rect width="879" height="341" fill="white"/>
</clipPath>
</defs>
</svg>
