<svg width="97" height="46" viewBox="0 0 97 46" fill="none" xmlns="http://www.w3.org/2000/svg">
<path d="M31.0267 15.0037C31.0495 15.0146 31.0746 15.0202 31.1 15.0202C31.1254 15.0201 31.1506 15.0143 31.1736 15.0033C31.1966 14.9923 31.2169 14.9762 31.233 14.9564C31.2492 14.9366 31.2607 14.9134 31.2668 14.8886C31.4407 14.1689 31.5775 13.5345 31.6774 12.9854C32.4675 8.66562 33.2189 4.59569 33.9316 0.775603C34.0366 0.214528 34.3706 -0.0421333 34.9335 0.0056178C35.6668 0.0670121 36.5061 0.12329 37.2446 0.289567C40.5945 1.04335 44.0021 1.59846 47.4674 1.95489C47.5549 1.9632 47.6377 1.99705 47.705 2.05209C47.9512 2.2431 48.0433 2.50999 47.9813 2.85278C47.0466 8.00649 46.228 12.9172 45.5256 17.5849C45.2261 19.5699 44.8181 21.0127 43.0545 21.7111C41.1308 22.4708 38.9953 21.7136 38.5073 19.6595C37.9934 17.4876 39.7054 16.0628 41.7866 16.2419C42.4614 16.2998 43.119 16.4891 43.7594 16.8097C43.7868 16.823 43.8169 16.8299 43.8473 16.8296C43.8777 16.8294 43.9076 16.8221 43.9346 16.8084C43.9615 16.7947 43.9847 16.7749 44.0023 16.7507C44.0198 16.7265 44.0313 16.6985 44.0357 16.6691L45.5231 6.73852C45.5392 6.63073 45.5114 6.52093 45.4455 6.43318C45.3797 6.34544 45.2813 6.2869 45.1719 6.27039L35.5119 4.84809C35.3551 4.82536 35.1952 4.85605 35.0586 4.9351C34.922 5.01415 34.8169 5.13685 34.7605 5.28297C34.5849 5.73149 34.4661 6.13567 34.4042 6.49551C33.6743 10.7112 33.0098 14.1868 32.4107 16.9223C32.0131 18.7462 30.3656 19.9971 28.5917 20.2734C27.1456 20.5011 25.413 19.6671 25.0876 18.122C24.7933 16.733 25.2219 15.39 26.6576 14.84C28.1363 14.2738 29.5927 14.3284 31.0267 15.0037Z" fill="#E7260F"/>
<path d="M82.5791 37.3322C82.6003 37.3452 82.624 37.3535 82.6486 37.3565C82.6732 37.3595 82.6981 37.3572 82.7217 37.3496C82.7453 37.342 82.7669 37.3294 82.7852 37.3127C82.8035 37.2959 82.818 37.2754 82.8276 37.2524C83.2603 36.2452 83.6367 35.2412 83.9567 34.2405C85.2708 30.1265 86.057 27.6851 86.3153 26.9161C86.5714 26.15 86.8406 25.2283 87.123 24.1511C87.1553 24.0279 87.2319 23.9211 87.3378 23.8516C87.4437 23.7822 87.5713 23.7552 87.6955 23.7758C88.4143 23.8976 89.0974 24.1828 89.7448 24.6312C90.6775 25.2788 91.5909 26.0208 92.4851 26.8573C94.2753 28.5331 95.7736 31.4162 94.8937 33.9058C94.3785 35.3653 93.0964 36.5873 91.7797 37.0643C91.7346 37.0798 91.6952 37.0832 91.6615 37.0747C91.6181 37.0625 91.5791 37.038 91.5491 37.0041C91.5191 36.9702 91.4992 36.9282 91.4919 36.8831C91.4846 36.838 91.4901 36.7916 91.5078 36.7494C91.5255 36.7072 91.5546 36.6709 91.5918 36.6448C93.1579 35.5372 93.1094 33.8989 92.1412 32.3808C91.0752 30.709 89.5887 29.514 87.6816 28.7959C87.6479 28.7831 87.612 28.7775 87.5759 28.7793C87.5399 28.7812 87.5045 28.7904 87.4719 28.8065C87.4392 28.8226 87.41 28.8452 87.386 28.8729C87.362 28.9007 87.3436 28.9331 87.332 28.9681C86.8498 30.4081 86.3479 31.985 85.8261 33.6989C85.1446 35.9428 84.2864 38.1441 83.2513 40.3028C83.1262 40.561 82.911 40.7976 82.6059 41.0125C81.1525 42.0299 79.1555 42.7349 77.5438 42.0473C76.3593 41.5428 75.227 40.3552 75.5446 38.9269C76.3254 35.4037 80.3436 35.9419 82.5791 37.3322Z" fill="#57C680"/>
<rect x="70.3945" y="12.3179" width="9.99284" height="2.49821" rx="1.2491" transform="rotate(121.845 70.3945 12.3179)" fill="url(#paint0_linear_57_1106)"/>
<rect x="1.87549" y="4" width="9.99284" height="2.49821" rx="1.2491" transform="rotate(48.6554 1.87549 4)" fill="url(#paint1_linear_57_1106)"/>
<defs>
<linearGradient id="paint0_linear_57_1106" x1="70.3945" y1="12.3179" x2="78.0763" y2="17.9616" gradientUnits="userSpaceOnUse">
<stop stop-color="#FFF8C4"/>
<stop offset="0.4" stop-color="#FFD03B"/>
<stop offset="0.7" stop-color="#E2A100"/>
<stop offset="1" stop-color="#7C5100"/>
</linearGradient>
<linearGradient id="paint1_linear_57_1106" x1="1.87549" y1="4" x2="9.5573" y2="9.64378" gradientUnits="userSpaceOnUse">
<stop stop-color="#FFF8C4"/>
<stop offset="0.4" stop-color="#FFD03B"/>
<stop offset="0.7" stop-color="#E2A100"/>
<stop offset="1" stop-color="#7C5100"/>
</linearGradient>
</defs>
</svg>
